# Blender v2.91.0 OBJ File: 'cristals.blend'
# www.blender.org
mtllib crystal_28.mtl
o crystal_28
v -0.605362 0.758464 0.211808
v -0.605362 0.758464 -0.211808
v -0.418775 -0.951127 0.488356
v 0.096827 -1.430000 0.249642
v -0.389089 -0.862863 0.532355
v -0.374134 -0.727631 0.554520
v -0.340448 -1.223939 0.352362
v -0.200715 -1.430000 0.249642
v -0.605362 0.091796 -0.211808
v -0.605362 0.091796 0.211808
v -0.480227 -0.737092 0.397276
v 0.412910 0.676849 0.497048
v 0.337566 -0.649570 0.567315
v 0.374134 -0.452412 0.554520
v 0.470985 0.069766 0.410974
v 0.298006 -0.862863 0.532355
v 0.219002 -1.288819 0.320020
v -0.480227 -0.737092 -0.345474
v -0.500459 -0.603072 -0.367288
v -0.340448 -1.223939 -0.179160
v -0.398119 -1.023073 -0.298925
v -0.200715 -1.430000 -0.056297
v 0.219002 -1.288819 -0.140475
v 0.268291 -1.023073 -0.298925
v 0.096827 -1.430000 -0.056297
v -0.499123 1.003260 0.369269
v -0.397064 0.711851 0.520536
v -0.374134 0.419401 0.554520
v 0.396845 0.709062 0.520860
v 0.395454 0.711851 0.520536
v 0.374134 0.419401 0.554520
v -0.151217 -0.251775 0.632516
v 0.151217 -0.251775 0.632516
v 0.470985 0.069766 -0.410572
v -0.469527 -0.321414 -0.413134
v 0.398431 -0.321414 -0.413134
v -0.569373 0.841390 -0.265149
v -0.472427 0.334920 -0.408836
v 0.412910 0.676850 -0.311829
v 0.445620 0.334920 -0.408836
v -0.366165 1.309623 0.210240
v 0.097321 1.309623 0.210240
v -0.477886 1.052194 -0.205343
v 0.225711 1.052194 -0.205343
vt 0.422562 0.556270
vt 0.422562 0.794383
vt 0.422562 0.794383
vt 0.422562 0.556270
vt 0.441546 0.086324
vt 0.451559 0.012724
vt 0.472881 0.012724
vt 0.481636 0.063150
vt 0.487298 0.215292
vt 0.438060 0.215292
vt 0.435934 0.183764
vt 0.431529 0.260212
vt 0.431529 0.260212
vt 0.430080 0.308082
vt 0.437414 0.158068
vt 0.485168 0.158068
vt 0.481636 0.063150
vt 0.472881 0.012724
vt 0.451559 0.012724
vt 0.441546 0.086324
vt 0.494381 0.776740
vt 0.494281 0.777736
vt 0.437489 0.777736
vt 0.439132 0.673280
vt 0.455106 0.433556
vt 0.476779 0.433556
vt 0.492754 0.673280
vt 0.439132 0.263590
vt 0.490133 0.291475
vt 0.430176 0.881820
vt 0.492754 0.361893
vt 0.499694 0.548398
vt 0.495532 0.765235
vt 0.499694 0.548398
vt 0.494494 0.408683
vt 0.432297 0.408683
vt 0.432088 0.643105
vt 0.497876 0.643105
vt 0.495532 0.765235
vt 0.425141 0.824002
vt 0.439704 0.991241
vt 0.472916 0.991241
vt 0.482117 0.899294
vt 0.431697 0.899294
vn -1.0000 0.0000 0.0000
vn 0.0000 -0.4461 0.8950
vn -0.9888 -0.1493 -0.0000
vn 0.0000 -0.5121 -0.8589
vn -0.8277 -0.5612 -0.0000
vn 0.0000 -1.0000 0.0000
vn -0.9612 -0.2760 -0.0000
vn 0.7562 -0.6544 -0.0000
vn -0.0000 0.1154 0.9933
vn 0.0000 -0.1617 0.9868
vn -0.3303 0.0000 0.9439
vn -0.8290 -0.0000 0.5593
vn 0.8290 0.0000 0.5593
vn 0.3303 0.0000 0.9439
vn 0.9832 -0.1824 -0.0000
vn 0.0000 -0.1607 -0.9870
vn 0.0000 0.0065 -1.0000
vn 0.9955 0.0952 0.0000
vn -0.8290 -0.0000 -0.5593
vn -0.0000 0.8501 -0.5266
vn 0.0000 0.4607 0.8875
vn -0.0000 0.2729 -0.9620
vn -0.9173 0.3981 -0.0000
vn 0.8949 0.4463 0.0000
usemtl Material.004
s off
f 10/1/1 1/2/1 2/3/1 9/4/1
f 7/5/2 8/6/2 4/7/2 17/8/2 16/9/2 5/10/2 3/11/2
f 18/12/3 11/13/3 10/1/3 9/4/3 19/14/3
f 21/15/4 24/16/4 23/17/4 25/18/4 22/19/4 20/20/4
f 8/6/5 7/5/5 20/20/5 22/19/5
f 4/7/6 8/6/6 22/19/6 25/18/6
f 11/13/7 18/12/7 21/15/7 20/20/7 7/5/7 3/11/7
f 17/8/8 4/7/8 25/18/8 23/17/8
f 29/21/9 30/22/9 27/23/9 28/24/9 32/25/9 33/26/9 31/27/9
f 32/25/10 6/28/10 5/10/10 16/9/10 13/29/10 33/26/10
f 28/24/11 6/28/11 32/25/11
f 5/10/12 6/28/12 28/24/12 27/23/12 26/30/12 1/2/12 10/1/12 11/13/12 3/11/12
f 31/27/13 14/31/13 15/32/13 12/33/13 29/21/13
f 13/29/14 14/31/14 31/27/14 33/26/14
f 34/34/15 15/32/15 14/31/15 13/29/15 16/9/15 17/8/15 23/17/15 24/16/15 36/35/15
f 24/16/16 21/15/16 18/12/16 19/14/16 35/36/16 36/35/16
f 34/34/17 36/35/17 35/36/17 38/37/17 40/38/17
f 12/33/18 15/32/18 34/34/18 40/38/18 39/39/18
f 9/4/19 2/3/19 37/40/19 38/37/19 35/36/19 19/14/19
f 41/41/20 42/42/20 44/43/20 43/44/20
f 41/41/21 26/30/21 27/23/21 30/22/21 42/42/21
f 39/39/22 40/38/22 38/37/22 37/40/22 43/44/22 44/43/22
f 43/44/23 37/40/23 2/3/23 1/2/23 26/30/23 41/41/23
f 30/22/24 29/21/24 12/33/24 39/39/24 44/43/24 42/42/24
