# Blender v2.91.0 OBJ File: 'cristals.blend'
# www.blender.org
mtllib crystal_25.mtl
o crystal_25
v -0.736879 4.871147 -0.270237
v 0.074969 -0.252125 0.863436
v -0.845699 -0.057928 0.530290
v -0.880660 4.341810 0.152031
v -0.402668 3.358866 0.719434
v -0.549603 7.663915 0.226302
v 0.521483 -0.790850 0.669039
v 0.644236 2.516330 -0.035285
v 0.335746 7.210797 -0.464374
v -0.408298 2.596632 -0.554179
v -0.066210 -0.335860 -0.927509
v 0.335569 2.520927 -0.583646
v 0.732336 -0.207793 -0.522740
v 0.827366 -1.227041 0.374605
v -0.973892 -0.188190 -0.196466
v 0.905688 -0.701166 -0.070650
v -0.842871 -2.643780 0.332266
v -0.872145 -2.689410 0.164993
v 0.786482 -2.404993 -0.043159
v 0.748099 -2.369207 0.349193
v 0.805568 -2.434819 -0.265342
v 0.211019 -3.009363 0.731615
v 0.169325 -2.864594 0.779323
v 0.079536 -2.712267 0.819172
v -0.481611 -2.652174 0.716395
v -0.342992 -2.633927 0.754837
v -0.572728 -2.708035 0.673823
v -0.653303 -2.977275 0.549456
v 0.206273 -2.470236 -0.800810
v 0.337719 -2.505636 -0.751486
v 0.093976 -2.323194 -0.872187
v 0.748993 -2.472062 -0.406361
v 0.782622 -2.541661 -0.319519
v 0.557913 -3.328876 -0.266704
v 0.480098 -2.876970 -0.614699
v -0.294957 -2.856456 -0.842348
v -0.454672 -2.854250 -0.714635
v -0.267314 -2.886467 -0.842388
v -0.813739 -3.065397 -0.209950
v -0.822681 -3.036696 -0.136685
v -0.648403 -2.993947 0.543985
v -0.772846 -3.115870 -0.262120
v 0.214861 -3.021879 0.727544
v -0.412445 -3.208170 0.512666
v -0.281978 -3.388772 0.277698
v 0.396121 -3.281113 -0.539374
v 0.459548 -3.341508 -0.411413
v -0.147078 -3.158334 -0.737318
v -0.539815 -3.327497 -0.293263
v -0.454514 -3.374689 -0.198642
v 0.551270 -3.031908 0.455897
v 0.529470 -3.317685 -0.010472
v 0.104959 -3.344902 0.319668
v 0.253740 -3.046862 0.694288
v -0.014222 10.102603 -0.120297
v 0.099940 10.434991 0.022722
v 0.118151 10.506248 0.080988
v 0.079395 10.447059 0.106323
v -0.026081 10.236482 0.095343
v 0.485244 7.838167 0.251357
v 0.555284 7.363525 0.211445
v 0.501244 7.952078 0.093185
v 0.292386 9.489979 0.130066
v 0.086235 9.474906 0.489720
v 0.384068 7.294038 0.705462
v -0.336744 6.843390 0.822812
v 0.124298 9.126213 0.546013
v 0.032156 9.098014 0.552847
v 0.408398 5.789674 0.844992
v -0.336150 5.626876 0.943512
v 0.078485 0.327344 0.964775
v 0.437120 0.572830 0.928156
v 0.580351 1.209392 0.910595
v -0.358867 3.569239 0.990126
v -0.338249 5.104240 0.831261
v 0.429833 4.875216 0.756949
v -0.250039 6.634799 -0.470907
v 0.091249 8.213579 -0.435528
v -0.453480 6.869316 -0.335371
v -0.274939 8.630711 -0.192231
v -0.276011 9.660888 -0.054434
vt 0.427216 0.552097
vt 0.428697 0.243039
vt 0.447475 0.483050
vt 0.441247 0.785457
vt 0.433309 0.589280
vt 0.461735 0.223516
vt 0.423264 0.233889
vt 0.447236 0.429508
vt 0.483067 0.287346
vt 0.486643 0.191555
vt 0.499607 0.160915
vt 0.489138 0.332062
vt 0.488076 0.764357
vt 0.491845 0.423867
vt 0.478771 0.753628
vt 0.485785 0.805699
vt 0.467867 0.270102
vt 0.467718 0.229398
vt 0.468408 0.824069
vt 0.453943 0.713168
vt 0.478763 0.424190
vt 0.452842 0.925734
vt 0.463938 0.956763
vt 0.445321 0.729641
vt 0.452888 0.853370
vt 0.502927 0.197855
vt 0.495579 0.232512
vt 0.484889 0.045016
vt 0.478854 0.071100
vt 0.496286 0.073459
vt 0.473283 0.073587
vt 0.497874 0.078170
vt 0.496247 0.080684
vt 0.473484 0.035716
vt 0.471717 0.045885
vt 0.467912 0.056586
vt 0.450003 0.062089
vt 0.427576 0.058191
vt 0.428817 0.061397
vt 0.498683 0.076074
vt 0.436852 0.037969
vt 0.440267 0.056883
vt 0.444129 0.060807
vt 0.468524 0.083916
vt 0.441662 0.013369
vt 0.458307 0.025252
vt 0.481330 0.016627
vt 0.484018 0.012385
vt 0.445277 0.010053
vt 0.497711 0.068570
vt 0.453211 0.044349
vt 0.452040 0.046457
vt 0.445270 0.046612
vt 0.430052 0.031780
vt 0.431785 0.028234
vt 0.429673 0.033796
vt 0.437059 0.036799
vt 0.447060 0.021751
vt 0.473647 0.034837
vt 0.452590 0.009065
vt 0.468989 0.012147
vt 0.488187 0.013272
vt 0.486981 0.014058
vt 0.475295 0.033082
vt 0.487905 0.034133
vt 0.476933 0.913729
vt 0.485107 0.797698
vt 0.469549 0.985116
vt 0.468776 0.980111
vt 0.480819 0.759476
vt 0.481850 0.653802
vt 0.482758 0.589566
vt 0.467906 0.980958
vt 0.468195 0.912670
vt 0.469809 0.888176
vt 0.465904 0.886195
vt 0.463435 0.966167
vt 0.450268 0.727820
vt 0.450293 0.642366
vt 0.450205 0.605654
vt 0.449331 0.497828
vn -0.7154 0.0542 0.6966
vn -0.9736 0.1016 -0.2042
vn -0.6244 0.0265 -0.7806
vn -0.9850 0.0070 0.1725
vn -0.7141 0.0556 0.6978
vn 0.6004 -0.1133 0.7916
vn 0.9484 0.0324 -0.3154
vn 0.2143 -0.1695 0.9620
vn -0.9604 0.0410 -0.2756
vn -0.0105 0.0221 -0.9997
vn 0.8714 0.0124 -0.4904
vn -0.4482 0.1195 -0.8859
vn 0.9570 0.0808 -0.2787
vn 0.8661 0.1151 -0.4865
vn -0.0370 0.0254 -0.9990
vn 0.6441 -0.0345 -0.7642
vn 0.3585 0.0313 -0.9330
vn -0.0268 0.1232 -0.9920
vn 0.9921 -0.0712 0.1035
vn 0.9631 0.0754 0.2585
vn 0.6399 -0.0680 0.7655
vn -0.5889 0.0158 -0.8081
vn -0.1538 -0.0181 0.9879
vn -0.9842 -0.0146 0.1762
vn 0.9932 -0.0680 0.0944
vn -0.7878 -0.0479 0.6141
vn -0.4259 0.0051 0.9048
vn -0.2676 0.0030 0.9635
vn 0.3829 -0.0159 0.9236
vn 0.5564 0.0217 -0.8306
vn -0.0603 -0.9139 -0.4015
vn 0.9291 -0.0122 -0.3695
vn -0.0347 -0.0306 -0.9989
vn -0.6240 0.0302 -0.7809
vn -0.8057 -0.0421 -0.5908
vn -0.9026 -0.3483 0.2530
vn -0.9935 -0.0548 -0.0998
vn -0.2052 -0.3591 0.9104
vn -0.6416 -0.7375 0.2106
vn -0.5447 -0.5009 -0.6726
vn 0.0658 -0.9978 0.0053
vn 0.2861 -0.2327 -0.9295
vn 0.8079 -0.2659 -0.5259
vn 0.0223 -0.7866 0.6170
vn 0.4101 -0.7861 0.4625
vn 0.6260 -0.0607 0.7775
vn 0.9570 -0.2653 0.1178
vn 0.9734 0.1276 0.1904
vn 0.8891 0.1313 -0.4384
vn 0.9819 0.0275 -0.1871
vn 0.9466 0.0401 0.3198
vn 0.8718 0.1613 0.4626
vn 0.0236 0.1618 0.9865
vn -0.7905 0.2002 0.5789
vn 0.0993 0.0983 0.9902
vn 0.1066 -0.1358 0.9850
vn -0.9520 0.0097 0.3060
vn 0.1556 0.0440 0.9868
vn -0.9233 -0.1170 0.3657
vn -0.8815 0.2822 0.3785
vn -0.8917 0.0591 -0.4487
vn -0.9352 0.1218 -0.3324
vn 0.5650 0.1646 -0.8085
vn -0.4985 0.0391 -0.8660
usemtl Material.004
s off
f 4/1/1 3/2/1 5/3/1
f 4/1/2 6/4/2 1/5/2
f 11/6/3 15/7/3 10/8/3
f 3/2/4 4/1/4 15/7/4
f 5/3/5 6/4/5 4/1/5
f 72/9/6 7/10/6 14/11/6 73/12/6
f 61/13/7 8/14/7 9/15/7 62/16/7
f 71/17/8 2/18/8 7/10/8 72/9/8
f 4/1/9 1/5/9 15/7/9
f 78/19/10 9/15/10 10/8/10 77/20/10
f 12/21/11 9/15/11 8/14/11
f 81/22/12 55/23/12 78/19/12 77/20/12 79/24/12 80/25/12
f 8/14/13 16/26/13 13/27/13
f 8/14/14 13/27/14 12/21/14
f 10/8/15 9/15/15 12/21/15
f 35/28/16 30/29/16 13/27/16 32/30/16
f 29/31/17 12/21/17 13/27/17 30/29/17
f 11/6/18 10/8/18 12/21/18
f 19/32/19 14/11/19 20/33/19
f 14/11/20 16/26/20 8/14/20
f 22/34/21 14/11/21 7/10/21 23/35/21
f 1/5/22 10/8/22 15/7/22
f 24/36/23 2/18/23 26/37/23
f 3/2/24 15/7/24 18/38/24 17/39/24
f 14/11/25 19/32/25 21/40/25 16/26/25
f 3/2/26 17/39/26 28/41/26 27/42/26
f 3/2/27 27/42/27 25/43/27 5/3/27
f 2/18/28 5/3/28 25/43/28 26/37/28
f 7/10/29 2/18/29 24/36/29 23/35/29
f 11/6/30 12/21/30 29/31/30 31/44/30
f 49/45/31 48/46/31 46/47/31 47/48/31 50/49/31
f 13/27/32 16/26/32 21/40/32 33/50/32 32/30/32
f 31/44/33 38/51/33 36/52/33 11/6/33
f 11/6/34 36/52/34 37/53/34 15/7/34
f 39/54/35 15/7/35 37/53/35 42/55/35
f 18/38/36 40/56/36 41/57/36 28/41/36 17/39/36
f 18/38/37 15/7/37 39/54/37 40/56/37
f 23/35/38 24/36/38 26/37/38 25/43/38 27/42/38 28/41/38 41/57/38 44/58/38 43/59/38 22/34/38
f 39/54/39 42/55/39 49/45/39 50/49/39 45/60/39 44/58/39 41/57/39 40/56/39
f 42/55/40 37/53/40 36/52/40 38/51/40 48/46/40 49/45/40
f 53/61/41 45/60/41 50/49/41 47/48/41 34/62/41 52/63/41
f 38/51/42 31/44/42 29/31/42 30/29/42 35/28/42 46/47/42 48/46/42
f 35/28/43 32/30/43 33/50/43 34/62/43 47/48/43 46/47/43
f 43/59/44 44/58/44 45/60/44 53/61/44 54/64/44
f 52/63/45 51/65/45 54/64/45 53/61/45
f 14/11/46 22/34/46 43/59/46 54/64/46 51/65/46 20/33/46
f 33/50/47 21/40/47 19/32/47 20/33/47 51/65/47 52/63/47 34/62/47
f 63/66/48 60/67/48 61/13/48 62/16/48
f 57/68/49 63/66/49 62/16/49 9/15/49 56/69/49
f 8/14/50 61/13/50 14/11/50
f 73/12/51 14/11/51 61/13/51 60/67/51 65/70/51 69/71/51 76/72/51
f 65/70/52 60/67/52 63/66/52 57/68/52 58/73/52 64/74/52 67/75/52
f 64/74/53 68/76/53 67/75/53
f 59/77/54 6/4/54 66/78/54 68/76/54 64/74/54 58/73/54
f 65/70/55 67/75/55 68/76/55 66/78/55 70/79/55 69/71/55
f 70/79/56 75/80/56 76/72/56 69/71/56
f 5/3/57 74/81/57 75/80/57 70/79/57 66/78/57 6/4/57
f 75/80/58 74/81/58 71/17/58 72/9/58 73/12/58 76/72/58
f 2/18/59 71/17/59 74/81/59 5/3/59
f 57/68/60 56/69/60 55/23/60 81/22/60 6/4/60 59/77/60 58/73/60
f 6/4/61 81/22/61 80/25/61
f 1/5/62 6/4/62 80/25/62 79/24/62
f 9/15/63 78/19/63 55/23/63 56/69/63
f 10/8/64 1/5/64 79/24/64 77/20/64
