# Blender v2.91.0 OBJ File: 'cristals.blend'
# www.blender.org
mtllib crystal_22.mtl
o crystal_22
v 0.462712 -0.000000 0.176257
v 1.143947 -0.000000 0.569568
v 1.143947 -0.000000 1.356191
v 1.038211 11.402065 -1.662138
v 0.462712 -0.000000 1.749502
v -0.218524 -0.000000 1.356191
v -0.218524 -0.000000 0.569568
v 0.780538 11.402065 -1.513370
v 0.462712 11.037294 -1.219400
v -0.112788 11.309544 -1.634117
v -0.112788 11.402065 -1.728054
v 0.462712 11.194204 -2.595981
v -0.112788 11.049887 -2.220009
v -0.112788 11.402065 -1.928578
v 0.232239 11.383399 -2.520216
v 0.235479 11.402065 -2.510180
v -1.200902 -0.000000 0.469149
v -0.766935 -0.000000 0.719700
v -0.766935 -0.000000 1.220802
v -1.200902 -0.000000 1.471354
v -1.634870 -0.000000 1.220802
v -1.634870 -0.000000 0.719700
v -1.200902 8.725376 -1.200706
v -1.200902 8.843698 -2.238745
v -1.634870 8.749865 -1.458673
v -1.634870 8.726201 -1.952608
v -1.493770 8.863921 -1.411752
v -1.315697 9.000439 -1.507563
v -1.334027 8.952979 -2.194982
v -1.275974 9.000439 -2.164553
v -0.766935 8.776388 -1.967809
v -0.766935 8.815966 -1.478692
v -0.982580 8.975947 -1.402641
v -1.020778 9.000439 -1.436688
v -1.026354 8.945187 -2.168706
v -1.101387 9.000439 -2.147341
v -0.480601 -0.000000 1.419868
v -0.023399 -0.000000 1.683834
v -0.106905 7.806450 -0.640633
v -0.023399 -0.000000 2.211766
v -0.106905 7.806450 -0.209127
v -0.480601 -0.000000 2.475732
v -0.937804 -0.000000 2.211766
v -0.937804 -0.000000 1.683834
v -0.274223 7.806450 -0.112526
v -0.480600 7.569591 0.078361
v -0.854295 7.746372 -0.190932
v -0.854295 7.806450 -0.251929
v -0.248466 7.806450 -0.722363
v -0.480600 7.671479 -0.815509
v -0.854295 7.577767 -0.571375
v -0.854295 7.806450 -0.382137
v -0.630255 7.794331 -0.766311
v -0.628152 7.806450 -0.759795
v 0.874253 -0.000000 1.558661
v 1.181550 -0.000000 1.736079
v 1.181550 -0.000000 2.090915
v 0.874253 -0.000000 2.268334
v 0.566956 -0.000000 2.090915
v 0.566956 -0.000000 1.736079
v 1.043961 6.491117 0.219247
v 0.874253 6.296342 0.376217
v 1.065142 6.491117 -0.282235
v 0.874253 6.380127 -0.358830
v 0.566956 6.317246 0.192468
v 0.566956 6.251398 -0.142426
v 0.654475 6.400311 0.217841
v 0.770445 6.491117 0.153516
v 0.811854 6.431350 -0.338317
v 0.870715 6.491117 -0.301402
v 1.181550 6.465178 -0.207170
v 1.181550 6.398098 0.167981
v 1.105982 6.491117 0.183440
v 1.163651 6.491117 -0.225360
v 1.423057 -0.000000 0.111014
v 1.899825 -0.000000 0.386276
v 1.851766 7.365550 -2.307952
v 1.899825 -0.000000 0.936800
v 1.851766 7.365550 -1.812921
v 1.423057 -0.000000 1.212062
v 0.946290 -0.000000 0.936800
v 0.946290 -0.000000 0.386276
v 1.659817 7.365550 -1.702099
v 1.423057 7.144337 -1.483111
v 0.994349 7.309442 -1.792048
v 0.994349 7.365550 -1.862024
v 0.994349 7.365550 -2.011402
v 0.994349 7.104104 -2.210689
v 1.758872 7.365550 -2.361583
v 1.423057 6.999799 -2.419401
v 1.048036 7.365550 -2.101058
v 0.994349 7.231462 -2.147700
v -2.547724 -0.000000 1.620690
v -2.119671 -0.000000 1.464891
v -1.770718 -0.000000 1.757697
v -3.689470 4.606064 0.147673
v -1.849819 -0.000000 2.206301
v -2.277873 -0.000000 2.362100
v -2.626825 -0.000000 2.069294
v -3.724887 4.606064 0.348530
v -3.710561 4.471602 0.644954
v -4.181911 4.571959 0.764423
v -4.231238 4.606064 0.723032
v -4.489569 4.476244 0.506266
v -4.336536 4.606064 0.634677
v -4.028566 4.583218 -0.136863
v -4.004112 4.606064 -0.116343
v -4.406052 4.466009 0.061367
v -4.422190 4.606064 0.387135
v -4.492638 4.543427 0.334973
v -1.839349 -0.000000 0.525429
v -1.485863 -0.000000 0.556355
v -2.310435 6.491117 -1.211946
v -1.335902 -0.000000 0.877946
v -2.160475 6.491117 -0.890355
v -1.539428 -0.000000 1.168611
v -1.892914 -0.000000 1.137685
v -2.042875 -0.000000 0.816094
v -2.251601 6.491117 -0.760214
v -2.339071 6.296342 -0.546228
v -2.711164 6.441713 -0.617056
v -2.732362 6.491117 -0.662516
v -2.444341 6.491117 -1.223662
v -2.649715 6.380127 -1.212408
v -2.843378 6.303066 -0.900591
v -2.777613 6.491117 -0.759557
v -2.744152 6.481150 -1.123733
v -2.740320 6.491117 -1.119607
v -0.419690 -0.000000 0.334103
v -0.095547 -0.000000 0.478465
v -0.058496 -0.000000 0.831361
v -0.054111 2.809014 -1.459778
v -0.345588 -0.000000 1.039897
v -0.669731 -0.000000 0.895535
v -0.706782 -0.000000 0.542639
v -0.209299 2.809014 -1.347054
v -0.393280 2.573863 -1.137188
v -0.790165 2.749369 -1.364336
v -0.796488 2.809014 -1.424562
v -0.485941 2.675015 -2.019755
v -0.829603 2.581981 -1.739969
v -0.809986 2.809014 -1.553125
v -0.628604 2.796980 -1.955665
v -0.625851 2.809014 -1.949449
v -0.098702 2.691693 -1.785338
v -0.070903 2.809014 -1.619715
v -0.302478 2.777939 -1.967598
v -0.315534 2.809014 -1.951416
v 0.876318 -0.000000 2.218971
v 1.023249 -0.000000 2.473464
v 1.629926 4.332915 1.329703
v 0.876318 -0.000000 2.727956
v 1.509832 4.332915 1.537712
v 0.582455 -0.000000 2.727956
v 0.435524 -0.000000 2.473464
v 0.582455 -0.000000 2.218971
v 1.402290 4.332915 1.537712
v 1.249679 4.201072 1.572292
v 1.144485 4.299474 1.338474
v 1.161461 4.332915 1.309070
v 1.584433 4.332915 1.250906
v 1.498455 4.257786 1.141398
v 1.250368 4.205624 1.155079
v 1.197700 4.332915 1.246302
v 1.412621 4.326169 1.123463
v 1.411821 4.332915 1.127190
v 1.927250 -0.000000 1.227751
v 2.076326 -0.000000 1.637334
v 1.796155 -0.000000 1.971230
v 3.336705 6.491117 0.135273
v 1.366908 -0.000000 1.895541
v 1.217832 -0.000000 1.485959
v 1.498003 -0.000000 1.152064
v 3.144515 6.491117 0.101384
v 2.860882 6.296342 0.115092
v 2.746569 6.441713 -0.335919
v 2.786173 6.491117 -0.383118
v 2.870716 6.491117 -0.483872
v 2.983506 6.260916 -0.618290
v 2.957670 6.491117 -0.513960
v 2.947856 6.373055 -0.575804
v 3.568249 6.287764 -0.140671
v 3.461351 6.491117 -0.013274
v 3.390245 6.166790 -0.515778
v 3.098231 6.491117 -0.463156
v 3.384727 6.170444 -0.517947
v 1.040242 11.175174 -2.257677
v 1.038211 11.402065 -1.941504
v 0.692868 11.328028 -2.503629
v 0.639514 11.402065 -2.470348
vt 0.526620 0.984114
vt 0.526620 0.976165
vt 0.530307 0.952772
vt 0.532343 0.984114
vt 0.530307 0.004408
vt 0.534671 0.004408
vt 0.534671 0.004408
vt 0.530307 0.004408
vt 0.525943 0.004408
vt 0.525943 0.004408
vt 0.533994 0.984114
vt 0.528851 0.984114
vt 0.528830 0.982511
vt 0.526620 0.953854
vt 0.526620 0.984114
vt 0.531781 0.977753
vt 0.531439 0.984114
vt 0.533994 0.984114
vt 0.534007 0.964619
vt 0.530307 0.966254
vt 0.521048 0.775654
vt 0.522429 0.761908
vt 0.522429 0.758507
vt 0.520767 0.773011
vt 0.520287 0.777758
vt 0.520803 0.777758
vt 0.519649 0.004408
vt 0.522429 0.004408
vt 0.522429 0.004408
vt 0.519649 0.004408
vt 0.516869 0.004408
vt 0.516869 0.004408
vt 0.517773 0.766028
vt 0.518914 0.777758
vt 0.519168 0.777758
vt 0.518796 0.773680
vt 0.516869 0.754195
vt 0.516869 0.756228
vt 0.519649 0.764290
vt 0.519649 0.754124
vt 0.527192 0.004408
vt 0.526658 0.675166
vt 0.526658 0.675166
vt 0.527192 0.004408
vt 0.521870 0.675166
vt 0.521870 0.670004
vt 0.524263 0.654815
vt 0.525586 0.675166
vt 0.524263 0.004408
vt 0.524263 0.004408
vt 0.521335 0.004408
vt 0.521335 0.004408
vt 0.523318 0.675166
vt 0.523305 0.674125
vt 0.521870 0.655517
vt 0.521870 0.675166
vt 0.524263 0.663569
vt 0.525751 0.675166
vt 0.534912 0.559919
vt 0.534797 0.562148
vt 0.534428 0.562148
vt 0.534912 0.554156
vt 0.532278 0.562148
vt 0.531536 0.554346
vt 0.532943 0.545412
vt 0.534030 0.562148
vt 0.532943 0.004408
vt 0.534912 0.004408
vt 0.534912 0.004408
vt 0.532943 0.004408
vt 0.530975 0.004408
vt 0.530975 0.004408
vt 0.532920 0.562148
vt 0.532543 0.557013
vt 0.530975 0.541551
vt 0.530975 0.547208
vt 0.534166 0.562148
vt 0.532943 0.552611
vt 0.539513 0.004408
vt 0.539206 0.637283
vt 0.539206 0.637283
vt 0.539513 0.004408
vt 0.533713 0.637283
vt 0.533713 0.632462
vt 0.536459 0.618275
vt 0.537976 0.637283
vt 0.536459 0.004408
vt 0.536459 0.004408
vt 0.533405 0.004408
vt 0.533405 0.004408
vt 0.534057 0.637283
vt 0.533713 0.625761
vt 0.533713 0.637283
vt 0.533713 0.614818
vt 0.538610 0.637283
vt 0.536459 0.605856
vt 0.500236 0.400178
vt 0.500552 0.397247
vt 0.503571 0.388624
vt 0.503480 0.400178
vt 0.511021 0.004408
vt 0.513763 0.004408
vt 0.515999 0.004408
vt 0.515492 0.004408
vt 0.512750 0.004408
vt 0.510514 0.004408
vt 0.503707 0.400178
vt 0.499013 0.400178
vt 0.498561 0.394796
vt 0.498581 0.389023
vt 0.499561 0.400178
vt 0.501691 0.400178
vt 0.501534 0.398215
vt 0.499116 0.388144
vt 0.517824 0.004408
vt 0.512541 0.562148
vt 0.513502 0.562148
vt 0.518784 0.004408
vt 0.509838 0.562148
vt 0.509974 0.557903
vt 0.512358 0.545412
vt 0.512918 0.562148
vt 0.515559 0.004408
vt 0.517480 0.004408
vt 0.515216 0.004408
vt 0.514255 0.004408
vt 0.509787 0.562148
vt 0.509763 0.561292
vt 0.509127 0.545990
vt 0.509548 0.562148
vt 0.510368 0.552611
vt 0.511683 0.562148
vt 0.522240 0.245769
vt 0.522281 0.240644
vt 0.524823 0.225563
vt 0.526002 0.245769
vt 0.524654 0.004408
vt 0.526730 0.004408
vt 0.526968 0.004408
vt 0.525129 0.004408
vt 0.523052 0.004408
vt 0.522815 0.004408
vt 0.526996 0.245769
vt 0.523333 0.245769
vt 0.523316 0.244735
vt 0.522028 0.226261
vt 0.522153 0.245769
vt 0.525405 0.243098
vt 0.525321 0.245769
vt 0.526888 0.245769
vt 0.526710 0.235688
vt 0.524229 0.234255
vt 0.533898 0.004408
vt 0.537784 0.376708
vt 0.537015 0.376708
vt 0.532957 0.004408
vt 0.534783 0.376708
vt 0.534674 0.373834
vt 0.535348 0.365379
vt 0.536326 0.376708
vt 0.532957 0.004408
vt 0.531074 0.004408
vt 0.530133 0.004408
vt 0.531074 0.004408
vt 0.536387 0.376708
vt 0.536392 0.376128
vt 0.535353 0.365771
vt 0.535015 0.376708
vt 0.536942 0.370252
vt 0.537493 0.376708
vt 0.545192 0.562148
vt 0.544938 0.557903
vt 0.545670 0.545412
vt 0.547487 0.562148
vt 0.539689 0.004408
vt 0.540644 0.004408
vt 0.538849 0.004408
vt 0.536099 0.004408
vt 0.535144 0.004408
vt 0.536939 0.004408
vt 0.548718 0.562148
vt 0.546290 0.562148
vt 0.546227 0.552004
vt 0.545733 0.562148
vt 0.549517 0.562148
vt 0.547191 0.562148
vt 0.546456 0.542369
vt 0.549026 0.534595
vt 0.549061 0.534281
vt 0.550202 0.544675
vn -0.1663 0.7025 0.6919
vn 0.0000 -1.0000 0.0000
vn -0.4916 0.2266 0.8409
vn 0.4930 0.2266 0.8400
vn -0.7896 0.3912 -0.4728
vn 0.6096 0.6459 -0.4596
vn 0.0871 0.4600 -0.8836
vn 0.0000 1.0000 0.0000
vn -1.0000 0.0089 -0.0017
vn -0.4929 -0.2093 -0.8445
vn 0.5795 0.8123 -0.0657
vn -0.6206 0.7832 -0.0375
vn -0.4830 -0.2564 -0.8372
vn -0.4832 0.2563 0.8371
vn -1.0000 0.0000 0.0000
vn 0.4831 0.2563 0.8372
vn 1.0000 0.0000 0.0000
vn 0.4831 -0.2563 -0.8372
vn 0.9999 0.0107 0.0000
vn -0.4803 0.2647 0.8362
vn 0.4797 0.2647 0.8365
vn 0.4836 -0.2450 -0.8403
vn -0.9999 0.0102 -0.0019
vn -0.4856 -0.2446 -0.8393
vn 0.7803 0.6156 0.1101
vn -0.1663 0.7025 0.6920
vn -0.6586 0.7383 -0.1452
vn -0.4842 -0.2518 -0.8379
vn -0.4839 0.2519 0.8381
vn 0.4841 0.2519 0.8380
vn 0.4837 -0.2519 -0.8382
vn 1.0000 0.0065 0.0000
vn -0.1487 0.7715 0.6186
vn -0.4747 0.3106 0.8235
vn 0.4745 0.3106 0.8236
vn -0.7605 0.4629 -0.4554
vn -0.3121 0.4212 -0.8516
vn 0.4745 -0.2995 -0.8277
vn -1.0000 0.0061 -0.0013
vn -0.4764 -0.2990 -0.8268
vn 0.2845 0.8782 0.3846
vn 0.3079 0.4254 0.8510
vn 0.8916 0.4255 0.1549
vn -0.7413 0.6202 0.2565
vn -0.4477 0.8132 -0.3718
vn -0.6428 0.0000 0.7660
vn -0.8910 -0.4258 -0.1573
vn 0.6428 0.0000 -0.7660
vn -0.3113 -0.4263 -0.8494
vn 0.9063 -0.0000 -0.4226
vn 0.1417 0.7025 0.6974
vn -0.0847 0.2518 0.9641
vn 0.7931 0.2518 0.5547
vn -0.9154 0.3912 -0.0948
vn 0.0840 -0.2519 -0.9641
vn -0.2945 0.4600 -0.8377
vn -0.9063 0.0000 0.4226
vn -0.7929 -0.2519 -0.5549
vn -0.0931 0.7025 0.7055
vn -0.2361 0.6177 0.7501
vn 0.3840 0.5870 0.7127
vn -0.8346 0.3912 -0.3878
vn 0.6756 0.5433 -0.4983
vn -0.0056 0.4600 -0.8879
vn -0.9947 0.0355 0.0963
vn -0.4338 -0.5976 -0.6742
vn 0.9908 -0.0866 -0.1043
vn 0.3891 -0.5962 -0.7023
vn 0.8660 0.0107 0.5000
vn -0.4900 0.7025 0.5161
vn -0.8338 0.2654 0.4840
vn -0.0030 0.2654 0.9641
vn -0.4474 0.3912 -0.8042
vn 0.8389 -0.2456 -0.4858
vn 0.5173 0.4600 -0.7217
vn -0.8650 0.0103 -0.5016
vn -0.0009 -0.2453 -0.9695
vn -0.5115 0.7715 0.3783
vn -0.8952 0.3045 0.3254
vn -0.1649 0.3045 0.9381
vn -0.2899 0.4629 -0.8377
vn -0.7660 0.0000 -0.6428
vn 0.3083 0.4212 -0.8530
vn 0.1657 -0.3045 -0.9380
vn 0.6069 0.6259 -0.4898
vn 0.7660 0.0000 0.6428
vn 0.8949 -0.3045 -0.3261
vn 1.0000 0.0093 -0.0001
vn 0.4889 -0.2099 -0.8467
usemtl Material.004
s off
f 11/1/1 10/2/1 9/3/1 8/4/1
f 1/5/2 2/6/2 3/7/2 5/8/2 6/9/2 7/10/2
f 5/8/3 9/3/3 10/2/3 6/9/3
f 3/7/4 4/11/4 8/4/4 9/3/4 5/8/4
f 16/12/5 15/13/5 13/14/5 14/15/5
f 189/16/6 190/17/6 188/18/6 187/19/6
f 189/16/7 12/20/7 15/13/7 16/12/7 190/17/7
f 188/18/8 190/17/8 16/12/8 14/15/8 11/1/8 8/4/8 4/11/8
f 6/9/9 10/2/9 11/1/9 14/15/9 13/14/9 7/10/9
f 7/10/10 13/14/10 15/13/10 12/20/10 1/5/10
f 33/21/11 32/22/11 31/23/11 35/24/11 36/25/11 34/26/11
f 17/27/2 18/28/2 19/29/2 20/30/2 21/31/2 22/32/2
f 27/33/12 28/34/12 30/35/12 29/36/12 26/37/12 25/38/12
f 35/24/7 24/39/7 29/36/7 30/35/7 36/25/7
f 34/26/8 36/25/8 30/35/8 28/34/8
f 22/32/13 26/37/13 29/36/13 24/39/13 17/27/13
f 20/30/14 23/40/14 27/33/14 25/38/14 21/31/14
f 21/31/15 25/38/15 26/37/15 22/32/15
f 28/34/1 27/33/1 23/40/1 33/21/1 34/26/1
f 19/29/16 32/22/16 33/21/16 23/40/16 20/30/16
f 18/28/17 31/23/17 32/22/17 19/29/17
f 17/27/18 24/39/18 35/24/18 31/23/18 18/28/18
f 38/41/19 39/42/19 41/43/19 40/44/19
f 48/45/1 47/46/1 46/47/1 45/48/1
f 37/49/2 38/41/2 40/44/2 42/50/2 43/51/2 44/52/2
f 42/50/20 46/47/20 47/46/20 43/51/20
f 40/44/21 41/43/21 45/48/21 46/47/21 42/50/21
f 54/53/5 53/54/5 51/55/5 52/56/5
f 37/49/22 50/57/22 49/58/22 39/42/22 38/41/22
f 49/58/7 50/57/7 53/54/7 54/53/7
f 39/42/8 49/58/8 54/53/8 52/56/8 48/45/8 45/48/8 41/43/8
f 43/51/23 47/46/23 48/45/23 52/56/23 51/55/23 44/52/23
f 44/52/24 51/55/24 53/54/24 50/57/24 37/49/24
f 71/59/25 74/60/25 73/61/25 72/62/25
f 68/63/26 67/64/26 62/65/26 61/66/26
f 55/67/2 56/68/2 57/69/2 58/70/2 59/71/2 60/72/2
f 67/64/27 68/63/27 70/73/27 69/74/27 66/75/27 65/76/27
f 63/77/7 64/78/7 69/74/7 70/73/7
f 74/60/8 63/77/8 70/73/8 68/63/8 61/66/8 73/61/8
f 60/72/28 66/75/28 69/74/28 64/78/28 55/67/28
f 58/70/29 62/65/29 67/64/29 65/76/29 59/71/29
f 59/71/15 65/76/15 66/75/15 60/72/15
f 57/69/30 72/62/30 73/61/30 61/66/30 62/65/30 58/70/30
f 56/68/17 71/59/17 72/62/17 57/69/17
f 55/67/31 64/78/31 63/77/31 74/60/31 71/59/31 56/68/31
f 76/79/32 77/80/32 79/81/32 78/82/32
f 86/83/33 85/84/33 84/85/33 83/86/33
f 75/87/2 76/79/2 78/82/2 80/88/2 81/89/2 82/90/2
f 80/88/34 84/85/34 85/84/34 81/89/34
f 78/82/35 79/81/35 83/86/35 84/85/35 80/88/35
f 91/91/36 92/92/36 87/93/36
f 88/94/37 92/92/37 91/91/37 89/95/37 90/96/37
f 75/87/38 90/96/38 89/95/38 77/80/38 76/79/38
f 77/80/8 89/95/8 91/91/8 87/93/8 86/83/8 83/86/8 79/81/8
f 81/89/39 85/84/39 86/83/39 87/93/39 92/92/39 88/94/39 82/90/39
f 82/90/40 88/94/40 90/96/40 75/87/40
f 103/97/41 102/98/41 101/99/41 100/100/41
f 93/101/2 94/102/2 95/103/2 97/104/2 98/105/2 99/106/2
f 97/104/42 101/99/42 102/98/42 98/105/42
f 95/103/43 96/107/43 100/100/43 101/99/43 97/104/43
f 109/108/44 110/109/44 104/110/44 105/111/44
f 107/112/45 106/113/45 108/114/45 110/109/45 109/108/45
f 107/112/8 109/108/8 105/111/8 103/97/8 100/100/8 96/107/8
f 98/105/46 102/98/46 103/97/46 105/111/46 104/110/46 99/106/46
f 99/106/47 104/110/47 110/109/47 108/114/47 93/101/47
f 94/102/48 106/113/48 107/112/48 96/107/48 95/103/48
f 93/101/49 108/114/49 106/113/49 94/102/49
f 112/115/50 113/116/50 115/117/50 114/118/50
f 122/119/51 121/120/51 120/121/51 119/122/51
f 111/123/2 112/115/2 114/118/2 116/124/2 117/125/2 118/126/2
f 116/124/52 120/121/52 121/120/52 117/125/52
f 114/118/53 115/117/53 119/122/53 120/121/53 116/124/53
f 128/127/54 127/128/54 125/129/54 126/130/54
f 111/123/55 124/131/55 123/132/55 113/116/55 112/115/55
f 123/132/56 124/131/56 127/128/56 128/127/56
f 113/116/8 123/132/8 128/127/8 126/130/8 122/119/8 119/122/8 115/117/8
f 117/125/57 121/120/57 122/119/57 126/130/57 125/129/57 118/126/57
f 118/126/58 125/129/58 127/128/58 124/131/58 111/123/58
f 139/133/59 138/134/59 137/135/59 136/136/59
f 129/137/2 130/138/2 131/139/2 133/140/2 134/141/2 135/142/2
f 133/140/60 137/135/60 138/134/60 134/141/60
f 131/139/61 132/143/61 136/136/61 137/135/61 133/140/61
f 144/144/62 143/145/62 141/146/62 142/147/62
f 147/148/63 148/149/63 146/150/63 145/151/63
f 147/148/64 140/152/64 143/145/64 144/144/64 148/149/64
f 146/150/8 148/149/8 144/144/8 142/147/8 139/133/8 136/136/8 132/143/8
f 134/141/65 138/134/65 139/133/65 142/147/65 141/146/65 135/142/65
f 135/142/66 141/146/66 143/145/66 140/152/66 129/137/66
f 130/138/67 145/151/67 146/150/67 132/143/67 131/139/67
f 129/137/68 140/152/68 147/148/68 145/151/68 130/138/68
f 150/153/69 151/154/69 153/155/69 152/156/69
f 160/157/70 159/158/70 158/159/70 157/160/70
f 149/161/2 150/153/2 152/156/2 154/162/2 155/163/2 156/164/2
f 154/162/71 158/159/71 159/158/71 155/163/71
f 152/156/72 153/155/72 157/160/72 158/159/72 154/162/72
f 166/165/73 165/166/73 163/167/73 164/168/73
f 149/161/74 162/169/74 161/170/74 151/154/74 150/153/74
f 161/170/75 162/169/75 165/166/75 166/165/75
f 151/154/8 161/170/8 166/165/8 164/168/8 160/157/8 157/160/8 153/155/8
f 155/163/76 159/158/76 160/157/76 164/168/76 163/167/76 156/164/76
f 156/164/77 163/167/77 165/166/77 162/169/77 149/161/77
f 177/171/78 176/172/78 175/173/78 174/174/78
f 167/175/2 168/176/2 169/177/2 171/178/2 172/179/2 173/180/2
f 171/178/79 175/173/79 176/172/79 172/179/79
f 169/177/80 170/181/80 174/174/80 175/173/80 171/178/80
f 180/182/81 181/183/81 178/184/81
f 183/185/8 185/186/8 180/182/8 178/184/8 177/171/8 174/174/8 170/181/8
f 172/179/82 176/172/82 177/171/82 178/184/82 181/183/82 179/187/82 173/180/82
f 179/187/83 181/183/83 180/182/83 185/186/83 186/188/83
f 173/180/84 179/187/84 186/188/84 184/189/84 167/175/84
f 183/185/85 182/190/85 184/189/85 186/188/85 185/186/85
f 168/176/86 182/190/86 183/185/86 170/181/86 169/177/86
f 167/175/87 184/189/87 182/190/87 168/176/87
f 2/6/88 187/19/88 188/18/88 4/11/88 3/7/88
f 1/5/89 12/20/89 189/16/89 187/19/89 2/6/89
