# Blender v2.91.0 OBJ File: 'cristals.blend'
# www.blender.org
mtllib crystal_26.mtl
o crystal_26
v -0.769601 0.000000 2.641016
v -0.601038 2.431083 2.472452
v -0.769601 0.000000 1.442322
v -0.601038 2.431083 1.610885
v 0.429093 0.000000 2.641016
v 0.260529 2.431083 2.472452
v 0.429093 0.000000 1.442322
v 0.260529 2.431083 1.610885
v -0.170254 3.012466 2.041669
v -1.472929 0.000000 1.430121
v -0.963675 5.643400 0.920868
v -1.472929 0.000000 -1.588386
v -0.963675 5.643400 -1.079132
v 1.545578 0.000000 1.430121
v 1.036325 5.643400 0.920868
v 1.545578 0.000000 -1.588386
v 1.036325 5.643400 -1.079132
v 0.036324 6.992996 -0.079132
v 1.407373 0.000000 0.732862
v 2.217858 3.036209 0.458878
v 1.407373 0.000000 -0.891127
v 2.217858 3.036209 -0.617143
v 3.031361 0.000000 0.732862
v 3.293880 3.036209 0.458878
v 3.031361 0.000000 -0.891127
v 3.293880 3.036209 -0.617143
v 2.850285 3.762305 -0.079132
v -1.377288 0.000000 0.490394
v -2.075532 2.977731 0.955674
v -0.965064 0.000000 2.028834
v -1.802402 2.977731 1.975012
v -2.915728 0.000000 0.902618
v -3.094871 2.977731 1.228805
v -2.503504 0.000000 2.441058
v -2.821740 2.977731 2.248143
v -2.538078 3.689844 1.625874
v -0.823971 0.000000 -2.149085
v -1.678041 3.036209 -2.199283
v -1.433418 0.000000 -0.643789
v -2.081847 3.036209 -1.201905
v -2.329267 0.000000 -2.758531
v -2.675418 3.036209 -2.603089
v -2.938713 0.000000 -1.253235
v -3.079225 3.036209 -1.605711
v -2.466148 3.762305 -1.937929
v 1.119663 0.000000 -0.971233
v 1.192844 2.853395 -1.044414
v 1.119663 0.000000 -2.128827
v 1.192844 2.853395 -2.055646
v 2.277257 0.000000 -0.971233
v 2.204076 2.853395 -1.044414
v 2.277257 0.000000 -2.128827
v 2.204076 2.853395 -2.055646
v 1.698460 3.535773 -1.550030
v 1.287722 0.000000 0.784121
v 1.125190 1.831156 1.273838
v 2.069542 0.000000 1.374083
v 1.643208 1.831156 1.664735
v 0.697760 0.000000 1.565942
v 0.734293 1.831156 1.791856
v 1.479580 0.000000 2.155904
v 1.252311 1.831156 2.182753
v 1.154451 2.269070 1.773749
vt 0.476706 0.020129
vt 0.478861 0.357483
vt 0.478861 0.357480
vt 0.476706 0.020129
vt 0.489871 0.357480
vt 0.492026 0.020129
vt 0.489871 0.357483
vt 0.492026 0.020129
vt 0.484366 0.438158
vt 0.467718 0.020129
vt 0.474226 0.803240
vt 0.474226 0.803240
vt 0.467718 0.020129
vt 0.499786 0.803240
vt 0.506294 0.020129
vt 0.499786 0.803240
vt 0.506294 0.020129
vt 0.487006 0.990516
vt 0.504528 0.020129
vt 0.514886 0.441451
vt 0.514886 0.441451
vt 0.504528 0.020129
vt 0.528637 0.441451
vt 0.525282 0.020129
vt 0.528637 0.441451
vt 0.525282 0.020129
vt 0.522968 0.542208
vt 0.468940 0.020129
vt 0.460017 0.433338
vt 0.463508 0.433338
vt 0.474209 0.020129
vt 0.450481 0.433338
vt 0.454547 0.020129
vt 0.446990 0.433338
vt 0.449279 0.020129
vt 0.454106 0.532154
vt 0.476012 0.020129
vt 0.465097 0.441451
vt 0.459936 0.441451
vt 0.468223 0.020129
vt 0.447190 0.441451
vt 0.448986 0.020129
vt 0.452351 0.441451
vt 0.456774 0.020129
vt 0.455025 0.542208
vt 0.500851 0.020129
vt 0.501786 0.416083
vt 0.501786 0.416083
vt 0.500851 0.020129
vt 0.514710 0.416083
vt 0.515645 0.020129
vt 0.514710 0.416083
vt 0.515645 0.020129
vt 0.508248 0.510773
vt 0.502999 0.020129
vt 0.500921 0.274232
vt 0.507542 0.274232
vt 0.512990 0.020129
vt 0.502546 0.274232
vt 0.505451 0.020129
vt 0.495926 0.274232
vt 0.495459 0.020129
vt 0.501296 0.334999
vn -0.9976 0.0692 0.0000
vn 0.0000 0.0692 -0.9976
vn 0.9976 0.0692 0.0000
vn 0.0000 0.0692 0.9976
vn 0.0000 -1.0000 0.0000
vn 0.8035 0.5953 0.0000
vn -0.8035 0.5953 0.0000
vn 0.0000 0.5953 0.8035
vn 0.0000 0.5953 -0.8035
vn -0.9960 0.0899 0.0000
vn 0.0000 0.0899 -0.9960
vn 0.9960 0.0899 0.0000
vn 0.0000 0.0899 0.9960
vn -0.9662 0.2579 0.0000
vn 0.9963 -0.0861 0.0000
vn 0.8534 0.5213 0.0000
vn -0.7541 0.6568 0.0000
vn 0.9332 0.2579 -0.2501
vn 0.2578 0.0899 0.9620
vn -0.9623 -0.0861 0.2579
vn -0.2578 0.0899 -0.9620
vn -0.8243 0.5213 0.2209
vn 0.7284 0.6568 -0.1952
vn -0.2080 0.5953 -0.7761
vn 0.2080 0.5953 0.7761
vn 0.8956 0.2579 0.3626
vn -0.3738 0.0899 0.9232
vn -0.9235 -0.0861 -0.3739
vn 0.3738 0.0899 -0.9232
vn -0.7910 0.5213 -0.3202
vn 0.6990 0.6568 0.2830
vn 0.3015 0.5953 -0.7447
vn -0.3015 0.5953 0.7447
vn -0.9997 0.0256 0.0000
vn 0.0000 0.0256 -0.9997
vn 0.9997 0.0256 0.0000
vn 0.0000 0.0256 0.9997
vn 0.5820 0.2579 -0.7712
vn 0.7950 0.0899 0.5999
vn -0.6001 -0.0861 0.7953
vn -0.7950 0.0899 -0.5999
vn -0.5140 0.5213 0.6812
vn 0.4542 0.6568 -0.6019
vn -0.6414 0.5953 -0.4840
vn 0.6414 0.5953 0.4840
usemtl Material.004
s off
f 1/1/1 2/2/1 4/3/1 3/4/1
f 3/4/2 4/3/2 8/5/2 7/6/2
f 7/6/3 8/5/3 6/7/3 5/8/3
f 5/8/4 6/7/4 2/2/4 1/1/4
f 3/4/5 7/6/5 5/8/5 1/1/5
f 6/7/6 8/5/6 9/9/6
f 4/3/7 2/2/7 9/9/7
f 2/2/8 6/7/8 9/9/8
f 8/5/9 4/3/9 9/9/9
f 10/10/10 11/11/10 13/12/10 12/13/10
f 12/13/11 13/12/11 17/14/11 16/15/11
f 16/15/12 17/14/12 15/16/12 14/17/12
f 14/17/13 15/16/13 11/11/13 10/10/13
f 12/13/5 16/15/5 14/17/5 10/10/5
f 15/16/6 17/14/6 18/18/6
f 13/12/7 11/11/7 18/18/7
f 11/11/8 15/16/8 18/18/8
f 17/14/9 13/12/9 18/18/9
f 19/19/14 20/20/14 22/21/14 21/22/14
f 21/22/11 22/21/11 26/23/11 25/24/11
f 25/24/15 26/23/15 24/25/15 23/26/15
f 23/26/13 24/25/13 20/20/13 19/19/13
f 21/22/5 25/24/5 23/26/5 19/19/5
f 24/25/16 26/23/16 27/27/16
f 22/21/17 20/20/17 27/27/17
f 20/20/8 24/25/8 27/27/8
f 26/23/9 22/21/9 27/27/9
f 28/28/18 29/29/18 31/30/18 30/31/18
f 30/31/19 31/30/19 35/32/19 34/33/19
f 34/33/20 35/32/20 33/34/20 32/35/20
f 32/35/21 33/34/21 29/29/21 28/28/21
f 30/31/5 34/33/5 32/35/5 28/28/5
f 33/34/22 35/32/22 36/36/22
f 31/30/23 29/29/23 36/36/23
f 29/29/24 33/34/24 36/36/24
f 35/32/25 31/30/25 36/36/25
f 37/37/26 38/38/26 40/39/26 39/40/26
f 39/40/27 40/39/27 44/41/27 43/42/27
f 43/42/28 44/41/28 42/43/28 41/44/28
f 41/44/29 42/43/29 38/38/29 37/37/29
f 39/40/5 43/42/5 41/44/5 37/37/5
f 42/43/30 44/41/30 45/45/30
f 40/39/31 38/38/31 45/45/31
f 38/38/32 42/43/32 45/45/32
f 44/41/33 40/39/33 45/45/33
f 46/46/34 47/47/34 49/48/34 48/49/34
f 48/49/35 49/48/35 53/50/35 52/51/35
f 52/51/36 53/50/36 51/52/36 50/53/36
f 50/53/37 51/52/37 47/47/37 46/46/37
f 48/49/5 52/51/5 50/53/5 46/46/5
f 51/52/6 53/50/6 54/54/6
f 49/48/7 47/47/7 54/54/7
f 47/47/8 51/52/8 54/54/8
f 53/50/9 49/48/9 54/54/9
f 55/55/38 56/56/38 58/57/38 57/58/38
f 57/58/39 58/57/39 62/59/39 61/60/39
f 61/60/40 62/59/40 60/61/40 59/62/40
f 59/62/41 60/61/41 56/56/41 55/55/41
f 57/58/5 61/60/5 59/62/5 55/55/5
f 60/61/42 62/59/42 63/63/42
f 58/57/43 56/56/43 63/63/43
f 56/56/44 60/61/44 63/63/44
f 62/59/45 58/57/45 63/63/45
