# Blender v2.91.0 OBJ File: 'cristals.blend'
# www.blender.org
mtllib crystal_6.mtl
o crystal_6
v -0.562680 1.094794 -2.707389
v -0.887016 1.357505 -2.573213
v -1.138102 1.665231 -2.416045
v -1.490783 3.699960 1.173180
v -0.487785 3.842613 1.709613
v -1.261125 1.416462 -2.425021
v -0.622447 0.902204 -2.708957
v -1.098290 1.325004 -2.508025
v -2.594034 -0.302291 -1.085205
v -2.316513 -2.455094 -0.692217
v 2.357449 2.276593 -0.903331
v -0.185414 4.349769 -0.108726
v -0.001421 4.310813 -0.669107
v -0.013489 4.069271 1.624615
v 1.202806 3.708509 -1.125155
v 2.175119 3.097420 -0.339656
v 2.369526 2.386242 -0.785731
v 2.314189 2.727317 -0.516790
v 2.235321 3.036613 -0.078626
v 0.039065 3.355611 2.114103
v -1.490995 3.698175 1.175522
v -1.489534 3.698987 1.176236
v -2.620123 0.609228 1.022779
v -1.023267 4.292387 0.030199
v -1.377548 2.198276 -2.143800
v -1.513485 3.753829 1.043087
v -2.668607 0.924591 0.770404
v -2.624313 -0.042301 -1.052134
v -1.445528 2.033755 -2.156465
v -2.550542 0.038427 -1.205102
v -1.752603 1.365012 -2.086841
v -0.788791 4.208446 -1.036434
v -2.578815 1.234701 0.945319
v -1.614691 3.568042 1.125039
v -0.364099 1.025432 -2.742815
v -0.404856 0.566247 -2.762668
v 1.431587 2.619478 -1.908261
v 1.957302 2.110870 -1.666031
v 2.159741 2.079115 -1.404720
v 2.385964 2.231128 -0.848920
v 2.068884 1.842402 -1.614964
v 2.444327 -1.445317 -0.430943
v 2.041415 1.104252 -1.629267
v 0.389828 3.839525 1.730996
v 2.133907 3.016531 0.614453
v 1.625697 -3.402336 -1.142947
v 1.721132 -3.052799 -1.313267
v 0.266165 -2.226659 -2.458101
v 1.274806 -2.261634 -1.991332
v 1.740582 -2.556641 -1.606277
v 1.546615 -3.536178 -1.096518
v 0.915827 -3.874333 -1.169578
v 2.185519 -2.412377 1.078011
v 2.034709 -2.340644 -1.391501
v 1.619051 -3.510542 -0.988370
v 1.659328 -3.382435 -1.105165
v 1.907189 -2.684139 -1.349108
v -1.601841 -1.990878 2.025097
v 2.110790 -2.416877 1.218595
v 0.033765 -4.594365 0.730035
v 1.659431 -3.681662 0.473683
v 2.098046 -2.636865 1.048396
v 2.143168 -2.182985 1.301540
v 2.019816 -0.938214 1.917808
v 1.061599 -0.688547 2.593400
v 0.473456 -2.533542 2.135865
v 0.299255 1.172391 2.620695
v 0.967983 -0.585104 2.635141
v -1.262104 -1.825803 2.203151
v 0.353529 -1.951741 2.460730
v 0.945737 -0.782682 2.620822
v -2.274324 -2.708320 -0.408513
v -2.564489 0.184991 1.123719
v -2.173336 -2.815660 -0.690223
v 0.041256 -3.686201 -1.670228
v -0.101574 -3.417491 -1.896656
v -2.013188 -3.311560 -0.171171
v -0.077042 -4.630641 0.409299
v -0.029711 -4.521760 0.837366
v -1.491582 -3.375988 1.224319
v -1.903305 -3.501577 -0.019741
v -0.560390 -4.445445 -0.047212
vt 0.477465 0.011201
vt 0.476525 0.019125
vt 0.454888 0.144157
vt 0.448794 0.130453
vt 0.468670 0.027452
vt 0.475825 0.007242
vt 0.453065 0.901928
vt 0.454564 0.922203
vt 0.461819 0.980973
vt 0.465290 0.971814
vt 0.456576 0.752452
vt 0.455569 0.734498
vt 0.451024 0.661522
vt 0.439214 0.516758
vt 0.438122 0.507947
vt 0.437466 0.613461
vt 0.438795 0.647301
vt 0.513144 0.354843
vt 0.507081 0.257140
vt 0.507180 0.633066
vt 0.507587 0.713617
vt 0.508932 0.739449
vt 0.511858 0.760999
vt 0.512280 0.756038
vt 0.467752 0.611018
vt 0.460709 0.657156
vt 0.463836 0.660703
vt 0.468636 0.632034
vt 0.438570 0.479576
vt 0.458299 0.667135
vt 0.460120 0.694283
vt 0.471576 0.624465
vt 0.470973 0.574357
vt 0.512037 0.772964
vt 0.469745 0.931892
vt 0.477543 0.878748
vt 0.476765 0.956626
vt 0.510050 0.843937
vt 0.511218 0.810185
vt 0.509159 0.850572
vt 0.482735 0.931555
vt 0.508549 0.841745
vt 0.494768 0.917258
vt 0.476944 0.982984
vt 0.474220 0.987235
vt 0.438184 0.579046
vt 0.454899 0.916324
vt 0.454896 0.916130
vt 0.454918 0.916218
vt 0.498154 0.798416
vt 0.505935 0.742913
vt 0.509313 0.249313
vt 0.508686 0.274344
vt 0.508207 0.248820
vt 0.508018 0.224814
vt 0.490963 0.427154
vt 0.491292 0.448714
vt 0.481394 0.640501
vt 0.458284 0.313323
vt 0.482198 0.299580
vt 0.483973 0.236089
vt 0.506861 0.410181
vt 0.492678 0.437426
vt 0.477575 0.110305
vt 0.490520 0.089775
vt 0.495834 0.265761
vt 0.480904 0.269579
vt 0.475462 0.139628
vt 0.444797 0.205303
vt 0.442678 0.244649
vt 0.501525 0.143453
vt 0.501027 0.141282
vt 0.502440 0.179425
vt 0.505194 0.219656
vt 0.499857 0.126677
vt 0.500929 0.129473
vt 0.502728 0.233569
vt 0.501527 0.110800
vt 0.453256 0.295307
vt 0.439007 0.532752
vt 0.443302 0.217016
vt 0.447167 0.151189
vn -0.5508 -0.7923 0.2624
vn -0.8938 0.3868 -0.2269
vn 0.9284 -0.0268 -0.3706
vn -0.3077 0.1032 -0.9459
vn -0.8901 -0.0460 -0.4535
vn -0.3313 0.2099 -0.9199
vn -0.1562 0.0565 -0.9861
vn 0.9275 0.2211 -0.3014
vn -0.1181 0.5557 0.8229
vn 0.9099 0.3980 -0.1171
vn 0.4738 0.8755 0.0947
vn -0.9462 0.1006 0.3074
vn -0.5919 0.6660 0.4540
vn -0.7416 0.5641 0.3630
vn -0.5704 0.1784 -0.8018
vn -0.4355 0.2466 -0.8658
vn 0.0352 0.5213 -0.8527
vn -0.0839 0.9918 -0.0965
vn -0.2209 0.9338 0.2815
vn 0.7845 0.2154 -0.5816
vn 0.8390 -0.3263 0.4355
vn 0.7127 0.5015 -0.4904
vn -0.1613 -0.0533 0.9855
vn 0.1081 0.5677 0.8161
vn 0.4765 -0.3517 0.8058
vn 0.3077 -0.1032 0.9459
vn 0.0396 -0.9106 -0.4113
vn 0.4200 0.0020 -0.9075
vn -0.5376 -0.2180 -0.8145
vn 0.7740 -0.4353 -0.4597
vn 0.7416 -0.5641 -0.3630
vn 0.6849 -0.3705 -0.6274
vn 0.6151 -0.0555 -0.7865
vn 0.9326 -0.3545 -0.0673
vn 0.5965 0.2357 0.7672
vn -0.1756 -0.5069 0.8439
vn -0.4960 0.1399 0.8570
vn -0.9919 -0.1206 0.0399
vn -0.8949 -0.4157 -0.1624
vn 0.3531 -0.4860 -0.7995
vn -0.5009 -0.6978 -0.5121
vn -0.9069 -0.2640 0.3283
vn 0.4333 -0.5683 0.6995
vn 0.4798 -0.8706 -0.1092
vn 0.9858 0.0274 0.1659
usemtl Material.004
s off
f 60/1/1 79/2/1 80/3/1 81/4/1 82/5/1 78/6/1
f 34/7/2 26/8/2 24/9/2 32/10/2 25/11/2 29/12/2 31/13/2 30/14/2 28/15/2 27/16/2 33/17/2
f 42/18/3 54/19/3 43/20/3 41/21/3 39/22/3 11/23/3 40/24/3
f 7/25/4 8/26/4 2/27/4 1/28/4
f 30/14/5 9/29/5 28/15/5
f 2/27/6 8/26/6 6/30/6 3/31/6
f 35/32/7 36/33/7 7/25/7 1/28/7
f 40/24/8 11/23/8 17/34/8
f 5/35/9 20/36/9 14/37/9
f 19/38/10 18/39/10 16/40/10
f 44/41/11 45/42/11 19/38/11 16/40/11 15/43/11 13/44/11 12/45/11 14/37/11
f 27/16/12 23/46/12 33/17/12
f 4/47/13 21/48/13 22/49/13
f 26/8/14 34/7/14 21/48/14 4/47/14
f 6/30/15 31/13/15 29/12/15
f 6/30/16 29/12/16 25/11/16 3/31/16
f 37/50/17 35/32/17 1/28/17 2/27/17 3/31/17 25/11/17 32/10/17 13/44/17 15/43/17
f 13/44/18 32/10/18 24/9/18 12/45/18
f 14/37/19 12/45/19 24/9/19 26/8/19 4/47/19 22/49/19 5/35/19
f 39/22/20 41/21/20 38/51/20
f 53/52/21 63/53/21 59/54/21 62/55/21
f 15/43/22 16/40/22 18/39/22 17/34/22 11/23/22 39/22/22 38/51/22 37/50/22
f 71/56/23 68/57/23 67/58/23 69/59/23 70/60/23
f 20/36/24 44/41/24 14/37/24
f 71/56/25 70/60/25 66/61/25 59/54/25 63/53/25 64/62/25 65/63/25
f 71/56/26 65/63/26 68/57/26
f 82/5/27 75/64/27 52/65/27 78/6/27
f 43/20/28 49/66/28 48/67/28 36/33/28 35/32/28 37/50/28 38/51/28 41/21/28
f 76/68/29 74/69/29 10/70/29 9/29/29 30/14/29 31/13/29 6/30/29 8/26/29 7/25/29 36/33/29 48/67/29
f 56/71/30 46/72/30 47/73/30 57/74/30
f 51/75/31 46/72/31 56/71/31 55/76/31
f 47/73/32 50/77/32 54/19/32 57/74/32
f 43/20/33 54/19/33 50/77/33 49/66/33
f 54/19/34 42/18/34 53/52/34 62/55/34 61/78/34 55/76/34 56/71/34 57/74/34
f 20/36/35 67/58/35 68/57/35 65/63/35 64/62/35 45/42/35 44/41/35
f 79/2/36 66/61/36 70/60/36 69/59/36 58/79/36 80/3/36
f 69/59/37 67/58/37 20/36/37 5/35/37 22/49/37 21/48/37 34/7/37 33/17/37 23/46/37 73/80/37 58/79/37
f 9/29/38 10/70/38 72/81/38 73/80/38 23/46/38 27/16/38 28/15/38
f 77/82/39 72/81/39 10/70/39 74/69/39
f 49/66/40 50/77/40 47/73/40 46/72/40 51/75/40 52/65/40 75/64/40 76/68/40 48/67/40
f 74/69/41 76/68/41 75/64/41 82/5/41 81/4/41 77/82/41
f 77/82/42 81/4/42 80/3/42 58/79/42 73/80/42 72/81/42
f 59/54/43 66/61/43 79/2/43 60/1/43 61/78/43 62/55/43
f 55/76/44 61/78/44 60/1/44 78/6/44 52/65/44 51/75/44
f 45/42/45 64/62/45 63/53/45 53/52/45 42/18/45 40/24/45 17/34/45 18/39/45 19/38/45
