# Blender v2.91.0 OBJ File: 'cristals.blend'
# www.blender.org
mtllib crystal_20.mtl
o crystal_20
v 2.138847 0.000000 -2.405466
v 1.787081 0.000000 -1.651098
v 4.293061 2.319654 0.778710
v 4.692844 1.267063 0.218137
v 1.780621 0.062460 -3.059062
v 0.905076 0.073027 -1.421991
v 2.202436 6.375954 -3.367811
v 0.756700 2.159357 0.934546
v 0.671552 0.116165 -1.045722
v 5.075785 0.923059 -1.004646
v 5.068056 1.911006 -1.071627
v 2.822335 6.003190 -3.487894
v 1.372689 1.061182 -3.784308
v 1.901854 0.095067 -3.336753
v 3.109266 1.913526 -3.932396
v 3.651630 0.720356 -3.392108
v 2.541741 0.018268 -0.776424
v 1.865824 1.336104 0.911881
v 4.403470 0.723444 0.044934
v 0.856719 0.141160 -0.559125
v 0.905728 0.455208 -0.164545
v 2.645920 0.008178 -2.376891
v 3.231740 0.365163 -3.296374
v 2.564386 0.102084 -3.265377
v 4.751640 0.602410 -0.805021
v 4.386085 0.398484 -0.364586
v 3.280243 0.029780 -0.789149
v 1.472373 5.358680 -3.370980
v 0.699995 5.996902 -1.136927
v -0.095165 1.544215 -1.736459
v 0.803771 1.686145 -3.646017
v 0.833829 3.765603 -3.443581
v 1.763036 1.640961 1.071188
v 1.268891 2.141643 1.173384
v 1.054100 5.621695 0.217818
v 1.467734 2.776914 1.191815
v 4.016361 2.954860 0.861191
v 0.577664 5.841576 -1.015177
v -0.292872 2.794499 -1.152002
v -0.175108 3.765603 -1.279906
v 0.575468 2.538164 0.806936
v 0.851779 4.220707 0.740023
v 0.861688 4.881618 0.502635
v 0.158056 4.866782 -0.997653
v 2.239115 6.982027 -2.643410
v 1.713490 7.032035 -1.624620
v 1.894887 6.643145 -0.523542
v 3.153901 6.474151 -2.771456
v 3.986705 5.744124 -1.841749
v 3.389483 5.633891 -0.031194
v -0.641349 0.000000 -0.692718
v -0.641350 0.000001 -1.400314
v -3.445097 3.667035 -2.372067
v -3.551718 2.003041 -1.796531
v -0.130526 0.098740 -0.317844
v -0.044106 0.115445 -1.893716
v -0.344596 10.079453 0.071585
v -0.776433 3.413628 -3.762660
v 0.000632 0.183639 -2.267519
v -3.407446 1.459221 -0.716836
v -1.879649 11.206423 -0.608362
v -3.377426 3.021021 -0.668006
v -3.387935 1.619458 -0.569759
v -0.779066 9.490170 0.386819
v -2.010822 10.482581 -0.415759
v 0.444335 1.677574 0.094374
v -0.124165 0.150287 -0.060336
v -0.840438 3.025005 0.832381
v -1.452424 1.138778 0.610964
v -1.537041 0.028879 -1.803092
v -1.622834 2.112185 -3.346717
v -3.266536 1.143659 -1.767049
v -0.316855 0.223152 -2.575901
v -0.496377 0.719617 -2.862304
v -1.042299 0.012928 -0.532554
v -1.163307 0.577269 0.386348
v -0.660269 0.161380 0.122702
v -3.229423 0.952322 -0.987097
v -3.106011 0.629945 -1.457773
v -2.101461 0.047078 -1.527962
v 0.219033 8.471292 -0.188268
v 0.011485 9.480229 -2.187030
v 0.839527 2.441179 -2.010791
v 0.832983 2.665549 -0.216573
v 0.737094 5.952869 -0.361744
v -1.600874 2.594120 -3.506387
v -1.256868 3.385625 -3.762660
v -0.895868 9.280663 -2.927054
v -2.368877 9.375748 -2.021455
v -1.416692 4.389895 -3.705421
v -3.261542 4.671204 -2.535028
v 0.061996 9.234680 -2.324785
v -0.748067 8.887080 -3.103596
v 0.781873 4.417696 -2.532127
v 0.737093 5.952869 -2.391272
v -0.590952 4.012467 -3.729454
v -0.779800 6.672322 -3.578628
v -0.702148 7.717127 -3.392168
v 0.378995 7.693673 -2.489041
v -1.241543 11.087372 -1.896265
v -2.178757 10.346939 -1.687353
v -0.652883 11.103212 -0.510702
v -0.587685 11.099118 -1.455069
v -1.143298 11.288611 -1.690893
v -1.583816 11.417176 -0.716527
v -0.679234 0.000000 0.764780
v -1.129371 0.000001 1.730104
v 2.341870 2.553347 4.593328
v 2.588982 1.621393 4.122066
v -1.137638 0.079927 -0.071593
v -2.258026 0.093449 2.023280
v -0.597862 8.158973 -0.466683
v -2.447895 2.763216 5.038816
v -2.556855 0.148650 2.504773
v 3.079011 1.181190 2.557335
v 3.069120 2.445414 2.471623
v 3.145956 1.310896 2.344278
v 0.195389 7.681966 -0.620346
v 0.304507 7.791172 -0.437890
v -1.659647 1.357939 -0.999651
v -0.982502 0.121652 -0.426939
v 0.562560 2.448638 -1.189152
v 1.256594 0.921802 -0.497773
v -0.163672 0.023377 2.849379
v -1.028607 1.709742 5.009815
v 2.218684 0.925753 3.900428
v -2.319906 0.180634 3.127445
v -2.257192 0.582506 3.632369
v -0.030360 0.010465 0.801345
v 0.719283 0.467280 -0.375269
v -0.134694 0.130632 -0.335602
v 2.664219 0.770872 2.812784
v 2.196438 0.509919 3.376386
v 0.781350 0.038108 2.833095
v -1.532087 6.857221 -0.470737
v -2.520457 7.673921 2.388063
v -3.537982 1.976051 1.620873
v -2.387661 2.157671 -0.822688
v -2.349197 4.818644 -0.563641
v -1.160140 2.099852 5.213672
v 2.077400 2.968339 4.839401
v -1.792472 2.740548 5.344446
v -1.538023 3.553470 5.368032
v 1.723322 3.781179 4.944949
v -2.676998 7.475158 2.543859
v -3.790977 3.575974 2.368773
v -3.640281 4.818644 2.205100
v -2.679808 3.247955 4.875522
v -3.213949 6.227766 2.566284
v -0.550926 8.934534 0.460295
v -1.223542 8.998526 1.763987
v -0.991417 8.500884 3.172979
v 0.619676 8.284632 0.296442
v 0.828908 8.134332 0.400595
v 1.685372 7.350454 1.486139
v 0.921139 7.209394 3.803011
v 0.333226 7.574493 3.734036
v -2.329932 7.314982 3.442050
v -2.119325 4.916039 4.941657
v -2.566812 6.241410 3.946111
v -2.410201 4.889679 4.810233
v -1.309474 8.088266 3.507687
v -1.161596 7.529995 3.906543
vt 0.529008 0.019154
vt 0.536819 0.018250
vt 0.540014 0.012913
vt 0.536876 0.012913
vt 0.563320 0.064394
vt 0.566211 0.091795
vt 0.562796 0.121193
vt 0.560214 0.074736
vt 0.560059 0.046966
vt 0.543810 0.021636
vt 0.544537 0.013611
vt 0.537900 0.021037
vt 0.543608 0.014473
vt 0.528577 0.024975
vt 0.526926 0.022839
vt 0.566142 0.176224
vt 0.559229 0.211147
vt 0.549763 0.044118
vt 0.553508 0.074473
vt 0.550195 0.015457
vt 0.537578 0.127094
vt 0.529014 0.051814
vt 0.536661 0.153147
vt 0.533179 0.103599
vt 0.548670 0.176440
vt 0.549068 0.566182
vt 0.540908 0.609584
vt 0.536220 0.613858
vt 0.537838 0.580625
vt 0.551170 0.494375
vt 0.556497 0.503796
vt 0.522345 0.428819
vt 0.526088 0.512123
vt 0.527179 0.525397
vt 0.534069 0.470857
vt 0.528373 0.334714
vt 0.519373 0.334714
vt 0.528105 0.157008
vt 0.540581 0.557791
vt 0.546111 0.525935
vt 0.520086 0.144879
vt 0.527685 0.197448
vt 0.532254 0.195934
vt 0.556761 0.265429
vt 0.534027 0.250223
vt 0.530338 0.493333
vt 0.526068 0.229820
vt 0.528533 0.373607
vt 0.528621 0.430087
vt 0.518323 0.251726
vt 0.506807 0.988605
vt 0.515111 0.961773
vt 0.515693 0.961423
vt 0.510737 0.977617
vt 0.520542 0.022778
vt 0.519771 0.021350
vt 0.515214 0.012913
vt 0.515214 0.012913
vt 0.492129 0.094297
vt 0.490541 0.137614
vt 0.489254 0.184088
vt 0.491797 0.110647
vt 0.493229 0.066746
vt 0.513438 0.271425
vt 0.513986 0.823925
vt 0.502998 0.908734
vt 0.490808 0.271084
vt 0.490715 0.151309
vt 0.507979 0.110231
vt 0.515045 0.026704
vt 0.511638 0.014017
vt 0.519827 0.025755
vt 0.507225 0.015381
vt 0.518108 0.031982
vt 0.520941 0.028606
vt 0.490204 0.326291
vt 0.504169 0.970594
vt 0.510558 0.062245
vt 0.502190 0.016935
vt 0.506460 0.193416
vt 0.516507 0.074410
vt 0.506655 0.234602
vt 0.524899 0.156275
vt 0.524316 0.670401
vt 0.521488 0.802092
vt 0.521038 0.823077
vt 0.522889 0.736855
vt 0.527510 0.521635
vt 0.527510 0.521635
vt 0.528365 0.240705
vt 0.517861 0.874284
vt 0.528424 0.221531
vt 0.514009 0.304635
vt 0.509724 0.302242
vt 0.491842 0.412105
vt 0.508298 0.388064
vt 0.501500 0.897144
vt 0.499805 0.814147
vt 0.509860 0.960420
vt 0.512944 0.806022
vt 0.515664 0.355810
vt 0.513979 0.583117
vt 0.514672 0.672404
vt 0.514262 0.772386
vt 0.527910 0.390441
vt 0.500793 0.020899
vt 0.510787 0.019742
vt 0.514876 0.012913
vt 0.510861 0.012913
vt 0.544700 0.078790
vt 0.548400 0.113855
vt 0.544029 0.151474
vt 0.540726 0.092025
vt 0.540528 0.056489
vt 0.519734 0.024077
vt 0.520664 0.013807
vt 0.512171 0.023309
vt 0.519475 0.014910
vt 0.500241 0.028350
vt 0.498128 0.025616
vt 0.548312 0.221893
vt 0.541825 0.231117
vt 0.548997 0.124939
vt 0.527351 0.052845
vt 0.532144 0.091688
vt 0.527905 0.016169
vt 0.511760 0.159025
vt 0.500801 0.062692
vt 0.510587 0.192362
vt 0.539466 0.266581
vt 0.506131 0.128959
vt 0.525953 0.222169
vt 0.526463 0.720903
vt 0.516021 0.776443
vt 0.510021 0.781911
vt 0.512092 0.739384
vt 0.523907 0.660215
vt 0.529152 0.629016
vt 0.535969 0.641069
vt 0.528329 0.708058
vt 0.492266 0.545127
vt 0.497056 0.651726
vt 0.498453 0.668713
vt 0.507269 0.598918
vt 0.499980 0.424706
vt 0.488464 0.424706
vt 0.499637 0.197304
vt 0.515602 0.710165
vt 0.522678 0.669401
vt 0.489376 0.181782
vt 0.499100 0.249052
vt 0.504946 0.247116
vt 0.536307 0.336045
vt 0.507216 0.316586
vt 0.497031 0.290477
vt 0.487119 0.318509
vt 0.510574 0.656413
vt 0.502030 0.433029
vt 0.523651 0.678733
vt 0.500152 0.638037
vt 0.509254 0.704122
vt 0.499436 0.430776
vt 0.498039 0.546291
vn -0.0937 -0.9946 -0.0437
vn 0.7580 -0.5263 0.3854
vn 0.0221 -0.9940 -0.1071
vn -0.0629 -0.9952 0.0751
vn 0.9387 0.1083 0.3272
vn 0.5813 -0.7632 -0.2820
vn 0.0229 -0.7836 0.6208
vn 0.2097 -0.3964 0.8938
vn 0.3583 -0.9244 -0.1306
vn 0.1034 -0.3709 -0.9229
vn 0.0157 -0.9998 0.0073
vn 0.4969 0.8407 0.2151
vn -0.8465 0.3573 -0.3947
vn -0.1322 0.0979 -0.9864
vn -0.7236 -0.5739 -0.3833
vn -0.3744 -0.5255 0.7640
vn 0.1332 -0.0704 0.9886
vn 0.8946 0.3181 0.3140
vn 0.0866 0.5375 0.8388
vn -0.4173 0.1044 0.9027
vn -0.8426 0.3697 0.3915
vn -0.8938 0.1634 0.4176
vn -0.8849 -0.3046 0.3524
vn -0.9050 0.0542 -0.4220
vn 0.0982 0.3351 0.9371
vn 0.8239 0.1100 -0.5560
vn -0.5791 0.7341 0.3547
vn 0.3134 0.7205 -0.6186
vn -0.7410 0.5330 -0.4085
vn 0.3160 0.9486 0.0177
vn 0.1898 -0.9818 -0.0000
vn -0.9483 -0.3158 -0.0323
vn -0.5081 0.0640 0.8589
vn 0.0463 -0.9797 0.1950
vn 0.0465 -0.9837 -0.1739
vn -0.9933 0.0563 0.1013
vn -0.3401 0.2989 0.8916
vn -0.5326 -0.5362 0.6548
vn -0.3772 -0.5613 -0.7366
vn -0.6024 -0.2262 -0.7655
vn -0.4303 -0.7934 0.4306
vn 0.3120 -0.2100 0.9266
vn -0.0322 -0.9995 0.0000
vn 0.9795 0.2015 -0.0000
vn 0.5385 0.0528 0.8410
vn 0.9345 -0.3527 0.0475
vn 0.0184 -0.3152 -0.9488
vn -0.5394 -0.0379 -0.8412
vn -0.9793 0.1773 0.0982
vn -0.4696 0.3680 -0.8025
vn -0.0033 0.0564 -0.9984
vn 0.6296 0.2093 -0.7482
vn -0.5056 0.1879 -0.8421
vn 0.6397 0.0887 -0.7635
vn 0.6757 -0.1695 -0.7174
vn 0.9996 0.0292 -0.0000
vn -0.6249 0.6858 -0.3730
vn 0.4773 0.5026 -0.7208
vn 0.9450 0.3209 0.0638
vn -0.0284 0.4877 0.8725
vn 0.9504 0.0559 0.3059
vn 0.8940 0.3208 0.3128
vn 0.8194 0.1185 -0.5609
vn 0.6422 0.4796 -0.5979
vn 0.0749 0.5928 0.8019
vn -0.3998 0.4604 0.7926
usemtl Material.004
s off
f 6/1/1 5/2/1 1/3/1 2/4/1
f 25/5/2 10/6/2 4/7/2 19/8/2 26/9/2
f 24/10/3 22/11/3 1/3/3 5/2/3 14/12/3
f 17/13/4 20/14/4 9/15/4 6/1/4 2/4/4
f 11/16/5 3/17/5 4/7/5 10/6/5
f 25/5/6 23/18/6 16/19/6 10/6/6
f 27/20/7 26/9/7 19/8/7 18/21/7 21/22/7 20/14/7 17/13/7
f 33/23/8 18/21/8 19/8/8 4/7/8 3/17/8
f 26/9/9 27/20/9 22/11/9 24/10/9 23/18/9 25/5/9
f 13/24/10 15/25/10 16/19/10 23/18/10 24/10/10 14/12/10
f 2/4/11 1/3/11 22/11/11 27/20/11 17/13/11
f 48/26/12 45/27/12 46/28/12 47/29/12 50/30/12 49/31/12
f 44/32/13 38/33/13 29/34/13 28/35/13 32/36/13 40/37/13
f 13/24/14 31/38/14 32/36/14 28/35/14 7/39/14 12/40/14 15/25/14
f 9/15/15 30/41/15 31/38/15 13/24/15 14/12/15 5/2/15 6/1/15
f 8/42/16 21/22/16 18/21/16 33/23/16 34/43/16
f 3/17/17 37/44/17 36/45/17 34/43/17 33/23/17
f 49/31/18 50/30/18 37/44/18 3/17/18 11/16/18
f 47/29/19 35/46/19 50/30/19
f 41/47/20 8/42/20 34/43/20 36/45/20 42/48/20
f 44/32/21 43/49/21 35/46/21 38/33/21
f 44/32/22 40/37/22 39/50/22 41/47/22 42/48/22 43/49/22
f 21/22/23 8/42/23 41/47/23 39/50/23 30/41/23 9/15/23 20/14/23
f 32/36/24 31/38/24 30/41/24 39/50/24 40/37/24
f 35/46/25 43/49/25 42/48/25 36/45/25 37/44/25 50/30/25
f 15/25/26 12/40/26 48/26/26 49/31/26 11/16/26 10/6/26 16/19/26
f 35/46/27 47/29/27 46/28/27 29/34/27 38/33/27
f 12/40/28 7/39/28 45/27/28 48/26/28
f 28/35/29 29/34/29 46/28/29 45/27/29 7/39/29
f 105/51/30 102/52/30 103/53/30 104/54/30
f 56/55/31 55/56/31 51/57/31 52/58/31
f 78/59/32 60/60/32 54/61/32 72/62/32 79/63/32
f 68/64/33 64/65/33 65/66/33 62/67/33 63/68/33 69/69/33
f 77/70/34 75/71/34 51/57/34 55/56/34 67/72/34
f 70/73/35 73/74/35 59/75/35 56/55/35 52/58/35
f 62/67/36 53/76/36 54/61/36 60/60/36 63/68/36
f 64/65/37 61/77/37 65/66/37
f 78/59/38 76/78/38 69/69/38 63/68/38 60/60/38
f 80/79/39 79/63/39 72/62/39 71/80/39 74/81/39 73/74/39 70/73/39
f 86/82/40 71/80/40 72/62/40 54/61/40 53/76/40
f 79/63/41 80/79/41 75/71/41 77/70/41 76/78/41 78/59/41
f 66/83/42 68/64/42 69/69/42 76/78/42 77/70/42 67/72/42
f 52/58/43 51/57/43 75/71/43 80/79/43 70/73/43
f 99/84/44 92/85/44 82/86/44 81/87/44 85/88/44 95/89/44
f 66/83/45 84/90/45 85/88/45 81/87/45 57/91/45 64/65/45 68/64/45
f 59/75/46 83/92/46 84/90/46 66/83/46 67/72/46 55/56/46 56/55/46
f 58/93/47 74/81/47 71/80/47 86/82/47 87/94/47
f 53/76/48 91/95/48 90/96/48 87/94/48 86/82/48
f 101/97/49 89/98/49 91/95/49 53/76/49 62/67/49 65/66/49 61/77/49
f 100/99/50 88/100/50 89/98/50 101/97/50
f 96/101/51 58/93/51 87/94/51 90/96/51 97/102/51
f 99/84/52 98/103/52 93/104/52 92/85/52
f 88/100/53 93/104/53 98/103/53 97/102/53 90/96/53 91/95/53 89/98/53
f 99/84/54 95/89/54 94/105/54 96/101/54 97/102/54 98/103/54
f 74/81/55 58/93/55 96/101/55 94/105/55 83/92/55 59/75/55 73/74/55
f 85/88/56 84/90/56 83/92/56 94/105/56 95/89/56
f 61/77/57 105/51/57 104/54/57 100/99/57 101/97/57
f 93/104/58 88/100/58 100/99/58 104/54/58 103/53/58 82/86/58 92/85/58
f 81/87/59 82/86/59 103/53/59 102/52/59 57/91/59
f 64/65/60 57/91/60 102/52/60 105/51/60 61/77/60
f 111/106/1 110/107/1 106/108/1 107/109/1
f 132/110/2 115/111/2 109/112/2 126/113/2 133/114/2
f 131/115/3 129/116/3 106/108/3 110/107/3 121/117/3
f 124/118/4 127/119/4 114/120/4 111/106/4 107/109/4
f 116/121/61 108/122/61 109/112/61 115/111/61 117/123/61
f 132/110/6 130/124/6 123/125/6 117/123/6 115/111/6
f 134/126/7 133/114/7 126/113/7 125/127/7 128/128/7 127/119/7 124/118/7
f 140/129/8 125/127/8 126/113/8 109/112/8 108/122/8 141/130/8
f 133/114/9 134/126/9 129/116/9 131/115/9 130/124/9 132/110/9
f 120/131/10 122/132/10 123/125/10 130/124/10 131/115/10 121/117/10
f 107/109/11 106/108/11 129/116/11 134/126/11 124/118/11
f 153/133/12 150/134/12 151/135/12 152/136/12 157/137/12 156/138/12 155/139/12 154/140/12
f 149/141/13 145/142/13 136/143/13 135/144/13 139/145/13 147/146/13
f 120/131/14 138/147/14 139/145/14 135/144/14 112/148/14 118/149/14 122/132/14
f 114/120/15 137/150/15 138/147/15 120/131/15 121/117/15 110/107/15 111/106/15
f 113/151/16 128/128/16 125/127/16 140/129/16 142/152/16
f 141/130/17 144/153/17 143/154/17 142/152/17 140/129/17
f 155/139/62 156/138/62 144/153/62 141/130/62 108/122/62 116/121/62
f 128/128/23 113/151/23 148/155/23 146/156/23 137/150/23 114/120/23 127/119/23
f 139/145/24 138/147/24 137/150/24 146/156/24 147/146/24
f 163/157/25 159/158/25 143/154/25 144/153/25 156/138/25 157/137/25
f 122/132/63 118/149/63 119/159/63 154/140/63 155/139/63 116/121/63 117/123/63 123/125/63
f 119/159/64 153/133/64 154/140/64
f 158/160/27 162/161/27 152/136/27 151/135/27 136/143/27 145/142/27
f 118/149/28 112/148/28 150/134/28 153/133/28 119/159/28
f 135/144/29 136/143/29 151/135/29 150/134/29 112/148/29
f 152/136/65 162/161/65 163/157/65 157/137/65
f 149/141/22 147/146/22 146/156/22 148/155/22 161/162/22 160/163/22
f 148/155/20 113/151/20 142/152/20 143/154/20 159/158/20 161/162/20
f 149/141/21 160/163/21 158/160/21 145/142/21
f 162/161/66 158/160/66 160/163/66 161/162/66 159/158/66 163/157/66
