# Blender v2.91.0 OBJ File: 'cristals.blend'
# www.blender.org
mtllib crystal_7.mtl
o crystal_7
v 0.688404 1.153082 3.296049
v 1.082063 0.834219 3.133194
v 1.386816 0.460719 2.942434
v 1.536134 0.762660 2.953328
v 0.760945 1.386836 3.297952
v 1.338495 0.873667 3.054073
v 3.153939 2.848779 1.327140
v 2.817101 5.461720 0.850155
v 3.185603 1.742432 -1.231403
v 3.244450 1.359664 -0.925086
v 3.190690 2.533219 1.287001
v 1.759951 0.013427 2.627371
v 3.101150 2.435236 1.472664
v 2.132660 0.825108 2.542866
v 3.135467 0.983271 -1.137387
v 0.447379 1.237269 3.339047
v 0.496847 1.794599 3.363143
v -2.403518 0.000000 2.016862
v -2.961319 4.236115 0.533037
v -2.472288 1.141602 1.987489
v -1.951908 6.678833 1.324767
v -2.196461 5.963450 1.625699
v -0.317598 5.184460 2.993478
v -1.541825 5.226910 2.426942
v -2.107156 5.584972 1.959585
v -1.106118 7.184307 1.429547
v -2.647193 5.409873 -1.298441
v -2.464149 5.322808 1.698903
v 1.949675 4.898284 -2.447956
v -2.556492 5.415335 -1.469073
v -0.035524 8.058238 -0.876088
v -2.008660 6.950454 -0.564943
v -2.541024 5.682343 -1.262496
v -2.595790 5.131451 -1.569746
v -2.446072 3.620624 -2.317735
v -1.283047 3.317593 -3.137727
v -0.569195 5.556936 -2.582399
v -0.357761 1.058898 -3.170856
v -1.169422 3.192040 -3.188390
v 1.537323 4.697926 -2.664068
v -0.423634 4.850780 -2.976700
v -1.142421 3.431849 -3.171011
v 2.765895 5.769071 0.505813
v 3.118079 2.257345 -1.353918
v 2.643321 5.899354 0.847735
v -0.044617 6.955964 2.037206
v 0.128741 6.629820 2.312031
v 2.448943 6.501247 0.217741
v 0.098967 8.102266 -0.486799
v 0.041518 7.970115 -1.006360
v 1.815848 6.579446 -1.476020
v 2.315573 6.731878 0.033944
v 0.685625 7.877488 0.067286
v 1.593773 0.000001 2.707127
v -0.231564 0.000000 -2.925151
v 2.729184 0.000001 -1.213121
v 1.754404 0.000001 2.626337
v -0.946399 0.000000 2.691281
v -2.894071 -0.000000 1.014642
v -2.550525 0.000000 -1.124496
vt 0.527382 0.884044
vt 0.528758 0.888231
vt 0.534762 0.866857
vt 0.551443 0.757928
vt 0.546329 0.743435
vt 0.528170 0.875665
vt 0.555676 0.117830
vt 0.559834 0.211324
vt 0.560949 0.247114
vt 0.560399 0.358700
vt 0.559483 0.349384
vt 0.549571 0.196285
vt 0.545757 0.119107
vt 0.545700 0.117830
vt 0.535533 0.249696
vt 0.534790 0.227471
vt 0.538819 0.197151
vt 0.541443 0.200902
vt 0.560023 0.388705
vt 0.541938 0.161637
vt 0.543466 0.190347
vt 0.532324 0.235475
vt 0.532830 0.288469
vt 0.560347 0.283509
vt 0.500654 0.632225
vt 0.501740 0.658134
vt 0.501582 0.632745
vt 0.501180 0.605752
vt 0.544056 0.117830
vt 0.518060 0.117830
vt 0.503147 0.117830
vt 0.498127 0.117830
vt 0.501643 0.117830
vt 0.525375 0.117830
vt 0.516054 0.444146
vt 0.523410 0.579065
vt 0.543478 0.564530
vt 0.524084 0.218515
vt 0.515777 0.421344
vt 0.514615 0.433282
vt 0.502712 0.462096
vt 0.521920 0.646209
vt 0.516425 0.800947
vt 0.527289 0.779234
vt 0.529063 0.748223
vt 0.524495 0.610793
vt 0.556576 0.637155
vt 0.554797 0.678767
vt 0.505267 0.684862
vt 0.502527 0.623948
vt 0.506181 0.648876
vt 0.502444 0.226379
vt 0.511966 0.614829
vt 0.507769 0.752884
vt 0.507188 0.778711
vt 0.497439 0.520619
vt 0.547698 0.583582
vt 0.559656 0.332469
vt 0.556052 0.666380
vt 0.552808 0.735998
vn 0.5508 0.7923 -0.2624
vn 0.8938 -0.3868 0.2269
vn 0.3077 -0.1032 0.9459
vn 0.8901 0.0460 0.4535
vn 0.3313 -0.2099 0.9199
vn 0.1562 -0.0565 0.9861
vn 0.9462 -0.1006 -0.3074
vn 0.5704 -0.1784 0.8018
vn -0.8390 0.3263 -0.4355
vn 0.0000 -1.0000 0.0000
vn 0.1613 0.0533 -0.9855
vn -0.4765 0.3517 -0.8058
vn -0.3077 0.1032 -0.9459
vn -0.0396 0.9106 0.4113
vn 0.5376 0.2180 0.8145
vn -0.7088 0.3651 0.6035
vn -0.6151 0.0555 0.7865
vn -0.9305 0.3591 0.0726
vn 0.1756 0.5069 -0.8439
vn 0.9919 0.1206 -0.0399
vn 0.8949 0.4157 0.1624
vn -0.3637 0.4881 0.7934
vn 0.5009 0.6978 0.5121
vn 0.9069 0.2640 -0.3283
vn -0.4333 0.5683 -0.6995
vn -0.4902 0.8640 0.1147
vn -0.9855 -0.0269 -0.1677
vn -0.0049 -0.4584 0.8887
vn -0.5991 -0.2373 -0.7647
vn -0.9256 0.0199 0.3780
vn -0.4200 -0.0020 0.9075
vn 0.4967 -0.1384 -0.8568
vn 0.4355 -0.2466 0.8658
usemtl Material.004
s off
f 31/1/1 49/2/1 53/3/1 52/4/1 51/5/1 50/6/1
f 56/7/2 15/8/2 10/9/2 11/10/2 13/11/2 14/12/2 12/13/2 57/14/2
f 5/15/3 1/16/3 2/17/3 6/18/3
f 13/11/4 11/10/4 7/19/4
f 2/17/5 3/20/5 4/21/5 6/18/5
f 16/22/6 1/16/6 5/15/6 17/23/6
f 10/9/7 15/8/7 9/24/7
f 4/21/8 12/13/8 14/12/8
f 27/25/9 33/26/9 30/27/9 34/28/9
f 54/29/10 58/30/10 18/31/10 59/32/10 60/33/10 55/34/10 56/7/10 57/14/10
f 42/35/11 41/36/11 40/37/11 38/38/11 39/39/11
f 42/35/12 36/40/12 35/41/12 34/28/12 30/27/12 37/42/12 41/36/12
f 42/35/13 39/39/13 36/40/13
f 53/3/14 49/2/14 26/43/14 46/44/14
f 47/45/15 23/46/15 17/23/15 5/15/15 6/18/15 4/21/15 14/12/15 13/11/15 7/19/15 8/47/15 45/48/15
f 22/49/16 28/50/16 25/51/16
f 20/52/17 24/53/17 25/51/17 28/50/17
f 28/50/18 22/49/18 21/54/18 32/55/18 33/26/18 27/25/18 19/56/18
f 50/6/19 51/5/19 29/57/19 40/37/19 41/36/19 37/42/19
f 7/19/20 11/10/20 10/9/20 9/24/20 44/58/20 43/59/20 8/47/20
f 48/60/21 45/48/21 8/47/21 43/59/21
f 24/53/22 23/46/22 47/45/22 46/44/22 26/43/22 21/54/22 22/49/22 25/51/22
f 45/48/23 48/60/23 52/4/23 53/3/23 46/44/23 47/45/23
f 48/60/24 43/59/24 44/58/24 29/57/24 51/5/24 52/4/24
f 30/27/25 33/26/25 32/55/25 31/1/25 50/6/25 37/42/25
f 21/54/26 26/43/26 49/2/26 31/1/26 32/55/26
f 60/33/27 59/32/27 19/56/27 27/25/27 34/28/27 35/41/27
f 58/30/28 54/29/28 3/20/28 2/17/28 1/16/28 16/22/28
f 55/34/29 60/33/29 35/41/29 36/40/29 39/39/29 38/38/29
f 19/56/30 59/32/30 18/31/30 20/52/30 28/50/30
f 20/52/31 18/31/31 58/30/31 16/22/31 17/23/31 23/46/31 24/53/31
f 40/37/32 29/57/32 44/58/32 9/24/32 15/8/32 56/7/32 55/34/32 38/38/32
f 4/21/33 3/20/33 54/29/33 57/14/33 12/13/33
