# Blender v2.91.0 OBJ File: 'cristals.blend'
# www.blender.org
mtllib crystal_14.mtl
o crystal_14
v 0.524049 0.000000 0.786439
v 0.524049 2.949705 0.786439
v 0.524048 2.949705 1.894191
v -0.435293 0.000000 2.448066
v -1.394633 0.000000 0.786439
v -1.394633 2.949705 0.786439
v 0.300803 0.000000 -1.238967
v 0.752193 6.256503 -0.457136
v -0.315116 5.440060 -0.928629
v 0.348874 5.440060 0.221435
v -0.979106 0.000000 -0.545274
v 0.796543 4.685534 -1.184010
v 1.460532 4.685534 -0.800655
v 1.460532 4.685534 -0.033946
v 0.796543 4.685534 0.349409
v 1.050788 3.684331 0.584685
v 0.616276 0.000000 0.835550
v 0.616276 3.684331 0.835550
v 0.181765 0.000000 0.584685
v 0.181765 3.684331 0.584685
v 1.450684 4.031788 0.014080
v 1.450684 3.977836 0.353103
v 1.157081 3.977836 0.522614
v 0.863478 4.031788 0.353103
v -1.180986 0.000000 -0.525627
v -1.180986 3.997802 -0.525627
v -1.180986 0.000000 0.619088
v -1.180986 3.997802 0.619088
v -1.676662 3.997802 -0.239449
v -0.450317 3.318026 -1.489340
v 0.001073 0.000000 -1.228730
v 0.001073 3.318026 -1.228730
v -0.901707 0.000000 -0.707510
v -0.901707 3.318026 -0.707510
v -0.901707 3.318026 -1.228730
v -0.052847 0.000000 0.453368
v -0.052847 2.949705 0.453368
v -0.697561 2.949705 0.383984
v -0.315116 2.949705 0.604789
v -0.697561 0.000000 0.383984
v 0.596267 0.000000 -1.068381
v 0.752193 4.685534 -0.978357
v 0.596267 4.685534 -1.068381
v 0.752193 4.685534 -0.457136
v 0.348874 5.440060 -0.224280
v 0.348874 4.685534 -0.224280
v 0.300803 5.440060 -0.196526
v -0.150587 5.440060 -0.457136
v -0.150587 3.318026 -0.978357
v -0.150587 5.440060 -0.833638
v -0.150587 3.318026 -0.833638
v 0.001073 0.000000 -1.065917
v 0.001073 3.318026 -1.065917
v -0.315116 3.318026 -0.928629
v 0.348874 3.684331 0.221435
v 0.348874 4.685534 0.090947
v 0.348874 3.684331 0.090947
v 0.181765 0.000000 0.317915
v 0.181765 3.684331 0.317915
v -0.735668 0.000000 0.361983
v -0.979106 3.997802 0.221435
v -0.735668 3.997802 0.361983
v -0.979106 0.000000 -0.409071
v -0.979106 3.997802 -0.409071
v -0.799906 0.000000 -0.648735
v -0.799906 3.318026 -0.648735
v 1.414017 4.031788 -0.007090
v 0.796543 3.684331 0.349409
v 0.863478 4.031788 0.310763
v 0.863478 3.684331 0.310763
v 1.050788 3.684331 0.461246
v 0.863478 3.684331 0.353103
v 0.752193 6.256503 -0.673053
v 0.752193 6.111271 -0.978357
v 0.400184 6.256503 -0.253904
v 0.300803 6.232722 -0.196526
v -0.150587 6.146187 -0.457136
v -0.150587 6.167662 -0.978357
v -0.312947 2.949705 2.377430
v -0.435293 2.806656 2.448066
v -0.759533 2.949705 2.260866
v -0.298912 5.440060 0.595434
v -0.358058 5.440060 0.579997
v -0.315116 5.421115 0.604789
v -0.493581 5.440060 0.501752
v 0.300803 6.134566 -1.238967
v 0.569305 6.256503 -1.005687
v 0.564044 6.222381 -1.086985
v -0.067388 6.187571 -1.026392
v 0.269582 6.256503 -0.936971
v -0.979106 5.370972 -0.545274
v -0.925509 5.440060 -0.576219
v -0.979106 5.182377 0.221435
v -0.912953 5.248862 0.259628
v -0.774362 5.440060 0.128594
v -1.221270 0.000000 1.994282
v -1.394633 0.148077 1.894190
v -1.394633 0.000000 0.848719
v -1.453166 0.000000 0.461945
v -1.676662 0.190897 0.332909
v -1.676662 0.109831 -0.239449
v -1.568740 0.000000 -0.301757
v 0.524049 0.000000 1.293857
v 0.524048 0.166388 1.894191
v 0.147310 0.000000 2.111701
v 1.460532 0.195443 -0.033946
v 1.050788 0.120371 0.584685
v 0.778243 0.000000 0.742039
v 1.450684 0.202828 0.014080
v 1.450684 0.296791 0.353103
v 1.157081 0.167121 0.522614
v 1.414017 0.174899 -0.007090
v 1.184397 0.000000 -0.139661
v 1.050788 0.000000 0.150383
v 1.018007 0.000000 0.221546
v 1.050788 0.086158 0.461246
v 0.937673 0.000000 0.395939
v 0.796543 0.071222 -1.184010
v 1.460532 0.272228 -0.800655
v 0.745642 0.000000 -1.154622
v 1.460532 0.048299 -0.564845
v 1.387129 0.000000 -0.579763
v -0.180485 0.000000 -1.333553
v -0.450317 0.352023 -1.489340
v -0.901707 0.000000 -1.077960
v -0.901707 0.254158 -1.228730
v -0.509251 0.251664 -1.455315
v -0.429159 0.000000 -1.352567
v -1.394633 2.949705 1.485576
v -1.544852 3.997802 0.409009
v -1.676662 3.997802 0.208659
v -0.961156 2.949705 2.144459
v -1.394633 2.444812 1.894190
v -1.676662 3.844276 0.332909
vt 0.520727 0.867969
vt 0.521680 0.865027
vt 0.522040 0.867969
vt 0.546357 0.034166
vt 0.546357 0.750789
vt 0.561097 0.750789
vt 0.561097 0.065382
vt 0.552002 0.041800
vt 0.552002 0.595296
vt 0.542356 0.595296
vt 0.542356 0.023106
vt 0.545951 0.023106
vt 0.532710 0.595296
vt 0.532710 0.023106
vt 0.560879 0.054606
vt 0.560879 0.649259
vt 0.560879 0.640880
vt 0.560879 0.069198
vt 0.554361 0.640880
vt 0.554361 0.049061
vt 0.496417 0.023106
vt 0.491456 0.052752
vt 0.491456 0.040162
vt 0.493852 0.023106
vt 0.491456 0.643981
vt 0.502459 0.643981
vt 0.502459 0.023106
vt 0.518679 0.077776
vt 0.518679 0.538409
vt 0.528699 0.538409
vt 0.528699 0.023106
vt 0.524669 0.023106
vt 0.540309 0.481206
vt 0.540309 0.023106
vt 0.527502 0.023106
vt 0.527502 0.481206
vt 0.511815 0.481206
vt 0.519013 0.458990
vt 0.521728 0.481206
vt 0.513191 0.023106
vt 0.497717 0.023106
vt 0.497717 0.481206
vt 0.513191 0.481206
vt 0.497717 0.023106
vt 0.501565 0.023106
vt 0.497717 0.046101
vt 0.527180 0.984062
vt 0.534660 0.994768
vt 0.541313 0.994768
vt 0.541196 0.989468
vt 0.535353 0.975830
vt 0.535353 0.023106
vt 0.528699 0.023106
vt 0.528699 0.538409
vt 0.525333 0.538409
vt 0.525333 0.980971
vt 0.521680 0.867969
vt 0.525333 0.867969
vt 0.525333 0.538409
vt 0.521680 0.538409
vt 0.536420 0.867969
vt 0.536420 0.867969
vt 0.536420 0.595296
vt 0.536420 0.595296
vt 0.536420 0.750789
vt 0.536420 0.750789
vt 0.506940 0.827949
vt 0.506940 0.857240
vt 0.506940 0.023106
vt 0.506940 0.023106
vt 0.506940 0.643981
vt 0.506940 0.643981
vt 0.560065 0.050268
vt 0.561097 0.053459
vt 0.561097 0.750789
vt 0.546357 0.750789
vt 0.546357 0.595296
vt 0.547843 0.595296
vt 0.547843 0.649259
vt 0.560065 0.649259
vt 0.541911 0.750789
vt 0.545373 0.750789
vt 0.545373 0.750789
vt 0.532710 0.595296
vt 0.552002 0.595296
vt 0.547843 0.595296
vt 0.532710 0.023106
vt 0.552002 0.036487
vt 0.547843 0.649259
vt 0.512344 0.643981
vt 0.502459 0.643981
vt 0.502459 0.023106
vt 0.512344 0.023106
vt 0.508659 0.538409
vt 0.508659 0.023106
vt 0.510918 0.023106
vt 0.510918 0.538409
vt 0.508659 0.538409
vt 0.545373 0.972213
vt 0.545373 0.994768
vt 0.545373 0.994768
vt 0.525333 0.867969
vt 0.525333 0.977633
vt 0.535353 0.867969
vt 0.535353 0.991073
vt 0.537559 0.994768
vt 0.511485 0.867969
vt 0.508409 0.838277
vt 0.517718 0.867969
vt 0.521680 0.481206
vt 0.540309 0.048945
vt 0.540309 0.481206
vt 0.519013 0.023106
vt 0.531946 0.023106
vt 0.497717 0.481206
vt 0.497717 0.402795
vt 0.507339 0.481206
vt 0.508130 0.867969
vt 0.541911 0.023106
vt 0.491456 0.643981
vt 0.491456 0.620138
vt 0.494382 0.643981
vt 0.561097 0.030608
vt 0.540309 0.023106
vt 0.549490 0.023106
vt 0.551274 0.023106
vt 0.552002 0.023106
vt 0.554967 0.023106
vt 0.559468 0.023106
vt 0.545228 0.023106
vt 0.508659 0.062578
vt 0.517371 0.062190
vt 0.519148 0.023106
vt 0.508659 0.023106
vn -0.2075 0.5700 0.7950
vn 0.5000 0.0000 -0.8660
vn 0.5000 0.0000 0.8660
vn -0.5000 0.0000 0.8660
vn 1.0000 0.0000 0.0000
vn -0.6797 -0.7262 0.1029
vn -0.5000 0.0000 -0.8660
vn -0.0873 0.9206 -0.3807
vn -1.0000 -0.0000 0.0000
vn 0.0000 1.0000 0.0000
vn 0.0904 0.9835 0.1565
vn -0.5675 0.7040 0.4270
vn -0.7633 0.4064 0.5022
vn -0.7441 0.6487 0.1596
vn -0.2105 0.9768 0.0402
vn 0.6157 0.7116 -0.3385
vn 0.5016 -0.8337 0.2311
vn 0.5251 -0.6171 -0.5860
vn 0.0712 -0.3575 -0.9312
vn -0.4471 -0.4564 -0.7693
vn 0.0000 -1.0000 0.0000
usemtl Material.004
s off
f 83/1/1 84/2/1 82/3/1
f 118/4/2 12/5/2 13/6/2 119/7/2
f 107/8/3 16/9/3 18/10/3 17/11/3 108/12/3
f 17/11/4 18/10/4 20/13/4 19/14/4
f 109/15/5 21/16/5 22/17/5 110/18/5
f 110/18/3 22/17/3 23/19/3 111/20/3
f 99/21/6 100/22/6 101/23/6 102/24/6
f 101/23/7 29/25/7 26/26/7 25/27/7 102/24/7
f 124/28/2 30/29/2 32/30/2 31/31/2 123/32/2
f 2/33/2 1/34/2 36/35/2 37/36/2
f 81/37/1 80/38/1 79/39/1
f 40/40/7 5/41/7 6/42/7 38/43/7
f 98/44/6 96/45/6 97/46/6
f 89/47/8 90/48/8 87/49/8 88/50/8 86/51/8
f 89/47/7 86/51/7 7/52/7 52/53/7 53/54/7 49/55/7 78/56/7
f 9/57/2 50/58/2 51/59/2 54/60/2
f 45/61/5 10/62/5 55/63/5 57/64/5 56/65/5 46/66/5
f 93/67/9 91/68/9 11/69/9 63/70/9 64/71/9 61/72/9
f 112/73/3 106/74/3 14/75/3 15/76/3 68/77/3 70/78/3 69/79/3 67/80/3
f 68/77/4 15/76/4 56/65/4 57/64/4
f 56/65/10 15/76/10 14/75/10 13/6/10 12/5/10 43/81/10 42/82/10 44/83/10 46/66/10
f 68/77/10 57/64/10 55/63/10 59/84/10 20/13/10 18/10/10 16/9/10 71/85/10 72/86/10 70/78/10
f 19/14/9 20/13/9 59/84/9 58/87/9
f 116/88/4 111/20/4 23/19/4 24/89/4 72/86/4 71/85/4
f 69/79/10 24/89/10 21/16/10 67/80/10
f 24/89/11 23/19/11 22/17/11 21/16/11
f 24/89/9 69/79/9 70/78/9 72/86/9
f 63/70/2 25/27/2 26/26/2 64/71/2
f 62/90/3 28/91/3 27/92/3 60/93/3
f 31/31/5 32/30/5 53/54/5 52/53/5
f 34/94/4 33/95/4 65/96/4 66/97/4
f 49/55/10 53/54/10 32/30/10 30/29/10 35/98/10 34/94/10 66/97/10 54/60/10 51/59/10
f 42/82/5 74/99/5 73/100/5 8/101/5 44/83/5
f 48/102/9 77/103/9 78/56/9 49/55/9 51/59/9 50/58/9
f 47/104/4 76/105/4 77/103/4 48/102/4
f 87/49/10 90/48/10 75/106/10 8/101/10 73/100/10
f 44/83/3 8/101/3 75/106/3 76/105/3 47/104/3 45/61/3 46/66/3
f 95/107/12 94/108/12 85/109/12
f 55/63/3 10/62/3 82/3/3 84/2/3 39/110/3 37/36/3 36/35/3 58/87/3 59/84/3
f 104/111/3 3/112/3 79/39/3 80/38/3 4/113/3 105/114/3
f 129/115/13 133/116/13 132/117/13
f 92/118/14 91/68/14 93/67/14 94/108/14 95/107/14
f 76/105/15 75/106/15 90/48/15 89/47/15 78/56/15 77/103/15
f 73/100/16 74/99/16 88/50/16 87/49/16
f 41/119/2 7/52/2 86/51/2 88/50/2 74/99/2 42/82/2 43/81/2
f 40/40/4 38/43/4 39/110/4 84/2/4 83/1/4 85/109/4 94/108/4 93/67/4 61/72/4 62/90/4 60/93/4
f 9/57/10 92/118/10 95/107/10 85/109/10 83/1/10 82/3/10 10/62/10 45/61/10 47/104/10 48/102/10 50/58/10
f 65/96/7 11/69/7 91/68/7 92/118/7 9/57/7 54/60/7 66/97/7
f 131/120/13 134/121/13 130/122/13
f 67/80/2 21/16/2 109/15/2 112/73/2
f 16/9/5 107/8/5 116/88/5 71/85/5
f 119/7/5 13/6/5 14/75/5 106/74/5 121/123/5
f 104/111/17 105/114/17 103/124/17
f 1/34/5 2/33/5 3/112/5 104/111/5 103/124/5
f 112/73/17 109/15/17 110/18/17 111/20/17 116/88/17 107/8/17 108/12/17 117/125/17 115/126/17 114/127/17 113/128/17 122/129/17 121/123/17 106/74/17
f 119/7/18 121/123/18 122/129/18 120/130/18 118/4/18
f 12/5/7 118/4/7 120/130/7 41/119/7 43/81/7
f 126/131/7 35/98/7 30/29/7 124/28/7 127/132/7
f 124/28/19 123/32/19 128/133/19 127/132/19
f 125/134/20 126/131/20 127/132/20 128/133/20
f 33/95/9 34/94/9 35/98/9 126/131/9 125/134/9
f 4/113/4 80/38/4 81/37/4 132/117/4 133/116/4 97/46/4 96/45/4
f 100/22/9 134/121/9 131/120/9 29/25/9 101/23/9
f 64/71/10 26/26/10 29/25/10 131/120/10 130/122/10 28/91/10 62/90/10 61/72/10
f 27/92/4 28/91/4 130/122/4 134/121/4 100/22/4 99/21/4
f 97/46/9 133/116/9 129/115/9 6/42/9 5/41/9 98/44/9
f 38/43/10 6/42/10 129/115/10 132/117/10 81/37/10 79/39/10 3/112/10 2/33/10 37/36/10 39/110/10
f 105/114/21 4/113/21 96/45/21 98/44/21 5/41/21 40/40/21 60/93/21 27/92/21 99/21/21 102/24/21 25/27/21 63/70/21 11/69/21 65/96/21 33/95/21 125/134/21 128/133/21 123/32/21 31/31/21 52/53/21 7/52/21 41/119/21 120/130/21 122/129/21 108/12/21 17/11/21 19/14/21 58/87/21 36/35/21 1/34/21 103/124/21
