# Blender v2.91.0 OBJ File: 'cristals.blend'
# www.blender.org
mtllib crystal_18.mtl
o crystal_18
v 1.128027 3.349715 1.507081
v -0.320594 3.349715 1.670719
v -0.604024 3.114076 1.507081
v -0.604024 3.114076 0.507081
v 1.128027 0.798120 1.507081
v -0.379562 0.357906 1.636675
v -0.604024 0.633360 1.396040
v 0.785884 3.588770 1.309545
v 0.008381 3.623219 1.408648
v 0.552884 3.625365 1.383588
v 0.603075 3.349715 0.204000
v -0.054457 3.570977 0.555456
v 0.572756 3.622244 0.636889
v 0.196872 3.681282 0.730665
v 0.078219 3.681282 0.730665
v 0.669354 3.349715 1.771896
v 0.262001 3.134281 2.007081
v -0.145352 3.349715 1.771896
v 0.409551 3.617110 1.479984
v 0.114451 3.617110 1.479984
v 0.541106 0.357906 1.845940
v 0.262001 0.846467 2.007081
v -0.027038 0.039242 1.413762
v -0.157898 0.085888 0.668421
v 0.087956 0.000000 1.170288
v 1.128027 3.349715 0.947574
v 1.128027 3.223662 0.507081
v 0.785884 3.588770 0.856972
v 0.921132 3.349715 0.387631
v 0.703073 3.601776 0.678301
v 0.348203 0.133560 0.389859
v 1.066202 0.438692 1.542776
v 0.698293 0.101697 1.508323
v 0.643872 0.039242 1.413762
v 0.638406 0.000000 1.170288
v 0.839194 0.099413 0.589388
v 0.319292 4.720640 0.029801
v -1.129329 4.720640 0.193440
v -1.412759 4.388562 0.029801
v -1.412759 4.388562 -0.970199
v -1.129329 4.720640 -1.133837
v -1.412759 0.892574 -0.970199
v -0.022851 5.057532 -0.167735
v -0.800354 5.106081 -0.068632
v -0.255851 5.109105 -0.093692
v -0.205660 4.720640 -1.273279
v -0.546734 4.545930 -1.470199
v -0.887808 4.720640 -1.273279
v -0.863192 5.032458 -0.921824
v -0.235979 5.104707 -0.840391
v -0.611862 5.187906 -0.746615
v -0.730516 5.187906 -0.746615
v -0.139381 4.720640 0.294616
v -0.546734 4.417037 0.529801
v -0.954087 4.720640 0.294616
v -0.399184 5.097471 0.002704
v -0.694284 5.097471 0.002705
v -0.981927 0.152365 0.037864
v -0.258149 0.188221 -1.087420
v -0.972406 0.131022 -0.850252
v -0.720779 0.000000 -0.306992
v 0.319292 4.720640 -0.529706
v 0.319292 4.542998 -0.970199
v -0.022851 5.057532 -0.620308
v 0.112397 4.720640 -1.089649
v -0.105662 5.075862 -0.798978
v -0.318515 0.504385 -1.338437
v -1.271849 0.648883 -1.051553
v -0.546734 0.863953 -1.470199
v -0.326834 0.383607 -1.260663
v -0.460532 0.188221 -1.087420
v -0.096271 0.162300 0.035840
v -0.170329 0.000000 -0.306992
v 0.030459 0.140100 -0.887891
v 1.421137 0.282357 -1.686414
v 1.110431 2.858411 -1.136429
v 0.466726 2.860104 -0.722777
v 1.787219 2.817196 -0.144382
v 0.968107 2.857642 0.198134
v 1.358649 2.904217 -0.180306
v 1.502763 2.904217 -0.263812
v 0.381220 2.472681 -1.684780
v 1.041503 2.642639 -1.685818
v 0.572972 2.853591 -0.940734
v 0.931395 2.853591 -1.148422
v 0.222125 0.248844 -1.308427
v 0.381220 0.667791 -1.684780
v 0.833624 0.282357 -1.685491
v 1.257737 0.081795 -1.388371
v 1.259296 0.065584 -1.338799
v 0.786854 0.248844 -1.635659
v 1.149852 0.030959 -1.167568
v 1.168890 0.105367 0.482569
v 1.819295 0.065584 -0.372364
v 1.181537 0.000000 -0.790917
v 0.554354 2.831233 0.080823
v 0.780681 2.841494 0.239551
v 1.418872 0.282357 0.744964
v 1.788794 0.483646 0.744382
v 1.374239 0.214745 0.644646
v 1.414701 0.105367 0.340135
v 0.202328 0.080230 -0.771942
v 0.334978 0.030959 -0.695390
v 0.512970 0.000000 -0.403517
v 0.677926 0.078429 0.443344
v 1.964865 2.456740 -1.376530
v 1.288050 2.680258 -1.590405
v 1.784971 2.195850 -1.686986
v 1.174047 2.642639 -1.686026
v 1.784971 1.321903 -1.686986
v 2.060596 0.499667 -1.211318
v 1.442562 0.295154 -1.686448
v 2.488758 1.476343 -0.472406
v 2.377333 0.499667 -0.664701
v 2.061623 0.427598 0.270107
v 2.213650 0.270767 -0.285191
v 1.984462 2.744322 -0.115074
v 2.303883 2.456740 -0.791460
v 2.488758 2.159774 -0.472406
v 1.788794 2.229144 0.744382
v 1.887228 2.754230 0.003350
v 1.158041 2.705175 0.586117
v 2.132727 2.505115 0.146504
v 1.985508 2.727923 -0.033139
v -0.074153 0.085888 0.079957
v 0.137546 0.258397 0.019846
v -2.035254 1.817939 0.079957
v -1.937842 1.817938 1.079957
v -1.973993 0.085888 1.079957
v -2.211327 0.085888 0.079957
v -2.148686 1.663108 0.974801
v -2.291567 1.644079 -0.020421
v -2.433053 0.275766 -0.029669
v -2.144374 0.951913 -0.420043
v -2.631009 0.758678 0.086525
v -2.434143 1.335996 -0.198293
v -1.801550 0.951913 1.579957
v -2.310615 0.456046 1.269152
v -2.476218 0.838776 1.167786
v -2.232961 1.408846 1.316147
v 0.319292 2.831233 -0.324842
v 0.319292 2.841668 -0.560640
v 0.773221 2.816885 0.302234
v 1.128027 2.734695 0.507081
v 1.128027 2.688344 0.629027
v 0.319292 2.782800 -0.861293
v 0.057200 2.639943 -1.121517
v 0.319292 2.761476 -0.970199
v -0.008353 0.282357 -1.007562
v 0.029851 0.169252 -0.737191
v 0.076669 0.196527 -0.899792
v 1.128027 0.798121 0.745421
v 1.128027 2.597237 0.745421
v 0.622524 0.115079 0.497848
v 0.541991 0.133560 0.389859
v 0.401015 0.188326 0.321426
v 1.017458 0.282357 0.745595
v -0.279984 3.383477 0.375794
v -0.075317 3.383477 0.257629
v -0.595055 3.121532 0.501903
v -0.582860 3.131672 0.508944
v -0.546734 3.161706 0.529801
v 0.035219 0.312382 -0.050810
v 0.271647 0.249805 0.319013
v 0.310323 3.243306 0.034980
v 0.057200 0.869835 -1.121517
v 0.057200 0.504385 -1.121517
v -0.054872 0.101599 0.576618
v -0.074152 0.085888 0.668421
v 0.913840 0.164093 0.570164
v -0.157898 0.085888 1.079957
v 0.706633 0.115097 0.497742
v -1.325887 1.817939 0.079957
v -0.604024 1.817938 0.507081
v -1.412759 0.951913 -0.420043
v -0.604024 1.817938 1.079957
v -0.595055 1.817938 0.501903
v -1.412759 1.731066 0.029801
v 0.442551 2.787243 0.111321
v 0.319292 2.761415 0.029801
v 0.310323 2.757348 0.034980
v -0.604024 1.615591 1.196783
v -0.604024 1.078138 1.507081
v -0.477799 0.951913 1.579957
v -0.604024 0.825688 1.507081
vt 0.539993 0.610129
vt 0.539993 0.610129
vt 0.545167 0.572319
vt 0.545167 0.572319
vt 0.529841 0.614611
vt 0.528237 0.615577
vt 0.523263 0.572319
vt 0.525913 0.572319
vt 0.527701 0.048727
vt 0.536292 0.099127
vt 0.522371 0.099127
vt 0.538669 0.058604
vt 0.544232 0.111905
vt 0.525723 0.056104
vt 0.529440 0.042520
vt 0.537763 0.042520
vt 0.537846 0.048727
vt 0.536771 0.615422
vt 0.538741 0.612186
vt 0.542038 0.572319
vt 0.537229 0.572319
vt 0.527765 0.842432
vt 0.527765 0.842432
vt 0.532938 0.789147
vt 0.532938 0.789147
vt 0.515059 0.838465
vt 0.514686 0.789147
vt 0.511035 0.789147
vt 0.517613 0.848749
vt 0.516009 0.850111
vt 0.511035 0.789147
vt 0.513684 0.789147
vt 0.513407 0.063242
vt 0.517212 0.042520
vt 0.513263 0.066620
vt 0.525535 0.042520
vt 0.526655 0.068190
vt 0.521147 0.072289
vt 0.523169 0.103194
vt 0.524207 0.072289
vt 0.524542 0.849893
vt 0.526513 0.845331
vt 0.529810 0.789147
vt 0.525001 0.789147
vt 0.547586 0.466436
vt 0.557820 0.431085
vt 0.555100 0.389821
vt 0.545862 0.460486
vt 0.547128 0.055458
vt 0.540008 0.081878
vt 0.540715 0.087180
vt 0.549598 0.087180
vt 0.555619 0.052894
vt 0.545976 0.042520
vt 0.545496 0.047419
vt 0.547151 0.052894
vt 0.535867 0.042520
vt 0.533175 0.047419
vt 0.549501 0.059185
vt 0.548889 0.076485
vt 0.545784 0.059185
vt 0.559267 0.121550
vt 0.549922 0.089203
vt 0.555100 0.251596
vt 0.565741 0.276022
vt 0.559283 0.110150
vt 0.561581 0.085345
vt 0.564056 0.121550
vt 0.555134 0.488094
vt 0.556646 0.478136
vt 0.558132 0.473977
vt 0.558116 0.476569
vt 0.493461 0.302552
vt 0.495621 0.305561
vt 0.498809 0.330051
vt 0.497337 0.330051
vt 0.490669 0.175183
vt 0.488329 0.162515
vt 0.491322 0.086135
vt 0.493173 0.114649
vt 0.545167 0.552382
vt 0.523877 0.577659
vt 0.527287 0.607316
vt 0.526972 0.577659
vt 0.529293 0.624760
vt 0.518977 0.535050
vt 0.519297 0.537832
vt 0.519113 0.536230
vt 0.519843 0.542583
vt 0.518977 0.535050
vt 0.518977 0.330051
vt 0.518977 0.330051
vt 0.518977 0.298046
vt 0.518977 0.213042
vt 0.532072 0.538245
vt 0.538231 0.572319
vt 0.534303 0.614611
vt 0.532802 0.555489
vt 0.531087 0.624760
vt 0.536470 0.615916
vt 0.518977 0.142693
vt 0.532072 0.176400
vt 0.518977 0.173113
vt 0.520886 0.193077
vt 0.536305 0.063644
vt 0.533375 0.063644
vt 0.534174 0.072306
vt 0.543495 0.087180
vt 0.540799 0.058244
vt 0.541928 0.068474
vt 0.545167 0.475046
vt 0.539802 0.488046
vt 0.534802 0.483357
vt 0.532802 0.478628
vt 0.545167 0.168753
vt 0.545167 0.168753
vt 0.545167 0.453305
vt 0.545167 0.467716
vt 0.519113 0.330051
vt 0.525723 0.056104
vt 0.538795 0.060723
vt 0.532218 0.082029
vt 0.527281 0.058589
vt 0.537523 0.060722
vt 0.526989 0.056104
vt 0.532938 0.761052
vt 0.517065 0.863053
vt 0.506749 0.736626
vt 0.506749 0.736626
vt 0.506749 0.183692
vt 0.506749 0.193077
vt 0.506749 0.316309
vt 0.519843 0.741129
vt 0.526003 0.789147
vt 0.522075 0.848749
vt 0.518859 0.863053
vt 0.519843 0.761515
vt 0.524242 0.850590
vt 0.508062 0.330051
vt 0.528562 0.069290
vt 0.528571 0.064679
vt 0.529269 0.073604
vt 0.528643 0.091927
vt 0.519843 0.179165
vt 0.528975 0.180095
vt 0.523294 0.122295
vt 0.532938 0.479282
vt 0.528975 0.460060
vt 0.528975 0.122295
vt 0.532938 0.479271
vt 0.532938 0.490316
vt 0.532938 0.491965
vt 0.532938 0.482654
vt 0.508879 0.145149
vt 0.527984 0.087180
vt 0.539915 0.491938
vt 0.536492 0.490316
vt 0.533874 0.433605
vt 0.536774 0.493851
vt 0.542193 0.493851
vt 0.543858 0.460486
vt 0.542748 0.494491
vt 0.548654 0.501859
vt 0.535167 0.494882
vt 0.544901 0.494614
vt 0.550833 0.501859
vt 0.531469 0.081878
vt 0.531170 0.055208
vt 0.533874 0.148139
vt 0.538361 0.054925
vt 0.530190 0.083390
vt 0.545620 0.470378
vt 0.560358 0.438736
vt 0.555158 0.395087
vt 0.549564 0.087180
vt 0.565741 0.384116
vt 0.562946 0.431085
vt 0.555158 0.119015
vt 0.526989 0.056104
vt 0.498263 0.056104
vt 0.494674 0.056104
vt 0.500870 0.193077
vt 0.494347 0.265347
vt 0.495687 0.193077
vt 0.491305 0.253824
vn 0.5727 0.8197 -0.0000
vn -0.2864 0.8197 0.4960
vn -0.1625 -0.6800 0.7150
vn 0.4717 -0.5827 0.6618
vn -0.3265 -0.9452 -0.0018
vn -0.0000 -0.9873 0.1591
vn 0.2864 0.8197 -0.4960
vn 0.7016 0.7126 -0.0000
vn -0.3508 0.7126 -0.6076
vn -0.3508 0.7126 0.6076
vn -0.4883 -0.8725 0.0157
vn 0.0069 -0.9086 0.4176
vn 0.0000 -0.6634 -0.7482
vn 0.3508 0.7126 -0.6076
vn 0.4124 0.5655 -0.7142
vn -0.0009 -0.8294 -0.5586
vn 0.1630 -0.9821 -0.0944
vn -0.0452 -0.9959 -0.0781
vn 0.2057 -0.9120 0.3549
vn 0.6389 -0.2134 -0.7391
vn 0.9380 -0.1668 0.3039
vn 0.3168 0.9308 0.1823
vn -0.5929 0.8028 0.0637
vn -0.9109 -0.3851 0.1482
vn 0.5972 0.7711 -0.2207
vn -0.2864 0.8197 -0.4960
vn -0.6393 0.7690 -0.0000
vn -1.0000 -0.0000 0.0000
vn 0.0000 0.7374 0.6755
vn 0.0000 0.8463 -0.5328
vn 0.1552 0.9879 0.0000
vn 0.0000 0.9964 0.0853
vn -0.5970 0.1937 0.7785
vn -0.4995 -0.0203 0.8661
vn -0.5000 0.0000 0.8660
vn 0.2864 0.8197 0.4960
vn -0.2023 -0.4090 0.8898
vn 0.0000 -0.7808 -0.6248
vn 0.6665 -0.7382 0.1040
vn 0.5000 0.0000 -0.8660
vn 1.0000 0.0000 0.0000
vn -0.5000 0.0000 -0.8660
vn -0.6826 -0.7292 0.0486
vn 0.3839 -0.6407 -0.6649
vn -0.2853 -0.6288 -0.7234
vn 0.0000 -0.9857 -0.1687
vn 0.0000 -0.8344 0.5511
vn -0.0097 -0.7987 0.6016
vn 0.9776 -0.2096 -0.0187
vn 0.9855 -0.1695 0.0000
vn 0.5000 -0.0000 0.8660
vn 0.7114 0.6518 -0.2629
vn -0.7606 0.6492 -0.0000
vn 0.0000 0.6124 0.7906
vn 0.0000 0.6124 0.7905
vn 0.0000 0.7480 -0.6637
vn 0.2161 0.9764 -0.0000
vn 0.0000 0.9928 0.1198
vn -0.5000 0.0015 0.8660
vn 0.3508 0.7126 0.6076
vn 0.7804 -0.6134 0.1218
vn -0.8859 -0.4633 0.0246
vn -0.8562 -0.5136 0.0554
vn -0.8662 -0.4998 0.0027
vn 0.4302 -0.5095 -0.7452
vn -0.3182 -0.4977 -0.8069
vn 0.0000 -0.9721 -0.2345
vn -0.2685 0.9071 0.3242
vn -0.3162 0.9308 0.1832
vn -0.2295 0.8891 -0.3960
vn -0.0761 0.9961 0.0441
vn -0.0241 0.9988 -0.0416
vn -0.3168 0.9308 -0.1823
vn -0.3158 0.9300 -0.1881
vn -0.4842 -0.8294 -0.2786
vn -0.4324 -0.5062 -0.7462
vn -0.4258 -0.8896 0.1653
vn -0.4405 -0.8821 0.1665
vn 0.4025 0.7209 0.5643
vn 0.0009 -0.8294 0.5586
vn 0.0480 -0.9954 0.0828
vn -0.1745 -0.9375 -0.3011
vn -0.8668 0.0000 -0.4986
vn -0.8253 -0.1309 -0.5493
vn -0.0006 0.9308 -0.3655
vn 0.7852 0.6090 0.1119
vn -0.0016 -0.0000 -1.0000
vn 0.4474 -0.8211 0.3544
vn 0.4510 -0.8395 0.3030
vn 0.3720 -0.8617 0.3452
vn 0.4912 -0.8232 -0.2846
vn 0.8652 0.0000 -0.5014
vn 0.3663 0.9060 -0.2122
vn 0.1672 0.9427 0.2886
vn 0.8668 -0.0000 0.4986
vn 0.0023 0.9297 0.3682
vn -0.0162 0.9346 0.3552
vn 0.0016 -0.0000 1.0000
vn 0.6317 -0.7752 -0.0000
vn 0.2996 -0.9403 -0.1613
vn 0.0000 1.0000 0.0000
vn -0.0000 -1.0000 -0.0000
vn -0.5214 0.0004 0.8533
vn -0.6944 -0.1137 -0.7105
vn -0.9242 0.3670 0.1051
vn 0.0000 0.5000 -0.8660
vn 0.1717 -0.5535 -0.8150
vn -0.0020 -0.5039 -0.8638
vn 0.0000 -0.5000 -0.8660
vn 0.0000 -0.4970 -0.8678
vn -0.6870 -0.7081 0.1631
vn 0.0000 0.5000 0.8660
vn -0.6606 0.6710 0.3367
vn 0.0000 -0.5000 0.8660
vn -0.0519 -0.4915 0.8693
vn -0.9102 0.3992 0.1102
usemtl Material.004
s off
f 28/1/1 8/2/1 1/3/1 26/4/1
f 20/5/2 9/6/2 2/7/2 18/8/2
f 23/9/3 21/10/3 6/11/3
f 33/12/4 32/13/4 21/10/4
f 24/14/5 25/15/5 23/9/5
f 35/16/6 34/17/6 23/9/6 25/15/6
f 13/18/7 30/19/7 29/20/7 11/21/7
f 64/22/8 43/23/8 37/24/8 62/25/8
f 49/26/9 48/27/9 41/28/9
f 57/29/10 44/30/10 38/31/10 55/32/10
f 60/33/11 61/34/11 58/35/11
f 73/36/12 72/37/12 58/35/12 61/34/12
f 71/38/13 70/39/13 59/40/13
f 50/41/14 66/42/14 65/43/14 46/44/14
f 107/45/15 106/46/15 108/47/15 109/48/15
f 89/49/16 91/50/16 88/51/16 75/52/16
f 94/53/17 95/54/17 92/55/17 90/56/17
f 104/57/18 103/58/18 92/55/18 95/54/18
f 101/59/19 100/60/19 93/61/19
f 111/62/20 112/63/20 110/64/20
f 113/65/21 115/66/21 116/67/21 114/68/21
f 78/69/22 121/70/22 124/71/22 117/72/22
f 132/73/23 131/74/23 128/75/23 127/76/23
f 139/77/24 135/78/24 133/79/24 138/80/24
f 26/4/25 27/81/25 29/20/25
f 30/19/25 28/1/25 29/20/25
f 28/1/25 26/4/25 29/20/25
f 158/82/26 12/83/26 159/84/26
f 15/85/27 12/83/27 9/6/27
f 4/86/27 161/87/27 160/88/27
f 12/83/27 158/82/27 162/89/27
f 9/6/27 12/83/27 2/7/27
f 4/86/27 3/90/27 12/83/27 162/89/27 161/87/27
f 2/7/27 12/83/27 3/90/27
f 3/90/28 4/86/28 174/91/28 176/92/28 182/93/28 183/94/28
f 18/8/29 17/95/29 16/96/29
f 19/97/29 18/8/29 16/96/29
f 20/5/29 18/8/29 19/97/29
f 12/83/30 11/21/30 165/98/30 159/84/30
f 12/83/30 15/85/30 14/99/30
f 12/83/30 14/99/30 13/18/30
f 12/83/30 13/18/30 11/21/30
f 30/19/31 13/18/31 28/1/31
f 13/18/31 14/99/31 28/1/31
f 14/99/31 10/100/31 28/1/31
f 28/1/31 10/100/31 8/2/31
f 9/6/32 19/97/32 10/100/32
f 14/99/32 9/6/32 10/100/32
f 15/85/32 9/6/32 14/99/32
f 9/6/32 20/5/32 19/97/32
f 7/101/33 6/11/33 22/102/33
f 185/103/34 7/101/34 22/102/34 17/95/34 3/90/34 183/94/34 184/104/34
f 18/8/35 3/90/35 17/95/35
f 2/7/35 3/90/35 18/8/35
f 8/2/36 16/96/36 1/3/36
f 10/100/36 16/96/36 8/2/36
f 10/100/36 19/97/36 16/96/36
f 22/102/37 6/11/37 21/10/37
f 155/105/38 31/106/38 156/107/38
f 157/108/39 35/16/39 36/109/39 170/110/39
f 32/13/39 35/16/39 157/108/39
f 32/13/39 33/12/39 35/16/39
f 33/12/39 34/17/39 35/16/39
f 165/98/40 11/21/40 27/81/40
f 29/20/40 27/81/40 11/21/40
f 165/98/40 27/81/40 144/111/40 143/112/40 179/113/40 181/114/40
f 144/111/41 27/81/41 1/3/41 5/115/41 152/116/41 153/117/41 145/118/41
f 26/4/41 1/3/41 27/81/41
f 177/119/42 174/91/42 4/86/42 160/88/42
f 24/14/43 23/9/43 6/11/43 7/101/43 171/120/43
f 36/109/44 172/121/44 170/110/44
f 31/106/45 164/122/45 156/107/45
f 168/123/45 164/122/45 31/106/45
f 35/16/46 31/106/46 155/105/46
f 36/109/46 35/16/46 155/105/46 154/124/46 172/121/46
f 31/106/46 35/16/46 25/15/46
f 31/106/46 25/15/46 24/14/46 169/125/46 168/123/46
f 34/17/47 33/12/47 23/9/47
f 23/9/48 33/12/48 21/10/48
f 32/13/49 157/108/49 152/116/49
f 152/116/50 5/115/50 32/13/50
f 21/10/51 32/13/51 5/115/51
f 16/96/51 17/95/51 1/3/51
f 17/95/51 22/102/51 5/115/51 1/3/51
f 22/102/51 21/10/51 5/115/51
f 62/25/52 63/126/52 65/43/52
f 66/42/52 64/22/52 65/43/52
f 64/22/52 62/25/52 65/43/52
f 52/127/53 49/26/53 44/30/53
f 49/26/53 41/28/53 38/31/53
f 44/30/53 49/26/53 38/31/53
f 40/128/53 39/129/53 38/31/53 41/28/53
f 39/129/28 40/128/28 42/130/28 175/131/28 178/132/28
f 55/32/54 54/133/54 53/134/54
f 56/135/55 55/32/55 53/134/55
f 57/29/55 55/32/55 56/135/55
f 49/26/56 46/44/56 48/27/56
f 52/127/56 51/136/56 49/26/56
f 51/136/56 50/41/56 49/26/56
f 50/41/56 46/44/56 49/26/56
f 48/27/56 46/44/56 47/137/56
f 66/42/57 50/41/57 64/22/57
f 50/41/57 51/136/57 64/22/57
f 51/136/57 45/138/57 64/22/57
f 64/22/57 45/138/57 43/23/57
f 44/30/58 56/135/58 45/138/58
f 51/136/58 44/30/58 45/138/58
f 52/127/58 44/30/58 51/136/58
f 44/30/58 57/29/58 56/135/58
f 162/89/59 54/133/59 39/129/59 178/132/59 173/139/59 174/91/59 177/119/59 160/88/59 161/87/59
f 55/32/35 39/129/35 54/133/35
f 38/31/35 39/129/35 55/32/35
f 43/23/60 53/134/60 37/24/60
f 45/138/60 53/134/60 43/23/60
f 45/138/60 56/135/60 53/134/60
f 150/140/61 73/36/61 74/141/61 151/142/61
f 72/37/61 150/140/61 163/143/61
f 72/37/61 73/36/61 150/140/61
f 69/144/40 166/145/40 67/146/40
f 166/145/40 69/144/40 47/137/40 63/126/40 148/147/40 147/148/40
f 46/44/40 63/126/40 47/137/40
f 65/43/40 63/126/40 46/44/40
f 167/149/40 67/146/40 166/145/40
f 148/147/41 63/126/41 37/24/41 180/150/41 141/151/41 142/152/41 146/153/41
f 62/25/41 37/24/41 63/126/41
f 42/130/42 69/144/42 68/154/42
f 40/128/42 47/137/42 69/144/42 42/130/42
f 41/28/42 48/27/42 40/128/42
f 48/27/42 47/137/42 40/128/42
f 175/131/62 68/154/62 58/35/62
f 42/130/63 68/154/63 175/131/63
f 58/35/64 68/154/64 60/33/64
f 74/141/65 59/40/65 149/155/65 151/142/65
f 70/39/65 149/155/65 59/40/65
f 67/146/65 167/149/65 149/155/65 70/39/65
f 68/154/66 67/146/66 70/39/66
f 68/154/66 70/39/66 71/38/66
f 68/154/66 71/38/66 60/33/66
f 69/144/66 67/146/66 68/154/66
f 59/40/67 73/36/67 71/38/67
f 59/40/67 74/141/67 73/36/67
f 71/38/67 73/36/67 61/34/67
f 60/33/67 71/38/67 61/34/67
f 180/150/51 37/24/51 54/133/51 162/89/51 158/82/51 159/84/51 165/98/51 181/114/51
f 53/134/51 54/133/51 37/24/51
f 143/112/68 97/156/68 96/157/68 179/113/68
f 179/113/69 96/157/69 141/151/69 180/150/69 181/114/69
f 82/158/70 147/148/70 84/159/70
f 82/158/70 84/159/70 85/160/70
f 82/158/70 85/160/70 83/161/70
f 96/157/71 97/156/71 79/162/71
f 96/157/71 79/162/71 80/163/71
f 77/164/71 96/157/71 80/163/71
f 96/157/71 77/164/71 142/152/71 141/151/71
f 84/159/72 77/164/72 76/165/72
f 76/165/72 77/164/72 80/163/72
f 76/165/72 80/163/72 81/166/72
f 85/160/72 84/159/72 76/165/72
f 146/153/73 142/152/73 77/164/73
f 77/164/74 84/159/74 147/148/74 148/147/74 146/153/74
f 151/142/75 149/155/75 86/167/75 102/168/75 150/140/75
f 87/169/76 88/51/76 91/50/76
f 87/169/76 91/50/76 86/167/76
f 104/57/77 105/170/77 154/124/77 155/105/77 156/107/77
f 163/143/78 150/140/78 104/57/78 156/107/78 164/122/78 126/171/78
f 102/168/77 104/57/77 150/140/77
f 103/58/77 104/57/77 102/168/77
f 121/70/79 122/172/79 123/173/79
f 120/174/79 122/172/79 145/118/79 153/117/79
f 122/172/79 120/174/79 123/173/79
f 124/71/79 121/70/79 123/173/79
f 105/170/80 93/61/80 170/110/80 172/121/80 154/124/80
f 170/110/80 93/61/80 100/60/80 157/108/80
f 157/108/80 100/60/80 98/175/80
f 104/57/81 101/59/81 93/61/81
f 104/57/81 93/61/81 105/170/81
f 95/54/81 101/59/81 104/57/81
f 95/54/81 94/53/81 101/59/81
f 91/50/82 89/49/82 92/55/82
f 89/49/82 90/56/82 92/55/82
f 86/167/82 92/55/82 103/58/82
f 86/167/82 103/58/82 102/168/82
f 91/50/82 92/55/82 86/167/82
f 87/169/83 167/149/83 166/145/83 147/148/83 82/158/83
f 167/149/84 87/169/84 86/167/84 149/155/84
f 83/161/85 85/160/85 76/165/85
f 83/161/85 76/165/85 107/45/85
f 109/48/85 83/161/85 107/45/85
f 124/71/86 123/173/86 117/72/86
f 123/173/86 119/176/86 118/177/86
f 117/72/86 123/173/86 118/177/86
f 87/169/87 112/63/87 88/51/87
f 82/158/87 108/47/87 110/64/87 87/169/87
f 83/161/87 108/47/87 82/158/87
f 109/48/87 108/47/87 83/161/87
f 87/169/87 110/64/87 112/63/87
f 88/51/87 112/63/87 75/52/87
f 100/60/88 99/178/88 98/175/88
f 101/59/88 99/178/88 100/60/88
f 94/53/89 115/66/89 101/59/89
f 94/53/90 116/67/90 115/66/90
f 101/59/88 115/66/88 99/178/88
f 75/52/91 112/63/91 89/49/91
f 112/63/91 111/62/91 90/56/91
f 111/62/91 114/68/91 94/53/91
f 94/53/91 114/68/91 116/67/91
f 90/56/91 111/62/91 94/53/91
f 89/49/91 112/63/91 90/56/91
f 113/65/92 111/62/92 110/64/92
f 110/64/92 108/47/92 119/176/92 113/65/92
f 106/46/92 119/176/92 108/47/92
f 118/177/92 119/176/92 106/46/92
f 113/65/92 114/68/92 111/62/92
f 81/166/93 78/69/93 118/177/93
f 78/69/93 117/72/93 118/177/93
f 106/46/93 81/166/93 118/177/93
f 107/45/93 76/165/93 106/46/93
f 76/165/93 81/166/93 106/46/93
f 78/69/94 80/163/94 121/70/94
f 81/166/94 80/163/94 78/69/94
f 122/172/94 80/163/94 79/162/94 144/111/94
f 80/163/94 122/172/94 121/70/94
f 99/178/95 115/66/95 113/65/95
f 123/173/95 120/174/95 119/176/95
f 120/174/95 99/178/95 113/65/95 119/176/95
f 79/162/96 97/156/96 143/112/96 144/111/96
f 122/172/97 144/111/97 145/118/97
f 152/116/98 98/175/98 99/178/98
f 152/116/98 99/178/98 120/174/98 153/117/98
f 157/108/98 98/175/98 152/116/98
f 168/123/99 169/125/99 125/179/99 126/171/99
f 168/123/100 126/171/100 164/122/100
f 127/76/101 128/75/101 174/91/101 173/139/101
f 129/180/102 125/179/102 169/125/102 24/14/102 171/120/102
f 130/181/102 125/179/102 129/180/102
f 139/77/103 138/80/103 137/182/103
f 140/183/103 139/77/103 137/182/103
f 135/78/104 134/184/104 133/79/104
f 136/185/104 134/184/104 135/78/104
f 140/183/105 136/185/105 135/78/105 139/77/105
f 132/73/106 134/184/106 136/185/106
f 132/73/106 127/76/106 134/184/106
f 127/76/106 173/139/106 178/132/106 175/131/106 134/184/106
f 126/171/107 125/179/107 72/37/107 163/143/107
f 72/37/108 125/179/108 130/181/108 134/184/108 58/35/108
f 133/79/109 134/184/109 130/181/109
f 175/131/110 58/35/110 134/184/110
f 129/180/111 133/79/111 130/181/111
f 138/80/111 133/79/111 129/180/111
f 182/93/112 176/92/112 128/75/112 137/182/112
f 131/74/113 140/183/113 128/75/113
f 128/75/112 140/183/112 137/182/112
f 137/182/112 184/104/112 183/94/112 182/93/112
f 185/103/114 184/104/114 137/182/114 129/180/114
f 138/80/115 129/180/115 137/182/115
f 129/180/114 171/120/114 7/101/114 185/103/114
f 174/91/101 128/75/101 176/92/101
f 132/73/116 136/185/116 140/183/116 131/74/116
