# Blender v2.91.0 OBJ File: 'cristals.blend'
# www.blender.org
mtllib crystal_23.mtl
o crystal_23
v -0.225709 2.131728 -0.603620
v -0.481438 1.870638 -0.749955
v -0.454704 1.973687 0.669373
v -0.428372 2.119774 0.314841
v 0.967723 1.916275 0.609690
v 0.701354 2.123509 0.630467
v 0.929570 2.065960 -0.708895
v 0.607346 1.176520 -1.528088
v -0.152562 1.448521 0.729895
v 1.263039 1.167297 -1.114923
v 1.156841 1.197235 -1.575621
v 1.285752 1.209989 -1.424838
v -0.080933 1.932679 -0.757609
v 0.833703 2.122835 -0.550717
v -1.163457 0.032302 -1.965864
v -0.462147 1.028285 -1.959141
v -1.183835 0.999995 -1.973442
v -1.616005 0.030431 -0.092907
v -1.589900 0.005099 -1.195433
v -1.799120 0.018419 0.009163
v -1.780069 0.733708 0.009780
v 0.961982 1.627210 -0.625524
v 0.053702 1.419281 1.710776
v 1.826198 0.429927 0.418809
v 1.972407 0.963194 1.016997
v 2.004413 0.005100 1.330011
v 1.315763 1.098493 0.367027
v 2.003810 0.011366 0.365578
v 1.031797 1.383544 1.640416
v 1.392439 1.068945 0.668117
v -0.307915 0.315538 1.555994
v -0.565036 0.797441 1.375501
v 1.411271 0.704605 0.222165
v 1.306742 1.121552 -0.505353
v 1.268039 0.744971 -0.038399
v -0.299137 0.681955 1.553748
v 1.266450 0.015781 0.329858
v 1.238711 1.434149 1.422009
v 0.823471 1.079845 1.816539
v 1.218284 0.590570 1.799449
v 2.004335 1.015299 1.330016
v 1.307693 0.018379 1.349676
v -0.149636 1.439748 1.461880
v -0.164586 0.673746 1.808349
v -0.163225 0.040841 1.800480
v -0.679275 0.020506 1.376573
v -0.949895 1.130324 1.205042
v -0.968399 0.899884 1.218983
v -1.002347 0.886307 0.701235
v -1.572018 0.840602 1.396011
v -1.679320 0.372454 1.363407
v -1.816026 0.010371 1.383318
v -1.559117 1.432529 0.562541
v -1.571418 0.911209 0.604213
v -1.604700 0.901661 -0.087227
v -1.807291 0.829887 0.680752
v -1.561933 1.433747 -1.156456
v -0.271063 1.250998 -1.237143
v 0.336668 0.029079 -1.635710
v 0.236009 0.040839 -1.871260
v 0.993922 1.294499 -0.775394
v 1.083136 1.481602 -0.347962
v 1.254940 1.453217 -0.105482
v 0.256401 0.483800 -1.992195
v 0.393285 0.936857 -1.628846
v 1.302172 0.014738 -1.619410
v 0.173142 1.035149 -1.955961
v 0.113238 1.214684 -1.013339
v 0.808214 1.481822 -0.770082
v -0.206539 1.543407 -0.800141
v -0.259750 1.205136 -1.531491
v -0.494711 1.682188 0.580163
v -0.600313 1.439735 -1.147360
v -0.489340 1.608289 -0.691347
v -1.200634 1.119827 -1.219553
v -0.690669 1.467463 -0.740369
v -0.629786 1.544008 0.344671
v 0.140598 1.167819 -1.627858
v -1.176584 1.023067 -1.354589
v 0.208736 1.477864 0.959147
v 0.206658 1.632576 0.711488
v 0.909679 1.537491 0.699639
v 0.982580 1.597239 0.582262
v 1.250715 1.455954 0.790935
v -0.452013 1.150323 1.192712
v -0.274398 1.239551 1.232275
v -0.424784 1.190022 0.724362
v -0.209781 0.049840 1.389373
v -0.957080 1.185605 0.649506
v -0.617548 1.466977 0.538559
v -1.205830 0.005099 -1.195433
v 1.346895 1.024716 1.323141
v 1.262426 0.005099 1.822119
vt 0.531043 0.952396
vt 0.531806 0.927658
vt 0.523771 0.869688
vt 0.522772 0.700371
vt 0.520586 0.842702
vt 0.530962 0.498744
vt 0.524841 0.646381
vt 0.523105 0.322109
vt 0.522619 0.956263
vt 0.529991 0.952690
vt 0.525315 0.557392
vt 0.534457 0.536779
vt 0.533613 0.549802
vt 0.521008 0.951065
vt 0.520523 0.728591
vt 0.523201 0.659101
vt 0.522232 0.568209
vt 0.523224 0.655285
vt 0.520480 0.760735
vt 0.520799 0.887524
vt 0.526057 0.739156
vt 0.526074 0.671864
vt 0.532109 0.862552
vt 0.532063 0.736823
vt 0.521037 0.546665
vt 0.533027 0.673489
vt 0.532317 0.592107
vt 0.525532 0.537008
vt 0.529243 0.540792
vt 0.540098 0.448005
vt 0.540353 0.031277
vt 0.540348 0.034003
vt 0.534805 0.516883
vt 0.534638 0.555351
vt 0.532227 0.723785
vt 0.534877 0.506854
vt 0.534393 0.661143
vt 0.534359 0.662333
vt 0.534768 0.035469
vt 0.531647 0.697799
vt 0.527541 0.436550
vt 0.515163 0.043109
vt 0.514826 0.031277
vt 0.515001 0.464011
vt 0.525791 0.479302
vt 0.526453 0.239490
vt 0.526291 0.046822
vt 0.538935 0.216057
vt 0.535636 0.335530
vt 0.520739 0.476317
vt 0.515058 0.474048
vt 0.530841 0.673584
vt 0.532618 0.630838
vt 0.534497 0.353086
vt 0.534484 0.035923
vt 0.534101 0.285931
vt 0.535486 0.494002
vt 0.540352 0.470668
vt 0.534264 0.652848
vt 0.511654 0.421240
vt 0.511564 0.042295
vt 0.510260 0.348189
vt 0.510043 0.390024
vt 0.510108 0.037070
vt 0.534453 0.031277
vt 0.534812 0.037053
vt 0.511994 0.652674
vt 0.512017 0.652144
vt 0.535124 0.474764
vt 0.519504 0.667129
vt 0.522259 0.573185
vt 0.519641 0.655279
vt 0.514867 0.516133
vt 0.511772 0.031277
vt 0.518922 0.667340
vt 0.516804 0.544744
vt 0.511919 0.425394
vt 0.516444 0.414563
vt 0.509974 0.033570
vt 0.511061 0.191060
vt 0.511914 0.394684
vt 0.519013 0.037978
vt 0.516714 0.420468
vt 0.519921 0.375909
vt 0.520820 0.529397
vt 0.516861 0.520699
vt 0.522746 0.050737
vt 0.523116 0.046823
vt 0.521966 0.166304
vt 0.522035 0.325679
vt 0.527091 0.041706
vt 0.522349 0.553239
vt 0.519406 0.700632
vn -0.1018 0.9149 -0.3907
vn -0.0376 0.1205 -0.9920
vn -0.0696 0.1495 0.9863
vn 0.0440 0.6311 -0.7744
vn 0.0084 1.0000 0.0004
vn 0.0459 0.9975 0.0542
vn -0.1026 0.5609 -0.8215
vn -0.9984 0.0391 0.0406
vn -0.6679 0.7314 -0.1378
vn -0.8536 0.5209 0.0097
vn -0.9899 0.1406 -0.0156
vn -0.9897 0.1425 -0.0125
vn 0.0139 0.1491 0.9887
vn 0.0042 0.9969 0.0786
vn -0.1070 0.9221 0.3720
vn -0.0065 0.9999 0.0116
vn -0.0060 0.1111 0.9938
vn -0.4996 -0.1901 0.8451
vn 0.5958 0.7998 0.0735
vn 0.9973 0.0697 -0.0209
vn -0.6839 0.7174 0.1325
vn 0.9311 0.2204 -0.2908
vn -0.2470 0.2400 0.9388
vn -0.3766 0.7843 0.4931
vn -0.0887 0.9960 0.0123
vn -0.0023 0.9971 -0.0761
vn 0.9994 0.0333 -0.0004
vn -0.3951 0.9135 0.0969
vn -0.2314 0.9659 0.1161
vn 0.6159 0.7848 0.0686
vn 0.9987 0.0479 -0.0158
vn 0.9847 0.1743 0.0041
vn 0.9996 0.0172 -0.0212
vn 0.0766 0.8685 0.4897
vn 0.1661 0.9861 -0.0022
vn 0.4979 0.8656 -0.0538
vn 0.7500 0.1163 -0.6511
vn 0.0546 0.0437 -0.9976
vn -0.0937 0.4558 -0.8851
vn -0.9982 -0.0215 -0.0557
vn 0.0111 0.0672 -0.9977
vn 0.0666 -0.2656 -0.9618
vn -0.0159 -0.0082 -0.9998
vn 0.5953 0.4005 -0.6966
vn 0.1998 0.2227 -0.9542
vn -0.0006 0.4624 -0.8866
vn -0.0384 0.9986 -0.0368
vn 0.6853 0.6037 -0.4073
vn 0.3891 0.4091 -0.8254
vn 0.7660 0.6429 0.0029
vn 0.4613 0.8866 0.0335
vn 0.7209 -0.0776 -0.6887
vn -0.9995 0.0304 0.0106
vn 0.0804 0.4582 0.8852
vn 0.9940 0.0284 0.1053
vn 0.7544 0.3875 -0.5298
vn 0.8310 -0.2522 -0.4959
vn 0.3672 0.2652 0.8916
vn 0.9886 0.0662 0.1353
vn 0.0046 -0.0312 0.9995
vn 0.9006 0.3904 -0.1910
vn 0.6820 0.6039 -0.4125
vn 0.1438 0.9878 0.0603
vn 0.8416 0.3541 -0.4078
vn 0.9948 0.0001 -0.1015
vn 0.6691 0.4660 -0.5790
vn 0.0068 0.9968 0.0791
vn 0.9924 0.0067 -0.1227
vn 0.2832 0.9410 -0.1855
vn 0.0548 0.9601 0.2744
vn 0.3024 -0.2090 -0.9300
vn 0.6590 0.2938 0.6924
vn -0.4928 0.0121 -0.8700
vn -0.7281 0.2942 0.6191
vn -0.9987 0.0266 -0.0443
vn 0.9922 0.0786 0.0973
vn -0.9965 0.0835 0.0017
vn 0.9121 0.1488 0.3819
vn -0.4875 0.0137 -0.8730
vn -0.0365 0.9993 0.0008
vn -0.0477 0.9917 -0.1193
vn 0.3906 0.7374 -0.5511
vn 0.2910 0.7747 -0.5614
vn -0.0649 0.3340 -0.9403
vn 0.0080 0.2059 -0.9785
vn -0.1467 0.0298 -0.9887
vn -0.0399 0.9992 0.0027
vn -0.1568 0.1912 0.9689
vn -0.9996 0.0131 -0.0240
vn -0.9993 0.0204 -0.0298
vn -0.7218 0.6804 -0.1268
vn -0.3252 0.9456 0.0026
vn -0.0056 0.9976 -0.0692
vn -0.1096 0.0818 0.9906
vn -0.9985 0.0274 0.0477
vn -0.8540 0.3439 0.3905
vn -0.9330 0.1927 0.3040
vn 0.0055 0.0529 0.9986
vn -0.9999 0.0001 -0.0123
vn -0.0694 0.9974 -0.0216
vn 0.0474 0.8873 0.4587
vn -0.1998 0.5004 0.8424
vn -0.0375 0.9943 0.0994
vn 0.0224 0.0586 0.9980
vn -0.9945 0.0837 0.0630
vn -0.9876 0.1542 0.0281
vn -0.0200 0.9963 0.0833
vn 0.0203 -0.0016 0.9998
vn -0.0348 -0.0615 0.9975
vn -0.9131 -0.3966 0.0947
vn 0.9718 -0.0317 0.2335
vn -0.0101 0.0267 0.9996
vn 0.0136 0.9976 0.0683
vn -0.0142 0.0376 0.9992
vn 0.9682 0.2357 0.0832
vn 0.0487 0.1463 -0.9880
vn 0.0282 -0.0000 0.9996
vn -0.4453 0.0162 0.8952
vn 0.0057 -0.0124 0.9999
vn -0.3124 0.5139 0.7990
vn 0.0099 -0.5286 0.8488
vn -0.4570 0.8881 0.0487
vn -0.0707 0.7847 0.6159
vn -0.5311 0.0793 0.8436
vn -0.8584 0.2252 0.4609
vn -0.4099 0.4692 0.7822
vn -0.9247 0.2201 0.3106
vn -0.8485 0.0236 0.5286
vn -0.0932 0.9955 0.0157
vn -0.8842 -0.0077 0.4670
vn 0.9416 0.3355 0.0295
vn 0.9172 -0.0542 -0.3947
vn 0.0170 0.0065 -0.9998
vn 0.9996 -0.0226 0.0183
vn 0.0082 0.9385 -0.3451
vn 0.0352 0.0969 -0.9947
vn 0.2306 0.2552 -0.9390
vn 0.0594 0.5832 -0.8101
vn 0.0354 0.0973 -0.9946
vn 0.9671 -0.1074 -0.2304
vn -0.2378 0.9322 -0.2730
vn 0.8405 0.1609 -0.5173
vn -0.0081 0.9268 -0.3756
vn 0.6568 0.7195 -0.2258
vn -0.0053 0.9250 -0.3800
vn 0.2243 0.1925 0.9553
vn 0.8507 -0.0056 0.5255
vn 0.2228 0.9741 0.0379
vn -0.0271 0.9878 0.1537
vn -0.1235 0.7961 -0.5924
vn 0.1228 0.8422 0.5251
vn -0.6743 0.7370 -0.0457
vn -0.5687 0.8221 -0.0261
vn -0.2216 0.9622 -0.1584
vn 0.0555 0.9869 -0.1516
vn 0.1338 0.9886 -0.0694
vn -0.9844 0.0008 -0.1759
vn -0.1868 0.5503 -0.8138
vn -0.3901 -0.1895 -0.9010
vn -0.5563 0.1599 0.8155
vn 0.0342 0.1291 0.9910
vn -0.8634 0.4479 0.2324
vn -0.1666 0.9805 -0.1038
vn -0.9983 -0.0150 0.0571
vn -0.1253 0.4911 0.8620
vn 0.0108 0.3555 0.9346
vn 0.0000 -0.0216 -0.9998
vn -0.0019 -1.0000 -0.0015
usemtl Material.004
s off
f 14/1/1 7/2/1 13/3/1
f 13/3/2 70/4/2 2/5/2
f 39/6/3 23/7/3 44/8/3
f 1/9/4 14/1/4 13/3/4
f 1/9/5 6/10/5 14/1/5
f 68/11/6 10/12/6 11/13/6
f 1/9/7 13/3/7 2/5/7
f 4/14/8 2/5/8 74/15/8
f 2/5/9 4/14/9 1/9/9
f 9/16/10 86/17/10 43/18/10
f 4/14/11 72/19/11 3/20/11
f 4/14/12 74/15/12 72/19/12
f 6/10/13 3/20/13 81/21/13
f 43/18/14 23/7/14 80/22/14
f 3/20/15 6/10/15 4/14/15
f 6/10/16 1/9/16 4/14/16
f 3/20/17 9/16/17 81/21/17
f 9/16/18 3/20/18 72/19/18
f 7/2/19 14/1/19 5/23/19
f 22/24/20 7/2/20 5/23/20
f 9/16/21 87/25/21 86/17/21
f 62/26/22 61/27/22 22/24/22
f 87/25/23 9/16/23 72/19/23
f 81/21/24 9/16/24 80/22/24
f 80/22/25 9/16/25 43/18/25
f 78/28/26 68/11/26 8/29/26
f 25/30/27 26/31/27 28/32/27
f 34/33/28 12/34/28 10/12/28
f 10/12/29 12/34/29 11/13/29
f 6/10/30 5/23/30 14/1/30
f 5/23/31 83/35/31 22/24/31
f 27/36/32 63/37/32 84/38/32
f 66/39/33 12/34/33 34/33/33
f 82/40/34 84/38/34 83/35/34
f 62/26/35 84/38/35 63/37/35
f 62/26/36 83/35/36 84/38/36
f 12/34/37 66/39/37 11/13/37
f 11/13/38 66/39/38 65/41/38
f 11/13/39 65/41/39 8/29/39
f 15/42/40 91/43/40 17/44/40
f 17/44/41 67/45/41 64/46/41
f 60/47/42 15/42/42 64/46/42
f 17/44/43 64/46/43 15/42/43
f 27/36/44 24/48/44 33/49/44
f 8/29/45 65/41/45 78/28/45
f 67/45/46 17/44/46 16/50/46
f 16/50/47 17/44/47 79/51/47
f 62/26/48 34/33/48 61/27/48
f 61/27/49 69/52/49 22/24/49
f 22/24/50 83/35/50 62/26/50
f 10/12/51 61/27/51 34/33/51
f 69/52/52 7/2/52 22/24/52
f 17/44/53 91/43/53 79/51/53
f 29/53/54 23/7/54 39/6/54
f 35/54/55 34/33/55 63/37/55
f 24/48/56 25/30/56 28/32/56
f 37/55/57 35/54/57 33/49/57
f 40/56/58 29/53/58 39/6/58
f 35/54/59 37/55/59 34/33/59
f 44/8/60 40/56/60 39/6/60
f 84/38/61 30/57/61 27/36/61
f 34/33/62 62/26/62 63/37/62
f 27/36/63 30/57/63 25/30/63
f 33/49/64 35/54/64 27/36/64
f 25/30/65 41/58/65 26/31/65
f 25/30/66 24/48/66 27/36/66
f 23/7/67 38/59/67 80/22/67
f 63/37/68 27/36/68 35/54/68
f 30/57/69 41/58/69 25/30/69
f 29/53/70 38/59/70 23/7/70
f 37/55/71 33/49/71 24/48/71
f 40/56/72 38/59/72 29/53/72
f 55/60/73 18/61/73 21/62/73
f 23/7/74 43/18/74 44/8/74
f 56/63/75 21/62/75 20/64/75
f 40/56/76 93/65/76 42/66/76
f 57/67/77 55/60/77 53/68/77
f 92/69/78 38/59/78 40/56/78
f 21/62/79 18/61/79 20/64/79
f 57/67/80 53/68/80 90/70/80
f 11/13/81 8/29/81 68/11/81
f 68/11/82 58/71/82 70/4/82
f 73/72/83 70/4/83 58/71/83
f 73/72/84 58/71/84 75/73/84
f 57/67/85 73/72/85 75/73/85
f 57/67/86 75/73/86 19/74/86
f 76/75/87 57/67/87 90/70/87
f 89/76/88 54/77/88 49/78/88
f 19/74/89 18/61/89 55/60/89
f 55/60/90 57/67/90 19/74/90
f 21/62/91 56/63/91 55/60/91
f 55/60/92 56/63/92 54/77/92
f 57/67/93 76/75/93 73/72/93
f 53/68/94 54/77/94 89/76/94
f 55/60/95 54/77/95 53/68/95
f 56/63/96 52/79/96 51/80/96
f 50/81/97 56/63/97 51/80/97
f 52/79/98 46/82/98 51/80/98
f 52/79/99 56/63/99 20/64/99
f 49/78/100 56/63/100 48/83/100
f 50/81/101 32/84/101 48/83/101
f 32/84/102 85/85/102 48/83/102
f 85/85/103 89/76/103 47/86/103
f 85/85/104 47/86/104 48/83/104
f 47/86/105 49/78/105 48/83/105
f 49/78/106 47/86/106 89/76/106
f 85/85/107 87/25/107 89/76/107
f 46/82/108 32/84/108 50/81/108
f 46/82/109 50/81/109 51/80/109
f 88/87/110 45/88/110 31/89/110
f 92/69/111 40/56/111 42/66/111
f 41/58/112 92/69/112 42/66/112
f 30/57/113 92/69/113 41/58/113
f 45/88/114 93/65/114 40/56/114
f 38/59/115 92/69/115 30/57/115
f 37/55/116 24/48/116 28/32/116
f 41/58/117 42/66/117 26/31/117
f 46/82/118 31/89/118 36/90/118
f 44/8/119 45/88/119 40/56/119
f 85/85/120 32/84/120 36/90/120
f 31/89/121 46/82/121 88/87/121
f 87/25/122 85/85/122 86/17/122
f 49/78/123 54/77/123 56/63/123
f 36/90/124 32/84/124 46/82/124
f 43/18/125 36/90/125 44/8/125
f 86/17/126 85/85/126 36/90/126
f 36/90/127 43/18/127 86/17/127
f 36/90/128 31/89/128 45/88/128
f 56/63/129 50/81/129 48/83/129
f 45/88/130 44/8/130 36/90/130
f 38/59/131 30/57/131 84/38/131
f 65/41/132 59/91/132 60/47/132
f 65/41/133 66/39/133 59/91/133
f 66/39/134 34/33/134 37/55/134
f 68/11/135 61/27/135 10/12/135
f 69/52/136 13/3/136 7/2/136
f 61/27/137 68/11/137 69/52/137
f 69/52/138 68/11/138 70/4/138
f 13/3/139 69/52/139 70/4/139
f 64/46/140 65/41/140 60/47/140
f 79/51/141 71/92/141 16/50/141
f 64/46/142 67/45/142 65/41/142
f 78/28/143 67/45/143 16/50/143
f 67/45/144 78/28/144 65/41/144
f 71/92/145 78/28/145 16/50/145
f 82/40/146 5/23/146 6/10/146
f 5/23/147 82/40/147 83/35/147
f 84/38/148 82/40/148 38/59/148
f 82/40/149 80/22/149 38/59/149
f 75/73/150 58/71/150 79/51/150
f 80/22/151 82/40/151 81/21/151
f 74/15/152 77/93/152 72/19/152
f 77/93/153 74/15/153 76/75/153
f 71/92/154 79/51/154 58/71/154
f 78/28/155 71/92/155 58/71/155
f 58/71/156 68/11/156 78/28/156
f 79/51/157 91/43/157 75/73/157
f 74/15/158 70/4/158 76/75/158
f 70/4/159 74/15/159 2/5/159
f 72/19/160 90/70/160 87/25/160
f 82/40/161 6/10/161 81/21/161
f 72/19/162 77/93/162 90/70/162
f 73/72/163 76/75/163 70/4/163
f 76/75/164 90/70/164 77/93/164
f 90/70/165 89/76/165 87/25/165
f 90/70/166 53/68/166 89/76/166
f 75/73/167 91/43/167 19/74/167
f 42/66/168 93/65/168 45/88/168 88/87/168 46/82/168 52/79/168 20/64/168 18/61/168 19/74/168 91/43/168 15/42/168 60/47/168 59/91/168 66/39/168 37/55/168 28/32/168 26/31/168
