# Blender v2.91.0 OBJ File: 'cristals.blend'
# www.blender.org
mtllib crystal_11.mtl
o crystal_11
v -1.776235 6.710263 0.405414
v 1.778868 6.783476 0.406015
v 0.794227 6.943053 1.649231
v 1.399759 7.458764 0.917433
v 1.304717 7.628057 0.837786
v -0.793392 6.890854 1.647494
v -1.377217 7.209034 0.932377
v -1.041998 7.628057 0.681139
v 0.122190 7.396183 1.664304
v 0.186024 7.628057 1.449184
v 1.434127 7.046242 -1.143679
v 1.512966 7.257115 -0.829786
v 1.304717 7.628057 -0.532997
v -1.419161 6.527723 -1.131742
v -1.558474 6.982463 -0.589350
v -1.041998 7.628057 -0.131589
v -0.000001 6.470245 -1.813051
v 0.772393 7.628057 -0.924835
v 0.832901 7.168633 -1.437732
v -1.127921 1.203627 -0.899486
v -0.382965 0.000000 -0.701911
v -0.000001 1.178261 -1.440018
v -0.125320 0.883688 -1.348938
v -0.019761 0.000000 -0.928509
v -0.609770 0.846167 1.266198
v -0.382966 0.000000 0.875770
v 0.625230 1.187775 1.298305
v 0.267374 0.000000 0.996384
v 0.284328 0.448638 1.228835
v 1.485275 1.978263 0.339004
v 1.127840 1.202659 -0.899424
v 0.653896 0.000000 -0.722571
v 0.922678 0.693761 -0.945137
v 0.703004 0.000000 0.560022
v 1.071852 0.909727 0.696345
v -1.438211 1.515490 0.328262
v -0.755337 0.126381 0.871304
v -0.770331 0.370107 0.993097
v -0.829543 0.151566 -0.506701
v -1.145206 0.695889 -0.609299
v -0.881339 0.169145 0.637185
v -1.355167 1.004941 0.180067
vt 0.506142 0.600801
vt 0.499519 0.570319
vt 0.511054 0.547173
vt 0.529145 0.583933
vt 0.530406 0.600801
vt 0.544962 0.096366
vt 0.549016 0.133385
vt 0.556078 0.189807
vt 0.547909 0.112077
vt 0.540621 0.045899
vt 0.539651 0.045899
vt 0.541992 0.600801
vt 0.543188 0.567380
vt 0.526731 0.516576
vt 0.498690 0.520757
vt 0.495937 0.553837
vt 0.506142 0.600801
vt 0.526731 0.131610
vt 0.555068 0.558477
vt 0.556626 0.573817
vt 0.552511 0.600801
vt 0.552511 0.600801
vt 0.554389 0.588485
vt 0.561879 0.539362
vt 0.542424 0.550970
vt 0.491635 0.534036
vt 0.539085 0.132303
vt 0.514682 0.107452
vt 0.532349 0.078535
vt 0.498314 0.156143
vt 0.511510 0.072822
vt 0.504444 0.133456
vt 0.504103 0.096520
vt 0.499954 0.119003
vt 0.509317 0.058203
vt 0.510340 0.056924
vt 0.532014 0.045899
vt 0.524255 0.110183
vt 0.526340 0.045899
vt 0.519164 0.045899
vt 0.519164 0.045899
vt 0.511806 0.055092
vn -0.3878 0.6820 0.6201
vn 0.9280 -0.3709 -0.0355
vn -0.2875 0.6963 -0.6576
vn 0.4377 -0.0620 -0.8970
vn 0.8720 0.4895 -0.0000
vn 0.9707 -0.0579 -0.2334
vn 0.3962 0.5635 0.7249
vn -0.7809 0.6247 -0.0000
vn -0.0030 -0.0621 0.9981
vn 0.7743 -0.0593 0.6300
vn 0.4240 0.6989 -0.5760
vn 0.0000 1.0000 0.0000
vn -0.7749 -0.0620 0.6290
vn -0.9727 -0.0626 -0.2236
vn -0.8621 -0.5058 -0.0313
vn 0.6587 -0.3656 0.6576
vn -0.4796 -0.4230 -0.7688
vn 0.2695 -0.3873 -0.8817
vn 0.0000 -1.0000 0.0000
vn -0.1629 -0.4490 0.8785
vn -0.8688 -0.2631 0.4195
vn -0.3214 -0.9469 -0.0000
vn -0.4333 -0.0639 -0.8990
usemtl Material.004
s off
f 8/1/1 7/2/1 6/3/1 9/4/1 10/5/1
f 33/6/2 31/7/2 30/8/2 35/9/2 34/10/2 32/11/2
f 18/12/3 19/13/3 17/14/3 14/15/3 15/16/3 16/17/3
f 22/18/4 17/14/4 19/13/4 11/19/4 31/7/4 33/6/4
f 12/20/5 13/21/5 5/22/5 4/23/5 2/24/5
f 11/19/6 12/20/6 2/24/6 30/8/6 31/7/6
f 4/23/7 5/22/7 10/5/7 9/4/7 3/25/7
f 16/17/8 15/16/8 1/26/8 7/2/8 8/1/8
f 27/27/9 3/25/9 9/4/9 6/3/9 25/28/9 29/29/9
f 30/8/10 2/24/10 4/23/10 3/25/10 27/27/10 35/9/10
f 19/13/11 18/12/11 13/21/11 12/20/11 11/19/11
f 13/21/12 18/12/12 16/17/12 8/1/12 10/5/12 5/22/12
f 25/28/13 6/3/13 7/2/13 1/26/13 36/30/13 38/31/13
f 36/30/14 1/26/14 15/16/14 14/15/14 20/32/14 40/33/14 42/34/14
f 41/35/15 42/34/15 40/33/15 39/36/15
f 34/10/16 35/9/16 27/27/16 29/29/16 28/37/16
f 40/33/17 20/32/17 23/38/17 24/39/17 21/40/17 39/36/17
f 22/18/18 33/6/18 32/11/18 24/39/18 23/38/18
f 24/39/19 32/11/19 34/10/19 28/37/19 26/41/19 21/40/19
f 25/28/20 38/31/20 37/42/20 26/41/20 28/37/20 29/29/20
f 36/30/21 42/34/21 41/35/21 37/42/21 38/31/21
f 37/42/22 41/35/22 39/36/22 21/40/22 26/41/22
f 20/32/23 14/15/23 17/14/23 22/18/23 23/38/23
