# Blender v2.91.0 OBJ File: 'cristals.blend'
# www.blender.org
mtllib crystal_10.mtl
o crystal_10
v -2.006286 7.579352 0.457922
v 2.009261 7.662048 0.458601
v 0.897092 7.842293 1.862833
v 1.581051 8.424797 1.036255
v 1.473700 8.616016 0.946293
v -0.896150 7.783333 1.860872
v -1.555590 8.142722 1.053135
v -1.176954 8.616016 0.769358
v 0.138016 8.354111 1.879860
v 0.210117 8.616016 1.636877
v 1.619870 7.958847 -1.291804
v 1.708920 8.197031 -0.937257
v 1.473700 8.616016 -0.602029
v -1.602965 7.373170 -1.278321
v -1.760322 7.886807 -0.665681
v -1.176954 8.616016 -0.148632
v -0.000001 7.308248 -2.047871
v 0.872430 8.616016 -1.044616
v 0.940776 8.097089 -1.623942
v -1.274005 1.359516 -1.015985
v -0.432566 0.000000 -0.792820
v -0.000001 1.330865 -1.626524
v -0.141551 0.998140 -1.523648
v -0.022320 0.000000 -1.048767
v -0.688745 0.955760 1.430191
v -0.432566 0.000000 0.989197
v 0.706208 1.341611 1.466457
v 0.302003 0.000000 1.125432
v 0.321153 0.506744 1.387990
v 1.677643 2.234480 0.382911
v 1.273914 1.358424 -1.015914
v 0.738586 0.000000 -0.816156
v 1.042180 0.783614 -1.067548
v 0.794055 0.000000 0.632555
v 1.210674 1.027552 0.786533
v -1.624483 1.711771 0.370777
v -0.853165 0.142749 0.984153
v -0.870102 0.418042 1.121719
v -0.936983 0.171196 -0.572327
v -1.293529 0.786018 -0.688213
v -0.995486 0.191052 0.719711
v -1.530684 1.135097 0.203389
vt 0.508021 0.574724
vt 0.502266 0.547123
vt 0.512290 0.526164
vt 0.528010 0.559450
vt 0.529106 0.574724
vt 0.541754 0.117949
vt 0.545276 0.151471
vt 0.551413 0.202562
vt 0.544315 0.132175
vt 0.537982 0.072249
vt 0.537139 0.072249
vt 0.539173 0.574724
vt 0.540212 0.544462
vt 0.525912 0.498457
vt 0.501546 0.502244
vt 0.499154 0.532198
vt 0.508021 0.574724
vt 0.525912 0.149864
vt 0.550535 0.536399
vt 0.551889 0.550290
vt 0.548313 0.574724
vt 0.548313 0.574724
vt 0.549945 0.563573
vt 0.556454 0.519090
vt 0.539548 0.529601
vt 0.495415 0.514268
vt 0.536647 0.150491
vt 0.515442 0.127988
vt 0.530794 0.101802
vt 0.501219 0.172078
vt 0.512686 0.096629
vt 0.506546 0.151534
vt 0.506249 0.118089
vt 0.502645 0.138446
vt 0.510780 0.083391
vt 0.511669 0.082233
vt 0.530503 0.072250
vt 0.523760 0.130460
vt 0.525573 0.072249
vt 0.519337 0.072249
vt 0.519337 0.072250
vt 0.512943 0.080574
vn -0.3878 0.6820 0.6201
vn 0.9280 -0.3709 -0.0355
vn -0.2875 0.6963 -0.6576
vn 0.4377 -0.0620 -0.8970
vn 0.8720 0.4895 0.0000
vn 0.9707 -0.0579 -0.2334
vn 0.3962 0.5635 0.7249
vn -0.7809 0.6247 -0.0000
vn -0.0030 -0.0621 0.9981
vn 0.7743 -0.0593 0.6300
vn 0.4240 0.6989 -0.5760
vn 0.0000 1.0000 -0.0000
vn -0.7749 -0.0620 0.6290
vn -0.9727 -0.0626 -0.2236
vn -0.8621 -0.5058 -0.0313
vn 0.6587 -0.3656 0.6576
vn -0.4796 -0.4230 -0.7688
vn 0.2695 -0.3873 -0.8817
vn 0.0000 -1.0000 0.0000
vn -0.1629 -0.4490 0.8785
vn -0.8688 -0.2631 0.4195
vn -0.3214 -0.9469 -0.0000
vn -0.4333 -0.0639 -0.8990
usemtl Material.004
s off
f 8/1/1 7/2/1 6/3/1 9/4/1 10/5/1
f 33/6/2 31/7/2 30/8/2 35/9/2 34/10/2 32/11/2
f 18/12/3 19/13/3 17/14/3 14/15/3 15/16/3 16/17/3
f 22/18/4 17/14/4 19/13/4 11/19/4 31/7/4 33/6/4
f 12/20/5 13/21/5 5/22/5 4/23/5 2/24/5
f 11/19/6 12/20/6 2/24/6 30/8/6 31/7/6
f 4/23/7 5/22/7 10/5/7 9/4/7 3/25/7
f 16/17/8 15/16/8 1/26/8 7/2/8 8/1/8
f 27/27/9 3/25/9 9/4/9 6/3/9 25/28/9 29/29/9
f 30/8/10 2/24/10 4/23/10 3/25/10 27/27/10 35/9/10
f 19/13/11 18/12/11 13/21/11 12/20/11 11/19/11
f 13/21/12 18/12/12 16/17/12 8/1/12 10/5/12 5/22/12
f 25/28/13 6/3/13 7/2/13 1/26/13 36/30/13 38/31/13
f 36/30/14 1/26/14 15/16/14 14/15/14 20/32/14 40/33/14 42/34/14
f 41/35/15 42/34/15 40/33/15 39/36/15
f 34/10/16 35/9/16 27/27/16 29/29/16 28/37/16
f 40/33/17 20/32/17 23/38/17 24/39/17 21/40/17 39/36/17
f 22/18/18 33/6/18 32/11/18 24/39/18 23/38/18
f 24/39/19 32/11/19 34/10/19 28/37/19 26/41/19 21/40/19
f 25/28/20 38/31/20 37/42/20 26/41/20 28/37/20 29/29/20
f 36/30/21 42/34/21 41/35/21 37/42/21 38/31/21
f 37/42/22 41/35/22 39/36/22 21/40/22 26/41/22
f 20/32/23 14/15/23 17/14/23 22/18/23 23/38/23
