# Blender v2.91.0 OBJ File: 'cristals.blend'
# www.blender.org
mtllib crystal_17.mtl
o crystal_17
v -1.289803 0.609910 -1.289803
v -0.998101 0.000000 -1.320657
v -1.283121 0.741993 1.283121
v -1.303316 0.342786 -1.088287
v -1.229446 0.000000 -0.968526
v -1.156152 0.000000 0.763960
v 1.284178 0.721089 -1.284178
v -1.266765 0.661365 1.287199
v -1.191896 0.253337 1.121006
v -1.022917 0.000000 1.020561
v -0.243155 0.000000 -1.320657
v 1.141699 0.000000 -0.914278
v 1.187196 0.409464 -1.299943
v 1.303664 0.000000 -0.110966
v 1.318393 0.044745 -0.104714
v 1.277420 0.854674 1.277420
v 1.018315 0.000000 1.066226
v 1.160749 0.543819 1.293146
v -1.013080 6.080031 0.399823
v 1.016043 6.021445 0.558368
v 0.590953 6.338585 0.452630
v 1.045754 5.434138 1.045754
v 1.013692 6.067919 -0.722479
v 0.634483 6.338585 -0.466271
v -0.781398 6.331951 0.494046
v -0.773623 6.338585 0.488836
v -0.198149 6.033559 1.015431
v -0.067534 6.338585 0.706086
v 1.031583 5.714273 -1.031583
v 0.524035 6.338585 -0.504839
v 1.015977 6.022758 -0.786525
v -0.572859 6.338585 -0.433867
v -1.052714 5.296551 -1.052714
v -1.026354 5.817634 -0.746394
v -0.879377 5.974007 -0.702458
v -0.612071 5.570660 -1.038848
v -1.044115 5.466551 1.044115
v -1.021289 5.917750 0.737411
v -0.633079 5.911386 1.021611
v -0.865778 6.134843 0.693952
vt 0.500954 0.194224
vt 0.500656 0.204486
vt 0.500288 0.153677
vt 0.501634 0.110050
vt 0.502970 0.110050
vt 0.502318 0.142292
vt 0.500534 0.187676
vt 0.505850 0.110050
vt 0.505398 0.110050
vt 0.544847 0.110050
vt 0.519609 0.110050
vt 0.545676 0.162163
vt 0.542598 0.110050
vt 0.545194 0.179263
vt 0.548067 0.115745
vt 0.547320 0.218827
vt 0.547798 0.110050
vt 0.522809 0.916790
vt 0.520429 0.877967
vt 0.543098 0.801677
vt 0.542557 0.876427
vt 0.534810 0.916790
vt 0.547443 0.201825
vt 0.542514 0.882342
vt 0.535603 0.916790
vt 0.542555 0.876594
vt 0.533590 0.916790
vt 0.512502 0.862418
vt 0.508262 0.890859
vt 0.505427 0.863227
vt 0.505011 0.805802
vt 0.513600 0.916790
vt 0.509941 0.916790
vt 0.542840 0.837330
vt 0.508014 0.870388
vt 0.512885 0.819053
vt 0.504855 0.784165
vt 0.505335 0.850486
vt 0.505577 0.883883
vt 0.509800 0.915947
vn -0.9796 -0.1966 0.0414
vn -0.7833 -0.3486 -0.5146
vn -0.7016 -0.6124 0.3643
vn 0.2057 -0.6830 -0.7009
vn -0.0207 -0.3804 0.9246
vn 0.9165 -0.3327 0.2222
vn 0.2815 0.6212 0.7314
vn 0.9402 -0.2830 -0.1896
vn 0.0000 -1.0000 0.0000
vn 0.5932 0.8045 0.0281
vn 0.1957 0.8047 -0.5605
vn -0.5054 0.5024 0.7015
vn 0.0000 1.0000 0.0000
vn 0.9987 0.0505 0.0000
vn -0.2831 0.4966 -0.8205
vn -0.0507 0.6196 -0.7832
vn -0.6985 0.6993 -0.1520
vn -0.0000 0.0505 -0.9987
vn -0.1983 0.7385 0.6445
vn -0.7570 0.5959 0.2681
vn -0.0000 0.0505 0.9987
vn -0.9987 0.0505 -0.0000
usemtl Material.004
s off
f 8/1/1 3/2/1 4/3/1 5/4/1 6/5/1 9/6/1
f 1/7/2 2/8/2 5/4/2 4/3/2
f 9/6/3 6/5/3 10/9/3
f 12/10/4 11/11/4 13/12/4
f 8/1/5 9/6/5 10/9/5 17/13/5 18/14/5
f 15/15/6 16/16/6 18/14/6 17/13/6 14/17/6
f 28/18/7 27/19/7 22/20/7 20/21/7 21/22/7
f 7/23/8 15/15/8 14/17/8 12/10/8 13/12/8
f 2/8/9 11/11/9 12/10/9 14/17/9 17/13/9 10/9/9 6/5/9 5/4/9
f 23/24/10 24/25/10 21/22/10 20/21/10
f 31/26/11 30/27/11 24/25/11 23/24/11
f 39/28/12 40/29/12 38/30/12 37/31/12
f 24/25/13 30/27/13 32/32/13 26/33/13 28/18/13 21/22/13
f 7/23/14 29/34/14 31/26/14 23/24/14 20/21/14 22/20/14 16/16/14 15/15/14
f 35/35/15 36/36/15 33/37/15 34/38/15
f 30/27/16 31/26/16 29/34/16 36/36/16 35/35/16 32/32/16
f 19/39/17 25/40/17 26/33/17 32/32/17 35/35/17 34/38/17
f 1/7/18 33/37/18 36/36/18 29/34/18 7/23/18 13/12/18 11/11/18 2/8/18
f 26/33/19 25/40/19 40/29/19 39/28/19 27/19/19 28/18/19
f 19/39/20 38/30/20 40/29/20 25/40/20
f 16/16/21 22/20/21 27/19/21 39/28/21 37/31/21 3/2/21 8/1/21 18/14/21
f 3/2/22 37/31/22 38/30/22 19/39/22 34/38/22 33/37/22 1/7/22 4/3/22
