# Blender v2.91.0 OBJ File: 'cristals.blend'
# www.blender.org
mtllib crystal_16.mtl
o crystal_16
v 1.984874 0.523116 -3.435410
v 1.512786 0.000001 -2.888946
v 3.739521 0.360363 -3.092955
v 3.383849 0.229754 -3.172464
v 3.055883 0.000000 -2.929300
v 4.535256 0.717123 -1.498256
v 3.512647 0.000000 -2.341595
v 4.088237 0.284557 -2.424809
v 3.540058 3.979148 -0.201657
v 3.295716 4.724647 -1.034441
v 4.115333 3.994858 -1.487275
v 4.016493 4.177310 -1.343521
v 3.540107 4.724647 -1.449972
v 2.068954 3.499357 -3.106884
v 3.473581 3.979747 -2.740976
v 3.288450 4.724647 -2.202248
v 3.531080 4.294947 -2.511369
v 2.167111 3.785987 0.183782
v 3.089114 4.630771 -0.525979
v 3.213902 4.293629 -0.173657
v 2.331490 4.102210 0.085936
v -5.397361 0.439352 0.745824
v -4.391735 0.200589 -0.582260
v -3.546896 0.000001 0.050926
v 2.693581 0.278516 4.649939
v 2.892277 0.177571 3.858848
v 2.367437 0.000000 3.110862
v -3.546896 0.000001 2.099211
v -0.920792 0.554247 6.336931
v 1.025840 0.000000 4.098395
v 1.178337 0.219927 5.391031
v -3.763443 3.075389 4.034513
v -1.885963 3.651568 3.536570
v -0.920792 3.087531 5.396792
v -1.236630 3.228544 5.167246
v -0.970593 3.651568 4.107658
v 2.822489 2.704570 0.913194
v 1.921660 3.075852 4.034354
v 0.727196 3.651568 3.588640
v 1.404597 3.319463 4.149565
v -4.545456 2.926100 0.940268
v -3.011454 3.579013 3.044591
v -3.807006 3.318444 3.303165
v -3.141992 3.570599 0.161702
v -4.336164 3.170501 1.313758
v 3.622360 0.196309 2.929074
v 2.898526 0.089627 2.755596
v 3.006210 0.000001 2.296311
v 3.769674 0.124445 -1.082238
v 3.410282 0.079342 -1.021734
v 3.198245 0.000000 -0.672834
v 5.046553 0.235352 1.866235
v 4.550038 0.138087 2.255000
v 3.844514 0.000001 1.929099
v 5.108089 0.247646 0.094581
v 3.842932 0.000000 -0.300800
v 4.344631 0.098267 -0.594954
v 4.675400 1.374130 1.670769
v 4.204640 1.631575 0.514622
v 4.723317 1.379555 0.263126
v 3.549212 1.307426 2.545554
v 4.135438 1.599157 1.540472
v 2.978958 1.595398 2.110736
v 2.354589 0.798742 -3.622752
v -4.230097 0.455136 -0.652568
v -3.225656 0.001040 -0.158955
v 0.544184 0.000001 -3.219176
v -3.434453 1.007623 -3.882534
v -3.111311 -0.000000 -1.504250
v -3.978933 0.399828 -2.101084
v -0.517475 5.591070 -4.383337
v -1.216189 6.638566 -2.975685
v -2.862599 5.613145 -3.380991
v -2.554481 5.869507 -3.450648
v -2.051893 6.638566 -2.723559
v 2.105845 5.902164 -0.677245
v 1.202384 6.638568 -0.854488
v 0.494603 5.604869 1.259168
v 0.512899 6.638568 0.304644
v 0.846451 6.248127 0.643165
v -2.132331 4.916920 1.287828
v -3.550259 5.591912 -0.925189
v -2.641925 6.638566 -1.413964
v -3.344496 6.034798 -1.301164
v -0.741746 6.638567 0.385772
v -1.028682 5.846848 1.134498
v 1.781840 5.319663 -3.208297
v 1.696192 6.528581 -1.431334
v 1.903059 6.316470 -1.290569
v -0.316509 6.506661 -3.397825
v -0.049381 6.032946 -4.019677
v 1.506699 6.491364 -1.939268
v 1.443005 5.763985 -3.280241
v -4.891818 0.319321 3.055233
v -3.757981 0.532421 4.974856
v -4.201379 1.554748 4.383753
v 2.009129 0.753721 -3.813492
v 0.538901 0.404364 -4.231951
v -1.036582 0.966999 -4.905465
v -0.490024 2.011176 -4.969548
v 0.814476 3.651568 1.309112
v 0.615790 3.651568 1.544202
v 1.329049 0.000001 -2.530814
v 1.317536 0.145597 -2.903904
v 1.986798 0.591203 -3.427895
v 2.415495 0.701313 -3.326427
v 2.048731 4.123791 -2.653642
v 2.048538 3.754106 -2.922124
v 2.054473 3.523924 -3.089218
v 2.047111 4.290094 -2.532887
v 2.032870 4.724648 -2.217472
v 2.048791 4.238820 -2.570104
v 2.879287 0.173177 2.721409
v 3.127251 0.257071 2.766787
v 2.676866 0.104691 2.693820
v 2.755680 0.000001 -0.478972
v 2.921196 0.042314 -0.688013
v 3.743640 0.411002 -0.984506
v 3.142197 0.098813 -0.967130
v 3.746847 0.413504 -0.980676
v 4.103192 0.707706 -0.537762
v 2.367439 0.000002 1.860222
v 1.936295 3.139624 0.147217
v 2.066384 3.408413 -3.116923
v 2.872291 1.475359 2.279241
v 2.975173 1.622265 1.657376
v 2.876771 1.598530 2.102454
v 3.167641 1.631576 0.834415
v 1.930947 3.876621 -0.014066
v 1.968731 3.034194 0.133555
v 2.303334 4.652587 -0.622335
v 2.169349 4.622985 -0.460201
v 2.010906 4.416210 -0.229435
v -1.885963 3.651569 1.458927
v -2.222200 3.629893 1.454073
v 3.927934 1.468439 -0.361377
v 3.733764 1.631575 0.023596
v -3.738107 0.268251 -1.382877
v 2.707446 1.625615 0.284797
v 2.146892 2.940027 0.284425
v 2.056213 3.505272 -3.094846
v 2.058997 3.478307 -3.101295
v 2.229931 4.724648 -1.006569
v 2.276014 4.679408 -0.765348
v -3.140612 3.570124 0.157277
v -3.420353 3.292592 -0.179704
v -3.140004 3.570727 0.158009
v -3.138567 3.570819 0.160063
vt 0.494489 0.106792
vt 0.502337 0.135974
vt 0.499268 0.275965
vt 0.506601 0.552008
vt 0.498335 0.497220
vt 0.501998 0.517478
vt 0.507505 0.553159
vt 0.548972 0.281532
vt 0.552919 0.242098
vt 0.560715 0.251232
vt 0.556977 0.282047
vt 0.538780 0.951964
vt 0.538340 0.852361
vt 0.528009 0.889190
vt 0.526160 0.954058
vt 0.552396 0.608034
vt 0.551114 0.710037
vt 0.552794 0.651197
vt 0.542531 0.577137
vt 0.542533 0.627759
vt 0.542673 0.542253
vt 0.542572 0.545615
vt 0.542521 0.650532
vt 0.542423 0.710037
vt 0.542533 0.643511
vt 0.552666 0.063065
vt 0.559745 0.161264
vt 0.554287 0.119689
vt 0.554265 0.119346
vt 0.550102 0.076597
vt 0.548572 0.068860
vt 0.547426 0.063065
vt 0.556650 0.102031
vt 0.556754 0.159975
vt 0.556838 0.610103
vt 0.554237 0.112412
vt 0.551775 0.094527
vt 0.549504 0.063065
vt 0.542091 0.134699
vt 0.538823 0.063065
vt 0.542104 0.144022
vt 0.545071 0.159101
vt 0.542655 0.529798
vt 0.537551 0.063065
vt 0.537471 0.083003
vt 0.542584 0.543062
vt 0.542603 0.539369
vt 0.543352 0.581502
vt 0.552856 0.607952
vt 0.544490 0.624803
vt 0.543212 0.465659
vt 0.547092 0.285671
vt 0.550598 0.651015
vt 0.554197 0.286486
vt 0.549734 0.697183
vt 0.543367 0.696117
vt 0.542271 0.667802
vt 0.556154 0.635088
vt 0.551164 0.710037
vt 0.552856 0.710037
vt 0.543787 0.710037
vt 0.541717 0.593912
vt 0.544106 0.703842
vt 0.544295 0.700169
vt 0.555541 0.264146
vt 0.506022 0.063208
vt 0.503798 0.063065
vt 0.497950 0.090534
vt 0.502475 0.099799
vt 0.541653 0.484260
vt 0.533384 0.563094
vt 0.538074 0.517619
vt 0.547889 0.433418
vt 0.541754 0.492990
vt 0.533989 0.563094
vt 0.536507 0.093181
vt 0.521977 0.485857
vt 0.521977 0.138963
vt 0.546996 0.101204
vt 0.548282 0.086779
vt 0.549998 0.098267
vt 0.548372 0.087381
vt 0.544739 0.063065
vt 0.546881 0.077402
vt 0.544739 0.063065
vt 0.548234 0.265095
vt 0.548264 0.281961
vt 0.548946 0.285212
vt 0.550278 0.286486
vt 0.541979 0.478555
vt 0.535452 0.063065
vt 0.499069 0.125390
vt 0.490989 0.123230
vt 0.496886 0.463752
vt 0.504674 0.513939
vt 0.502299 0.484196
vt 0.519790 0.505168
vt 0.515296 0.563094
vt 0.521632 0.563094
vt 0.532613 0.563094
vt 0.515296 0.563094
vt 0.506611 0.551942
vt 0.506615 0.552025
vt 0.506625 0.552038
vt 0.512968 0.560127
vt 0.549160 0.063065
vt 0.548415 0.075338
vt 0.563710 0.096977
vt 0.554963 0.063065
vt 0.554952 0.063065
vt 0.558425 0.076521
vt 0.563284 0.095294
vt 0.559847 0.081975
vt 0.561046 0.251975
vt 0.554445 0.080107
vt 0.551957 0.073931
vt 0.550490 0.063065
vt 0.553425 0.089947
vt 0.557456 0.286486
vt 0.503775 0.828795
vt 0.510063 0.972120
vt 0.505200 0.889444
vt 0.513590 0.736367
vt 0.521230 0.863707
vt 0.523216 0.972122
vt 0.508535 0.831704
vt 0.500808 0.117817
vt 0.504577 0.201045
vt 0.531774 0.830570
vt 0.542928 0.871280
vt 0.534210 0.918655
vt 0.506814 0.063065
vt 0.524959 0.338467
vt 0.542258 0.166276
vt 0.532081 0.118436
vt 0.521175 0.195481
vt 0.540685 0.791517
vt 0.541524 0.928014
vt 0.544650 0.172442
vt 0.531901 0.972122
vt 0.524769 0.828681
vt 0.519932 0.972120
vt 0.510668 0.866809
vt 0.514147 0.972120
vt 0.536674 0.972122
vt 0.540092 0.957060
vt 0.503798 0.063065
vt 0.532118 0.063065
vn -0.8550 -0.0741 0.5133
vn -0.3080 0.9513 0.0112
vn 0.2172 0.8962 0.3868
vn 0.3717 0.8085 -0.4562
vn 0.0098 0.5876 -0.8091
vn 0.4569 -0.8699 0.1857
vn 0.4638 -0.8631 0.2002
vn 0.8766 0.1684 -0.4508
vn 0.8837 0.1147 -0.4537
vn 0.8755 0.1053 -0.4716
vn 0.8863 0.1089 -0.4502
vn -0.0183 -0.7143 -0.6996
vn 0.2151 0.1102 -0.9704
vn 0.1843 0.0937 -0.9784
vn 0.2043 0.1017 -0.9736
vn -0.5585 -0.7784 -0.2865
vn -0.6345 0.1685 -0.7543
vn -0.6421 0.1020 -0.7598
vn -0.4176 -0.4061 -0.8128
vn -0.6547 0.1112 -0.7476
vn 0.3873 -0.8714 -0.3010
vn 0.2444 0.1684 0.9549
vn 0.2533 0.1083 0.9613
vn 0.2501 0.1103 0.9619
vn 0.0427 0.7293 0.6828
vn 0.6571 0.6471 0.3865
vn 0.7537 0.6069 -0.2521
vn 0.0000 1.0000 -0.0000
vn -0.4339 0.4163 0.7990
vn 0.0048 0.9830 0.1834
vn 0.8990 0.1684 0.4043
vn 0.9056 0.1139 0.4085
vn 0.9062 0.1147 0.4069
vn -0.1063 -0.9798 -0.1691
vn 0.4291 0.9031 0.0164
vn 0.4253 0.3096 0.8505
vn 0.4312 0.3139 0.8459
vn 0.4093 0.3024 0.8608
vn 0.3494 0.3263 0.8783
vn 0.3205 -0.9473 -0.0000
vn 0.9333 0.3007 0.1961
vn 0.9330 0.2839 0.2214
vn 0.9265 0.2962 0.2322
vn 0.7038 0.3000 -0.6439
vn 0.7342 0.2815 -0.6178
vn 0.1131 -0.9816 0.1537
vn -0.7483 0.3138 -0.5844
vn -0.7341 0.2991 -0.6096
vn -0.7219 0.3075 -0.6199
vn -0.1995 0.9263 0.3197
vn 0.1205 0.9112 0.3940
vn -0.5147 0.8206 -0.2485
vn -0.0643 0.9979 0.0000
vn -0.1125 -0.9799 0.1648
vn 0.1921 -0.9814 -0.0001
vn 0.6084 0.3096 -0.7308
vn 0.6018 0.3139 -0.7343
vn 0.6256 0.3104 -0.7158
vn -0.1286 -0.9473 -0.2936
vn -0.1841 0.2905 -0.9390
vn 0.0927 -0.9730 0.2116
vn 0.0954 -0.9816 -0.1653
vn -0.2339 0.3216 0.9175
vn -0.2641 0.2995 0.9168
vn -0.2822 0.3050 0.9096
vn 0.5729 0.3009 0.7624
vn 0.5472 0.3117 0.7768
vn 0.5736 0.3018 0.7615
vn 0.2943 0.9243 -0.2432
vn 0.3014 0.9087 -0.2890
vn -0.0036 1.0000 -0.0025
vn -0.0211 0.8206 0.5712
vn 0.0258 0.9979 0.0589
vn 0.0154 0.9996 0.0247
vn 0.9485 0.3149 0.0335
vn 0.9478 0.3170 0.0351
vn -0.5021 0.6833 0.5301
vn -0.9409 0.2151 -0.2616
vn -0.9589 0.1456 -0.2434
vn -0.9539 0.1390 -0.2659
vn -0.9774 0.1201 -0.1741
vn -0.8135 0.1359 0.5654
vn 0.7342 0.2151 0.6439
vn 0.7562 0.1402 0.6391
vn 0.7422 0.1383 0.6557
vn 0.7492 0.1468 0.6459
vn -0.0457 0.2151 0.9755
vn -0.0227 0.1296 0.9913
vn -0.0293 0.1370 0.9901
vn -0.3988 -0.9164 -0.0342
vn -0.3987 -0.9165 -0.0332
vn 0.3153 -0.2217 -0.9227
vn 0.9612 0.2151 -0.1725
vn 0.9762 0.1473 -0.1589
vn 0.9741 0.1325 -0.1831
vn 0.9781 0.1382 -0.1556
vn 0.0475 0.6772 0.7343
vn -0.1949 0.7381 -0.6460
vn -0.6498 0.7014 -0.2928
vn -0.6498 0.7015 -0.2928
vn 0.5563 0.7622 0.3309
vn 0.7759 0.5384 -0.3289
vn 0.0945 0.9897 -0.1078
vn -0.4042 0.3137 0.8592
vn -0.4063 0.3189 0.8563
vn -0.4115 0.3240 0.8519
vn -0.4656 0.3079 0.8297
vn -0.0770 -0.9814 0.1760
vn -0.1093 -0.9788 0.1732
vn -0.2310 -0.9730 -0.0000
vn -0.8970 0.3442 0.2774
vn -0.9282 0.3009 0.2188
vn -0.9290 0.3208 0.1845
vn -0.9387 0.3066 0.1578
vn -0.9226 0.3154 0.2220
vn -0.3821 0.2151 -0.8987
vn -0.3876 0.1461 -0.9102
vn -0.3861 0.1462 -0.9108
vn -0.3863 0.1471 -0.9106
vn -0.1710 -0.9153 -0.3646
vn 0.3104 -0.8823 -0.3539
vn 0.4644 0.2151 -0.8591
vn 0.4647 0.1390 -0.8745
vn 0.4725 0.1389 -0.8703
vn 0.4638 0.1466 -0.8737
vn -0.0000 -1.0000 -0.0000
vn -0.6112 0.1089 0.7839
vn 0.4138 0.9097 0.0341
usemtl Material.004
s off
f 94/1/1 95/2/1 96/3/1
f 44/4/2 45/5/2 43/6/2 42/7/2
f 63/8/3 61/9/3 58/10/3 62/11/3
f 92/12/4 93/13/4 91/14/4 90/15/4
f 15/16/5 16/17/5 17/18/5
f 108/19/5 107/20/5 15/16/5 14/21/5 109/22/5
f 110/23/5 111/24/5 16/17/5
f 112/25/5 110/23/5 16/17/5 15/16/5 107/20/5
f 7/26/6 6/27/6 120/28/6 118/29/6 119/30/6 117/31/6 116/32/6
f 6/27/6 7/26/6 8/33/6
f 120/28/7 6/27/7 121/34/7
f 11/35/8 15/16/8 17/18/8
f 6/27/9 15/16/9 11/35/9
f 8/33/10 15/16/10 6/27/10
f 8/33/11 3/36/11 15/16/11
f 4/37/12 5/38/12 1/39/12
f 5/38/12 2/40/12 1/39/12
f 14/21/13 15/16/13 3/36/13
f 4/37/14 14/21/14 3/36/14
f 14/21/15 4/37/15 1/39/15 105/41/15 106/42/15 124/43/15
f 103/44/16 104/45/16 2/40/16
f 141/46/17 109/22/17 14/21/17
f 124/43/18 142/47/18 14/21/18
f 105/41/19 1/39/19 2/40/19 104/45/19
f 14/21/20 142/47/20 141/46/20
f 8/33/21 7/26/21 3/36/21
f 7/26/21 5/38/21 4/37/21
f 3/36/21 7/26/21 4/37/21
f 18/48/22 9/49/22 21/50/22
f 140/51/23 139/52/23 18/48/23
f 21/50/22 9/49/22 20/53/22
f 9/49/24 18/48/24 139/52/24 137/54/24
f 21/50/25 19/55/25 132/56/25 133/57/25
f 20/53/25 19/55/25 21/50/25
f 9/49/26 19/55/26 20/53/26
f 9/49/26 12/58/26 10/59/26
f 12/58/26 13/60/26 10/59/26
f 9/49/26 10/59/26 19/55/26
f 12/58/27 11/35/27 13/60/27
f 11/35/27 17/18/27 13/60/27
f 13/60/27 17/18/27 16/17/27
f 10/59/28 13/60/28 16/17/28 111/24/28 143/61/28
f 21/50/29 133/57/29 129/62/29 18/48/29
f 19/55/30 144/63/30 131/64/30 132/56/30
f 19/55/30 10/59/30 143/61/30 144/63/30
f 9/49/31 11/35/31 12/58/31
f 121/34/32 6/27/32 9/49/32 137/54/32 136/65/32
f 6/27/33 11/35/33 9/49/33
f 66/66/34 24/67/34 23/68/34 138/69/34
f 38/70/35 39/71/35 40/72/35
f 38/70/35 37/73/35 39/71/35
f 39/71/35 37/73/35 123/74/35 101/75/35
f 31/76/36 40/72/36 34/77/36
f 29/78/37 31/76/37 34/77/37
f 31/76/38 25/79/38 38/70/38
f 31/76/39 38/70/39 40/72/39
f 113/80/40 114/81/40 26/82/40 27/83/40 115/84/40
f 115/84/40 27/83/40 122/85/40
f 25/79/41 26/82/41 38/70/41
f 37/73/42 26/82/42 114/81/42 125/86/42 127/87/42 126/88/42 128/89/42
f 26/82/43 37/73/43 38/70/43
f 130/90/44 123/74/44 37/73/44 139/52/44 140/51/44
f 139/52/45 37/73/45 128/89/45
f 25/79/46 31/76/46 30/91/46
f 26/82/46 30/91/46 27/83/46
f 25/79/46 30/91/46 26/82/46
f 23/68/47 65/92/47 138/69/47
f 22/93/48 41/94/48 23/68/48
f 65/92/49 23/68/49 41/94/49 146/95/49
f 32/96/50 42/7/50 43/6/50
f 35/97/50 33/98/50 32/96/50
f 36/99/50 33/98/50 35/97/50
f 33/98/50 42/7/50 32/96/50
f 34/77/51 36/99/51 35/97/51
f 40/72/51 39/71/51 34/77/51
f 34/77/51 39/71/51 36/99/51
f 39/71/28 33/98/28 36/99/28
f 39/71/28 101/75/28 102/100/28 33/98/28
f 134/101/28 33/98/28 102/100/28
f 44/4/52 145/102/52 146/95/52 41/94/52
f 45/5/52 44/4/52 41/94/52
f 147/103/52 145/102/52 44/4/52
f 148/104/53 147/103/53 44/4/53
f 44/4/53 42/7/53 135/105/53 148/104/53
f 135/105/53 42/7/53 33/98/53 134/101/53
f 122/85/54 48/106/54 115/84/54
f 115/84/54 48/106/54 47/107/54
f 55/108/55 54/109/55 56/110/55
f 55/108/55 56/110/55 57/111/55
f 52/112/55 54/109/55 55/108/55
f 53/113/55 54/109/55 52/112/55
f 60/114/56 57/111/56 121/34/56 136/65/56
f 57/111/57 60/114/57 55/108/57
f 49/115/58 118/29/58 120/28/58 121/34/58 57/111/58
f 119/30/59 50/116/59 51/117/59 117/31/59
f 51/117/59 116/32/59 117/31/59
f 118/29/60 49/115/60 50/116/60 119/30/60
f 46/118/61 48/106/61 54/109/61
f 53/113/61 46/118/61 54/109/61
f 46/118/61 47/107/61 48/106/61
f 57/111/62 56/110/62 49/115/62
f 56/110/62 51/117/62 50/116/62
f 56/110/62 50/116/62 49/115/62
f 115/84/63 47/107/63 113/80/63
f 47/107/64 46/118/64 61/9/64 114/81/64 113/80/64
f 61/9/65 125/86/65 114/81/65
f 46/118/66 53/113/66 61/9/66
f 53/113/67 52/112/67 58/10/67
f 61/9/68 53/113/68 58/10/68
f 60/114/69 136/65/69 137/54/69
f 137/54/70 59/119/70 60/114/70
f 139/52/71 128/89/71 59/119/71 137/54/71
f 61/9/72 63/8/72 127/87/72 125/86/72
f 63/8/73 62/11/73 126/88/73 127/87/73
f 128/89/74 126/88/74 62/11/74 59/119/74
f 52/112/75 60/114/75 58/10/75
f 52/112/76 55/108/76 60/114/76
f 82/120/77 83/121/77 84/122/77
f 81/123/77 83/121/77 82/120/77
f 86/124/77 85/125/77 81/123/77
f 85/125/77 83/121/77 81/123/77
f 82/120/78 84/122/78 73/126/78
f 70/127/79 73/126/79 68/128/79
f 70/127/80 82/120/80 73/126/80
f 65/92/81 82/120/81 70/127/81
f 135/105/82 81/123/82 82/120/82 65/92/82 146/95/82 145/102/82 147/103/82 148/104/82
f 78/129/83 76/130/83 80/131/83
f 78/129/84 102/100/84 101/75/84
f 123/74/85 78/129/85 101/75/85
f 123/74/86 130/90/86 129/62/86 133/57/86 132/56/86 131/64/86 76/130/86 78/129/86
f 81/123/87 78/129/87 86/124/87
f 134/101/88 81/123/88 135/105/88
f 78/129/89 81/123/89 134/101/89 102/100/89
f 65/92/90 70/127/90 69/132/90 138/69/90
f 66/66/91 138/69/91 69/132/91
f 100/133/92 97/134/92 98/135/92 99/136/92
f 76/130/93 87/137/93 89/138/93
f 87/137/94 76/130/94 131/64/94 144/63/94 143/61/94 111/24/94 110/23/94 112/25/94
f 87/137/95 112/25/95 107/20/95 108/19/95
f 64/139/96 87/137/96 108/19/96 109/22/96 141/46/96 142/47/96 124/43/96 106/42/96
f 78/129/97 79/140/97 85/125/97
f 78/129/97 85/125/97 86/124/97
f 80/131/97 79/140/97 78/129/97
f 91/14/98 71/141/98 90/15/98
f 72/142/98 71/141/98 74/143/98
f 72/142/98 74/143/98 75/144/98
f 90/15/98 71/141/98 72/142/98
f 75/144/99 74/143/99 73/126/99
f 83/121/100 73/126/100 84/122/100
f 75/144/100 73/126/100 83/121/100
f 83/121/28 72/142/28 75/144/28
f 85/125/28 72/142/28 83/121/28
f 79/140/28 77/145/28 85/125/28
f 77/145/28 72/142/28 85/125/28
f 76/130/101 77/145/101 80/131/101
f 76/130/101 89/138/101 77/145/101
f 89/138/101 88/146/101 77/145/101
f 80/131/101 77/145/101 79/140/101
f 89/138/102 87/137/102 92/12/102
f 87/137/102 93/13/102 92/12/102
f 89/138/102 92/12/102 88/146/102
f 88/146/103 92/12/103 77/145/103
f 92/12/103 90/15/103 77/145/103
f 77/145/103 90/15/103 72/142/103
f 96/3/104 35/97/104 32/96/104
f 95/2/105 35/97/105 96/3/105
f 95/2/106 29/78/106 35/97/106
f 29/78/107 34/77/107 35/97/107
f 30/91/108 95/2/108 28/147/108
f 31/76/108 29/78/108 30/91/108
f 29/78/108 95/2/108 30/91/108
f 95/2/109 94/1/109 28/147/109
f 28/147/110 22/93/110 24/67/110
f 28/147/110 94/1/110 22/93/110
f 24/67/110 22/93/110 23/68/110
f 94/1/111 45/5/111 41/94/111
f 94/1/112 41/94/112 22/93/112
f 96/3/113 43/6/113 94/1/113
f 96/3/114 32/96/114 43/6/114
f 94/1/115 43/6/115 45/5/115
f 73/126/116 74/143/116 71/141/116
f 73/126/117 71/141/117 100/133/117
f 99/136/118 68/128/118 100/133/118
f 68/128/119 73/126/119 100/133/119
f 67/148/120 69/132/120 99/136/120
f 69/132/120 70/127/120 68/128/120
f 69/132/120 68/128/120 99/136/120
f 98/135/120 67/148/120 99/136/120
f 103/44/121 67/148/121 97/134/121 105/41/121 104/45/121
f 97/134/121 67/148/121 98/135/121
f 97/134/121 64/139/121 106/42/121 105/41/121
f 91/14/122 93/13/122 87/137/122
f 97/134/123 87/137/123 64/139/123
f 100/133/124 87/137/124 97/134/124
f 100/133/125 71/141/125 87/137/125
f 71/141/122 91/14/122 87/137/122
f 5/38/126 7/26/126 116/32/126 51/117/126 56/110/126 54/109/126 48/106/126 122/85/126 27/83/126 30/91/126 28/147/126 24/67/126 66/66/126 69/132/126 67/148/126 103/44/126 2/40/126
f 130/90/127 140/51/127 18/48/127 129/62/127
f 59/119/128 62/11/128 58/10/128 60/114/128
